<svg id="Communication" xmlns="http://www.w3.org/2000/svg" viewBox="0 0 512 512"><title>Icon Library 26 copy</title><path d="M311,128l-55,55V384H512V128H311ZM488,360H280V193l41-41H488V360Z"/><path d="M304,336H456a8,8,0,0,0,0-16H320V211.31L339.31,192H448v56H424V216H344v80h80V264h40V176H332.69L304,204.69V336Z"/><path d="M0,192V320A64,64,0,0,0,0,192Z"/><path d="M133.72,105.38a24,24,0,0,0-2,33.88,176,176,0,0,1,0,233.48A24,24,0,1,0,167.6,404.6a224,224,0,0,0,0-297.2A24,24,0,0,0,133.72,105.38Z"/><path d="M109.18,155a24,24,0,0,0-37.79,29.6A114.81,114.81,0,0,1,96,256a114.81,114.81,0,0,1-24.61,71.45A24,24,0,1,0,109.18,357,162.38,162.38,0,0,0,144,256,162.38,162.38,0,0,0,109.18,155Z"/></svg>