<svg id="General_actions" data-name="General actions" xmlns="http://www.w3.org/2000/svg" viewBox="0 0 512 512"><title>Icon Library 30 copy</title><path d="M352,184l-88.82,88.82a31.89,31.89,0,0,0-14.36,0L192,216l-24,24,56.82,56.82a32,32,0,1,0,62.36,0L376,208Z"/><path d="M256,64C132.29,64,32,164.29,32,288S132.29,512,256,512,480,411.71,480,288,379.71,64,256,64ZM380.45,412.45A176,176,0,1,1,432,288,174.85,174.85,0,0,1,380.45,412.45Z"/><path d="M144,32L121.37,9.37a32,32,0,0,0-45.25,0L9.37,76.12a32,32,0,0,0,0,45.25L32,144Z"/><path d="M502.63,76.12L435.88,9.37a32,32,0,0,0-45.25,0L368,32,480,144l22.63-22.63A32,32,0,0,0,502.63,76.12Z"/></svg>