<?xml version="1.0" encoding="utf-8"?>
<!-- Generator: Adobe Illustrator 19.1.0, SVG Export Plug-In . SVG Version: 6.00 Build 0)  -->
<svg version="1.1" xmlns="http://www.w3.org/2000/svg" xmlns:xlink="http://www.w3.org/1999/xlink" x="0px" y="0px"
	 viewBox="0 0 512 512" enable-background="new 0 0 5 512" xml:space="preserve">
<g id="_x36_4">
</g>
<g id="_x31_3x13" display="none">
</g>
<g id="_x32_4x24" display="none">
</g>
<g id="Blues" display="none">
</g>
<g id="Shaded" display="none">
	<g display="inline">
		<path fill="#FFD200" d="M448,512H64c-35.3,0-64-28.7-64-64V64C0,28.7,28.7,0,64,0h384c35.3,0,64,28.7,64,64v384
			C512,483.3,483.3,512,448,512z"/>
	</g>
	<linearGradient id="SVGID_1_" gradientUnits="userSpaceOnUse" x1="256.5301" y1="255.3177" x2="440.1624" y2="438.95">
		<stop  offset="0" style="stop-color:#997A1F;stop-opacity:0.5"/>
		<stop  offset="1" style="stop-color:#FFD200;stop-opacity:0"/>
	</linearGradient>
	<path display="inline" fill="url(#SVGID_1_)" d="M412,64.1l99.9,99.5L512,448c-4.3,50.4-45.4,64-69.2,64H166.2l-69.6-69.7
		l327.5-249.8L412,64.1z"/>
	<polygon display="inline" fill="#FFD200" points="424.1,205.7 424.1,232.1 418.4,288.1 418.4,372.2 418.4,428.8 411.3,440.1 
		272.7,444 152.5,441.7 100.6,440.5 93.9,410.5 93.9,246.5 93.9,190 221.2,138 422.6,177.5 	"/>
	<g display="inline">
		<path fill="#2E2E2E" d="M412,64.1H100l-36,132c0,13.3,10.7,24,24,24h0c13.3,0,24-10.7,24-24c0,13.3,10.7,24,24,24h0
			c13.3,0,24-10.7,24-24c0,13.3,10.7,24,24,24h0c13.3,0,24-10.7,24-24c0,13.3,10.7,24,24,24h0c13.3,0,24-10.7,24-24
			c0,13.3,10.7,24,24,24h0c13.3,0,24-10.7,24-24c0,13.3,10.7,24,24,24h0c13.3,0,24-10.7,24-24c0,13.3,10.7,24,24,24h0
			c13.3,0,24-10.7,24-24c0,13.3,10.7,24,24,24h0c13.3,0,24-10.7,24-24L412,64.1z"/>
		<path fill="#2E2E2E" d="M412.1,424.1c0,6.6-5.5,11.8-12.1,11.8H208.1v-180H124l60.1,12.7v167.3H112c-6.6,0-11.9-5.2-11.9-11.8V230
			c-3.8,1.3-7.5,2.1-12,2.1v192c0,13.2,10.7,23.8,23.9,23.8h288c13.2,0,24.1-10.6,24.1-23.8v-192c-4.5,0-8.2-0.7-12-2.1V424.1z"/>
		<polygon fill="#2E2E2E" points="232.1,255.9 232.1,412.1 388,412.1 387.9,255.9 		"/>
	</g>
</g>
<g id="EB" display="none">
	<rect y="0" display="inline" fill="#333E47" width="512" height="512"/>
	<g display="inline">
		<path fill="#FFFFFF" d="M64,64v384h384V64H64z M424,424H88V88h336V424z"/>
		<path fill="#FFFFFF" d="M148,400h216c13.2,0,24-10.8,24-24c0-13.2-10.8-24-24-24H148c-13.2,0-24,10.8-24,24
			C124,389.2,134.8,400,148,400z"/>
	</g>
</g>
<g id="Devices__x26__Accessories" display="none">
	<path display="inline" d="M416,0c-23,0-42.4,16.9-45.7,39.6L360,128l-16,0V96h-32V64h-16v32h-16V64h-16v32h-16V64h-16v32h-16V64
		h-16v32h-32v32l-16,0l-10.3-88.4C138.4,16.9,119,0,96,0v480c0,17.6,14.4,32,32,32h256c17.6,0,32-14.4,32-32V0L416,0z M344,288
		L232,448l-48,0l56-96h-88l112-160h96l-80,96L344,288z"/>
</g>
<g id="Enterprise" display="none">
	<g display="inline">
		<path d="M440,300c-22.1,0-40,17.9-40,40c0,22.1,17.9,40,40,40c22.1,0,40-17.9,40-40C480,317.9,462.1,300,440,300z"/>
		<path d="M312,300c-22.1,0-40,17.9-40,40c0,22.1,17.9,40,40,40c22.1,0,40-17.9,40-40C352,317.9,334.1,300,312,300z"/>
		<path d="M72,300c-22.1,0-40,17.9-40,40c0,22.1,17.9,40,40,40c22.1,0,40-17.9,40-40C112,317.9,94.1,300,72,300z"/>
		<path d="M208,260c-8.8,0-16,7.2-16,16l-32,0V148c0-8.8-7.2-16-16-16H72.6c-5.4,0-10.3,2.7-13.3,7.1L0,228v112h16
			c0-30.9,25.1-56,56-56c30.9,0,56,25.1,56,56h128c0-30.9,25.1-56,56-56c30.9,0,56,25.1,56,56h16c0-30.9,25.1-56,56-56
			c30.9,0,56,25.1,56,56h16v-80H208z M124.8,228H16l51-76.4c1.5-2.2,4-3.6,6.7-3.6l43.2,0c4.4,0,8,3.6,8,8V228z"/>
	</g>
</g>
<g id="Connectivity" display="none">
	<g display="inline">
		<path d="M442.8,346.5l-36.1-36.1c-6.1-6.1-15.7-6.9-22.7-1.9l-46.7,33.4c-4.2,2.9-6.9,7.5-7.5,12.5l-5.3,35.6
			c-18.5,6.2-36.9,12.3-67.4,12.5c-0.4,0-0.7,0-1.1,0c-31.1,0-49.8-6.2-68.5-12.5l-5.3-35.6c-0.6-5.1-3.3-9.6-7.5-12.5L128,308.5
			c-7-5-16.6-4.2-22.7,1.9l-36.1,36.1c-6.9,6.9-6.9,18.2,0.1,25c51,50.2,117.2,75.7,183.6,76.5v0c68.5,0.8,137.3-24.7,189.8-76.5
			C449.7,364.6,449.8,353.4,442.8,346.5z"/>
		<path d="M256.1,92.4c89.7,0,140.3,60.2,140.3,60.2l19.6-20.2c0,0-58.1-68.4-159.9-68.4C154.1,64,96,132.2,96,132.2l19.6,20.1
			C115.6,152.3,167.5,92.4,256.1,92.4z"/>
		<path d="M312.6,238.8l18.5-19.1c0,0-27.3-32.3-75-32.3c-47.6,0-75.2,31.8-75.2,31.8l18.5,19c0,0,19.9-23.9,56.7-23.9
			C292.9,214.4,312.6,238.8,312.6,238.8z"/>
		<path d="M221.1,260.6l35.2,36.1l34.8-35.8c0,0-12.9-15.2-35-15.2C234.1,245.7,221.1,260.6,221.1,260.6z"/>
		<path d="M354.1,196l19.3-19.8c0,0-42.9-50.3-117.3-50.3c-74.3,0-117.5,49.8-117.5,49.8l19.3,19.9c0,0,35.5-41.6,98.2-41.6
			C318.8,154.1,354.1,196,354.1,196z"/>
	</g>
</g>
<g id="Navigation" display="none">
	<g display="inline">
		<rect x="267.7" y="95.8" transform="matrix(0.7071 0.7071 -0.7071 0.7071 222.4612 -153.068)" width="56.6" height="192.3"/>
		<polygon points="0,288 120,408 160,368 40,248 		"/>
		<polygon points="472,104 247.8,327.8 168,248 128,288 248,408 512,144 		"/>
	</g>
</g>
<g id="General">
	<g>
		<path d="M352,184l-88.8,88.8c-2.3-0.5-4.7-0.8-7.2-0.8s-4.9,0.3-7.2,0.8L192,216l-24,24l56.8,56.8c-0.5,2.3-0.8,4.7-0.8,7.2
			c0,17.7,14.3,32,32,32s32-14.3,32-32c0-2.5-0.3-4.9-0.8-7.2L376,208L352,184z"/>
		<path d="M256,64C132.3,64,32,164.3,32,288c0,123.7,100.3,224,224,224c123.7,0,224-100.3,224-224C480,164.3,379.7,64,256,64z
			 M380.5,412.5C347.2,445.7,303,464,256,464c-47,0-91.2-18.3-124.5-51.5C98.3,379.2,80,335,80,288c0-47,18.3-91.2,51.5-124.5
			C164.8,130.3,209,112,256,112c47,0,91.2,18.3,124.5,51.5C413.7,196.8,432,241,432,288C432,335,413.7,379.2,380.5,412.5z"/>
		<path d="M144,32L121.4,9.4c-12.5-12.5-32.8-12.5-45.3,0L9.4,76.1c-12.5,12.5-12.5,32.8,0,45.3L32,144L144,32z"/>
		<path d="M502.6,76.1L435.9,9.4c-12.5-12.5-32.8-12.5-45.3,0L368,32l112,112l22.6-22.6C515.1,108.9,515.1,88.6,502.6,76.1z"/>
	</g>
</g>
</svg>
