<svg id="SAA" xmlns="http://www.w3.org/2000/svg" viewBox="0 0 512 512"><title>Icon Library 30 copy</title><path d="M256,0C114.62,0,0,114.61,0,256S114.62,512,256,512,512,397.38,512,256,397.38,0,256,0ZM403.08,403.08A208,208,0,1,1,108.92,108.92,208,208,0,1,1,403.08,403.08Z"/><rect x="128" y="296" width="64" height="88"/><rect x="224" y="208" width="64" height="176"/><rect x="320" y="256" width="64" height="128"/><path d="M352,160a31.93,31.93,0,0,0-24.11,11l-40.6-20.3A32,32,0,1,0,227.76,159l-50.34,46.15A32,32,0,1,0,188.24,217l50.34-46.15A31.92,31.92,0,0,0,280.11,165l40.6,20.3A32,32,0,1,0,352,160ZM160,248a16,16,0,1,1,16-16A16,16,0,0,1,160,248Zm96-88a16,16,0,1,1,16-16A16,16,0,0,1,256,160Zm96,48a16,16,0,1,1,16-16A16,16,0,0,1,352,208Z"/></svg>