<svg id="General_actions" data-name="General actions" xmlns="http://www.w3.org/2000/svg" viewBox="0 0 512 512"><title>Icon Library 30 copy</title><path d="M128,384a21.4,21.4,0,0,0,21.33,21.33H168V480a32,32,0,0,0,64,0V405.33h48V480a32,32,0,0,0,64,0V405.33h18.67A21.4,21.4,0,0,0,384,384V168H128V384Z"/><path d="M80,168a32,32,0,0,0-32,32V352a32,32,0,0,0,64,0V200A32,32,0,0,0,80,168Z"/><path d="M432,168a32,32,0,0,0-32,32V352a32,32,0,0,0,64,0V200A32,32,0,0,0,432,168Z"/><path d="M331.31,46.08L359,18.35A10.56,10.56,0,0,0,359,3.2a10.56,10.56,0,0,0-15.15,0L312.32,34.77A124.57,124.57,0,0,0,256,21.33a126.37,126.37,0,0,0-56.75,13.44L167.47,3.2a10.56,10.56,0,0,0-15.15,0,10.56,10.56,0,0,0,0,15.15l27.95,27.95C148.69,69.55,128,109.55,128,152H384C384,109.55,363.31,69.33,331.31,46.08ZM204,112a12,12,0,1,1,12-12A12,12,0,0,1,204,112Zm104,0a12,12,0,1,1,12-12A12,12,0,0,1,308,112Z"/></svg>