<svg id="Layer_1" data-name="Layer 1" xmlns="http://www.w3.org/2000/svg" viewBox="0 0 512 512"><title>application_analytics</title><path d="M434.83,149.53a176,176,0,0,0-328.55-35.69,128,128,0,0,0,10.25,253.64A90.75,90.75,0,0,1,112,339.14c0-46.62,38-83.14,86.4-83.14A95.1,95.1,0,0,1,256,275.76,95.1,95.1,0,0,1,313.6,256C362,256,400,292.52,400,339.14A90.82,90.82,0,0,1,395.31,368H400A112,112,0,0,0,434.83,149.53ZM415.36,350.77a106.71,106.71,0,0,0,.64-11.63C416,283.55,371,240,313.6,240A110.65,110.65,0,0,0,256,256.35,110.65,110.65,0,0,0,198.4,240C141,240,96,283.55,96,339.14q0,4.16.32,8.31A112,112,0,0,1,109,129.62l8-1.37,3.62-7.29A160,160,0,0,1,264,32a158.28,158.28,0,0,1,99.31,34.55,160.83,160.83,0,0,1,56,86.83l2.13,8.6,8.43,2.75A96,96,0,0,1,415.36,350.77ZM313.6,272A78.22,78.22,0,0,0,256,297.51,78.22,78.22,0,0,0,198.4,272C159,272,128,301.54,128,339.14a75.93,75.93,0,0,0,5.8,28.77h21.26l38-76L241,420l26-52,22,0a32,32,0,1,1,0,16H276.94l-38,76L191,331.92l-26,52H142c17.85,28.89,51.71,58.16,95.44,96L256,496l18.56-16C340.48,422.88,384,385.28,384,339.14,384,301.54,353,272,313.6,272Z"/></svg>