<svg id="Enterprise" xmlns="http://www.w3.org/2000/svg" viewBox="0 0 512 512"><defs><style>.cls-1{fill-rule:evenodd;}</style></defs><title>Icon Library 30 copy</title><path class="cls-1" d="M256,96C112,96,0,256,0,256S112,416,256,416,512,256,512,256,400,96,256,96Zm0,288A128,128,0,1,1,384,256,128,128,0,0,1,256,384Z"/><path class="cls-1" d="M256,176a80,80,0,1,0,80,80A80,80,0,0,0,256,176Zm64,80a16,16,0,0,1-16,16H272v32a16,16,0,0,1-32,0V272H208a16,16,0,0,1,0-32h32V208a16,16,0,0,1,32,0v32h32A16,16,0,0,1,320,256Z"/></svg>