<svg id="Devices_Accessories" data-name="Devices &amp; Accessories" xmlns="http://www.w3.org/2000/svg" viewBox="0 0 512 512"><title>Icon Library 26 copy</title><path d="M507.37,229.34l-9.89-4.4a8,8,0,0,0-3.58-.84h-9.05a8,8,0,0,0-7.22,4.56c-2.78,5.83-7.31,16.94-12,28.87a13.25,13.25,0,0,0-1.19-2.65l-21.1-35.54a6.63,6.63,0,0,0-3.64-2.26L190.7,160s-4-6.62-8.67-12.85c1.54-3.32.31-9.62-3-11.16l-34-16.09c-19.29,0-42.73,10.05-45.52,16.07,0,0-78.9,144-95.58,174.39C-2,321.08-1,334.15,8.28,342.06c22.2,18.83,68.35,50,79.52,50h360c28.25,0,57.59-124.72,63.82-153.93A8,8,0,0,0,507.37,229.34ZM391.8,328.09l-248-8c-8,0-12.11-9-16-16,11.16-24.08,23.84-59.83,84-31.92,12,5.58,17.62-6.46,53.73,10.28,0,0,119.16,28.85,128.9,30.72a6.61,6.61,0,0,1,3,1.43l0,0Z"/><path d="M209.11,276.59l-0.86-.37c-0.8-.37-1.59-0.73-2.38-1.07-26.25-11.42-42.61-5.85-54.68,7.37a3.18,3.18,0,0,0,1.67-.11c12.84-4.35,29.08-3.76,49.81,5.85,5.17,2.4,21-6.15,32.59-6.91,10.48-.69,23.79,3.85,23.66,3.8-17-7.31-25.3-7-31.47-6.43C222.49,279.16,216.36,279.7,209.11,276.59Z"/></svg>