<svg id="Devices_Accessories" data-name="Devices &amp; Accessories" xmlns="http://www.w3.org/2000/svg" viewBox="0 0 512 512"><title>Icon Library 26 copy</title><path d="M107.91,39.84c5.31,0,63.52.16,64.11,0.16,5.28,0,11.7,2.14,18.51,4.41C195.32,46,201.29,48,204,48H366.5C364.28,45.3,344,16,336,16L100.54,0a8,8,0,0,0-8.38,9.57s3.66,13.6,9.11,31.57A16.61,16.61,0,0,1,107.91,39.84Z"/><path d="M419.83,429.33L356,128s5.19-7.78,9.66-16H212c-2.7,0-8.67,2-13.47,3.59-6.8,2.27-13.23,4.41-18.53,4.41H131.38c3.14,5,6.08,8,8.62,8,32,0,104,0,104,80,0,16,16,16,16,64,0,0,28.87,145,31.76,156.59a8,8,0,0,1-1.1,6.36l-29.14,43a8,8,0,0,0-1.52,4.69v15.16a8,8,0,0,0,6.06,7.76L292,512l90.9-30.3a16,16,0,0,0,8.14-6.13l28.17-41.11A8,8,0,0,0,419.83,429.33Z"/><path d="M212,104H372a8,8,0,0,0,8-8V64a8,8,0,0,0-8-8H204c-8,0-24-8-32-8,0,0-58.72-.16-64.09-0.16A7.18,7.18,0,0,0,100.55,53a7.77,7.77,0,0,0,0,4.74l13.82,48.47A8,8,0,0,0,122,112h58C188,112,204,104,212,104Z"/><path d="M228,209.13c0-.37,0-0.74,0-1.13,0-1.07,0-2.11,0-3.15-0.82-34.5-15.21-49.58-35.79-56.08a3.83,3.83,0,0,0,1,1.77C204.4,162.38,212,180.44,212,208c0,6.88,17.35,19.81,24.09,32.15,6.07,11.12,7.85,28,7.85,27.81-0.6-22.26-5.19-31.22-8.93-37.69C232,225.08,228.3,218.64,228,209.13Z"/></svg>