<svg id="Enterprise" xmlns="http://www.w3.org/2000/svg" viewBox="0 0 512 512"><title>Icon Library 30 copy</title><rect x="480" y="352" width="32" height="32"/><polygon points="448 448 448 512 480 512 480 480 512 480 512 416 480 416 480 448 448 448"/><rect x="448" y="384" width="32" height="32"/><path d="M0,512H192V320H0V512ZM32,352H160V480H32V352Z"/><rect x="64" y="384" width="64" height="64"/><rect x="384" y="448" width="32" height="64"/><rect x="416" y="416" width="32" height="32"/><polygon points="416 352 352 352 352 384 384 384 384 416 416 416 416 384 448 384 448 352 480 352 480 320 416 320 416 352"/><polygon points="352 416 352 384 320 384 320 448 384 448 384 416 352 416"/><rect x="384" y="288" width="32" height="32"/><polygon points="416 288 480 288 480 320 512 320 512 256 416 256 416 288"/><polygon points="352 352 352 320 320 320 320 288 384 288 384 288 384 288 384 256 288 256 288 288 256 288 256 256 224 256 224 320 288 320 288 384 256 384 256 416 288 416 288 384 320 384 320 352 352 352"/><rect x="160" y="256" width="32" height="32"/><rect y="256" width="128" height="32"/><rect x="224" y="352" width="32" height="32"/><polygon points="224 512 352 512 352 480 288 480 288 448 256 448 256 416 224 416 224 512"/><rect width="64" height="224"/><rect x="96" width="48" height="224"/><rect x="240" width="32" height="224"/><rect x="176" width="32" height="224"/><rect x="304" width="48" height="224"/><rect x="384" width="32" height="224"/><rect x="448" width="64" height="224"/></svg>