<svg id="Devices_Accessories" data-name="Devices &amp; Accessories" xmlns="http://www.w3.org/2000/svg" viewBox="0 0 512 512"><title>Icon Library 26 copy</title><path d="M377.94,43.2c-6.66-2.43-15.49,2.22-17,9-1.6,7.08-.42,9.06,11.87,19.9,18.31,16.16,28,28.39,39.18,49.49,13.62,25.69,19.71,55.06,17.78,85.62-0.46,7.22-.73,14.32-0.6,15.78,0.54,6.05,7.69,11.45,14.22,10.74,9.69-1.07,13.19-9.93,13.42-34,0.46-47-15.6-91.55-45.74-126.74C401.94,62.29,382.55,44.88,377.94,43.2Z"/><path d="M355.1,95.06c-10.95-9.7-15.76-11.6-22.38-8.86-3.95,1.63-4.95,2.6-6.66,6.41-3.47,7.73-2.2,10.38,10.18,21.21,28.18,24.66,40.67,55.31,38.15,93.56-0.69,10.41-.5,13.36,1,15.49A15.26,15.26,0,0,0,386.74,229a14.08,14.08,0,0,0,6.39-1.6c5.26-3.07,6.77-7.19,7.67-20.78,1.56-23.74-1-39.83-9.84-61.2C382.38,124.65,371.94,110,355.1,95.06Z"/><path d="M503,129.57c-4-14.9-16.57-44-25.29-58.43A251.56,251.56,0,0,0,425.93,9.73C420.84,5.37,415.2,1.26,413.41.58c-4.67-1.76-11.89.65-15,5-2.26,3.18-3.05,9.23-1.66,12.6,0.38,0.91,5.72,6.09,11.87,11.51,28.66,25.23,45.86,49.06,59.93,83,14.55,35.14,19.48,67,16.25,105.2-0.8,9.45-.64,11.67,1.05,14.26,2.59,4,8.32,6.9,12.56,6.43a11.36,11.36,0,0,0,4.47-1.28,11.34,11.34,0,0,1,2.38-1.44c3.5-1.45,5.33-8.84,6.29-25.37A250.34,250.34,0,0,0,503,129.57Z"/><path d="M256,192s24-80-8-112C152,48,48,40,0,40c0,0,24.72,122.18,48,128,32,8,74.16,16.23,105.8,23.1a18,18,0,0,1,14.14,18.45c-0.43,8.77-13.31,22.45-5.31,38.45a122,122,0,0,1,13.3,51.38C176,312,168,328,152,336c2.34,41.46,16.12,115.06,16,144l-32,16v16H288V496l-16-16S256.86,205.55,256,192Z"/><path d="M149.32,318.89c7.61-5.77,10.55-14.14,10.62-19.19a105.25,105.25,0,0,0-11.61-44.55c-8.75-17.49-2.18-32.84,1.75-42,0.67-1.57,1.56-3.65,1.87-4.69v0a2,2,0,0,0-.12-0.42c-8.05.22-23.8,16.22-19.58,48.63,2.25,17.3,11.63,52.09,11.76,63.36A15,15,0,0,0,149.32,318.89Z"/></svg>