<svg id="Devices_Accessories" data-name="Devices &amp; Accessories" xmlns="http://www.w3.org/2000/svg" viewBox="0 0 512 512"><title>Icon Library 26 copy</title><path d="M511.55,325.87c-3.82-22.65-15.72-67-39.57-67h-2.8l15.64-76.08a8,8,0,0,0-6.23-9.45l-2.84-.58a8,8,0,0,0-6,1.16l-8.89,5.86a16,16,0,0,1-11.16,2.47c-31.51-4.69-177.41-26.37-229.35-34A125.9,125.9,0,0,1,189,139.25c-16.49-7.08-45.24-17.12-68.48-13.2A31.7,31.7,0,0,0,98.13,142a672.88,672.88,0,0,0-32.82,68.85H61a32,32,0,0,0-22.64,9.37L11.73,246.83c-8,7.95-13.78,18.67-11,29.58L31.74,386.83H480L506.62,349A32,32,0,0,0,511.55,325.87Zm-327.73-3h0a42.25,42.25,0,0,0-26.69-29.5C161,284,164.47,275,170.7,260.9c3.16-7.14,46.36-22.6,64-13.19,16.29,8.69,34.06-2.42,67.89,6.21,43.36,11.07,97.65,12.73,124.59,17.71a16,16,0,0,1,12.56,11.61l3.34,12.5-27.11,27.09H183.82Z"/></svg>