<svg id="Enterprise" xmlns="http://www.w3.org/2000/svg" viewBox="0 0 512 512"><title>Icon Library 30 copy</title><rect width="64" height="384"/><rect x="448" width="64" height="384"/><polygon points="384 285.7 394.56 304 416 304 416 0 384 0 384 285.7"/><path d="M352,384a96.92,96.92,0,0,0-.75-12.08l27.61-31.13-24-41.57-40.78,8.34a95.87,95.87,0,0,0-20.92-12.1L280,256H232l-13.15,39.46a95.87,95.87,0,0,0-20.92,12.1l-40.78-8.34-24,41.57,27.61,31.13a97.09,97.09,0,0,0,0,24.17l-27.61,31.13,24,41.57,40.78-8.34a95.89,95.89,0,0,0,20.92,12.1L232,512h48l13.15-39.46a95.88,95.88,0,0,0,20.92-12.1l40.78,8.34,24-41.57-27.61-31.13A96.94,96.94,0,0,0,352,384Zm-96,48a48,48,0,1,1,48-48A48,48,0,0,1,256,432Z"/><path d="M320.7,273.54l31.3-6.41V0H304V226.81l15.31,45.93Z"/><rect x="240" width="32" height="224"/><path d="M192.69,272.74L208,226.81V0H176V270.41l15.3,3.13Z"/><polygon points="144 0 96 0 96 304 117.44 304 144 258.13 144 0"/></svg>