<svg id="Enterprise" xmlns="http://www.w3.org/2000/svg" viewBox="0 0 512 512"><defs><style>.cls-1{fill-rule:evenodd;}</style></defs><title>Icon Library 30 copy</title><rect width="64" height="384"/><rect x="448" width="64" height="384"/><rect x="384" width="32" height="304"/><path class="cls-1" d="M266.35,319.21l21.17,21.17-21.15,21.15,0-42.32h0Zm0,129.57,21.17-21.16-21.15-21.15,0,42.32h0ZM243.75,384L198,338.12l13.26-13.26,36.46,36.46V273.93L314,340.23,270.23,384,314,427.78l-66.29,66.29V406.68l-36.46,36.46L198,429.88,243.75,384h0ZM256,512c55.9,0,94.41-26.55,94.41-128S311.91,256,256,256s-94.43,26.55-94.43,128S200.11,512,256,512h0Z"/><path d="M348.44,261.09c1.22,1.42,2.41,2.89,3.56,4.39V0H304V231.17A100,100,0,0,1,348.44,261.09Z"/><path d="M256,224q8.29,0,16,.68V0H240V224.68Q247.72,224,256,224Z"/><path d="M208,231.18V0H176V248.89A101,101,0,0,1,208,231.18Z"/><path d="M144,293.74V0H96V304h44.24Q142,298.69,144,293.74Z"/></svg>