<svg id="General_actions" data-name="General actions" xmlns="http://www.w3.org/2000/svg" viewBox="0 0 512 512"><title>Icon Library 30 copy</title><path d="M384,32H304V16A16,16,0,0,0,288,0H224a16,16,0,0,0-16,16V32H128A32.1,32.1,0,0,0,96,64V480a32.09,32.09,0,0,0,32,32H384a32.09,32.09,0,0,0,32-32V64A32.09,32.09,0,0,0,384,32ZM368,464H144s0-384,0-384,224,0,224,0S368,464,368,464Z"/><path d="M176,432H336V112H176V432Zm43.46-191.06a11.23,11.23,0,0,1,4.29,21.6v4.93c0,15.19,17.33,23.23,28.24,33.41V218.76H241.92L256.45,192l14.34,26.76h-10v60.44c10.83-8.86,28.28-13.91,28.28-28.36v-1.2h-6.3V228.59H304v21.05h-6.15v0.93c0,28.2-37.07,28.24-37.07,45.68v25.17a15.6,15.6,0,0,1,11.7,15,16,16,0,0,1-31.95,0,15.48,15.48,0,0,1,11.46-15V318c0-16.24-37-22-37-51.27v-4.23a11.52,11.52,0,0,1-7-10.41A11.35,11.35,0,0,1,219.46,240.94Z"/></svg>