<svg id="General_actions" data-name="General actions" xmlns="http://www.w3.org/2000/svg" viewBox="0 0 512 512"><title>Icon Library 30 copy</title><path d="M384,32H304V16A16,16,0,0,0,288,0H224a16,16,0,0,0-16,16V32H128A32.1,32.1,0,0,0,96,64V480a32.09,32.09,0,0,0,32,32H384a32.09,32.09,0,0,0,32-32V64A32.09,32.09,0,0,0,384,32ZM352,227.29H339.71v1.86c0,56.4-74.14,56.48-74.14,91.36v50.34a31.19,31.19,0,0,1,23.4,30c0,17.25-14.5,31.15-32.07,31.15s-31.83-13.91-31.83-31.15a31,31,0,0,1,22.93-30V364.1c0-32.47-74-44-74-102.55v-8.47c-8.19-3.65-14-11.57-14-20.82a22.69,22.69,0,1,1,31.51,20.82V263c0,30.38,34.67,46.46,56.49,66.81V165.53H227.83L256.91,112l28.68,53.53h-20V286.41c21.67-17.71,56.57-27.81,56.57-56.71v-2.41H309.53V185.18H352v42.11Z"/></svg>