<svg id="Devices_Accessories" data-name="Devices &amp; Accessories" xmlns="http://www.w3.org/2000/svg" viewBox="0 0 512 512"><title>Icon Library 30 copy</title><path d="M96,320H416a32.09,32.09,0,0,0,32-32V240h16a16,16,0,0,0,16-16V160a16,16,0,0,0-16-16H448V96a32.1,32.1,0,0,0-32-32H96A32.09,32.09,0,0,0,64,96V288A32.09,32.09,0,0,0,96,320Zm16-208s288,0,288,0,0,160,0,160-288,0-288,0V112Z"/><path d="M496,272H480v16a64,64,0,0,1-64,64H96a64,64,0,0,1-64-64V272H16A16,16,0,0,0,0,288V416a32.09,32.09,0,0,0,32,32H480a32,32,0,0,0,32-32V288A16,16,0,0,0,496,272Z"/><path d="M368,144H144v96H368V144Zm-84.92,38.15-34.46,49.23H233.85l17.23-29.54H224l34.46-49.23H288l-24.62,29.54h19.69Z"/></svg>