<svg id="Communication" xmlns="http://www.w3.org/2000/svg" viewBox="0 0 512 512"><defs><style>.cls-1{fill-rule:evenodd;}</style></defs><title>Icon Library 26 copy</title><path class="cls-1" d="M276.69,126.43L319,168.76l-42.3,42.3,0-84.63h0Zm0,259.15L319,343.25l-42.3-42.31,0,84.63h0ZM231.5,256L140,164.24l26.52-26.52,72.93,72.93V35.87L372,168.45,284.46,256,372,343.55,239.43,476.13V301.35l-72.93,72.93L140,347.76,231.5,256h0ZM256,512c111.79,0,188.83-53.1,188.83-256S367.81,0,256,0,67.15,53.1,67.15,256,144.23,512,256,512h0Z"/></svg>