<svg id="General_actions" data-name="General actions" xmlns="http://www.w3.org/2000/svg" viewBox="0 0 512 512"><title>Icon Library 26 copy</title><path d="M256,112A144,144,0,1,0,400,256,144,144,0,0,0,256,112Zm0,240a96,96,0,1,1,96-96A96,96,0,0,1,256,352Z"/><path d="M256,96a24.07,24.07,0,0,0,24-24V48a24,24,0,0,0-48,0V72A24.07,24.07,0,0,0,256,96Z"/><path d="M256,416a24.07,24.07,0,0,0-24,24v24a24,24,0,0,0,48,0V440A24.07,24.07,0,0,0,256,416Z"/><path d="M464,232H440a24,24,0,0,0,0,48h24A24,24,0,0,0,464,232Z"/><path d="M96,256a24.07,24.07,0,0,0-24-24H48a24,24,0,1,0,0,48H72A24.07,24.07,0,0,0,96,256Z"/><path d="M369.14,142.86a24.07,24.07,0,0,0,33.94,0l17-17A24,24,0,0,0,386.11,92l-17,17A24.07,24.07,0,0,0,369.14,142.86Z"/><path d="M142.86,369.14a24.07,24.07,0,0,0-33.94,0l-17,17A24,24,0,0,0,125.89,420l17-17A24.07,24.07,0,0,0,142.86,369.14Z"/><path d="M420,386.11l-17-17a24,24,0,0,0-33.94,33.94l17,17A24,24,0,0,0,420,386.11Z"/><path d="M142.86,142.86a24.07,24.07,0,0,0,0-33.94l-17-17A24,24,0,0,0,92,125.89l17,17A24.07,24.07,0,0,0,142.86,142.86Z"/></svg>