<svg id="General_actions" data-name="General actions" xmlns="http://www.w3.org/2000/svg" viewBox="0 0 512 512"><title>Icon Library 26 copy</title><path d="M256,112A144,144,0,1,0,400,256,144,144,0,0,0,256,112Zm0,240a96,96,0,1,1,96-96A96,96,0,0,1,256,352Z"/><circle cx="256" cy="72" r="24"/><circle cx="256" cy="440" r="24"/><circle cx="440" cy="256" r="24"/><circle cx="72" cy="256" r="24"/><circle cx="386.11" cy="386.11" r="24" transform="translate(-159.93 386.1) rotate(-45)"/><circle cx="125.89" cy="125.89" r="24" transform="translate(-52.15 125.89) rotate(-45)"/><circle cx="386.11" cy="125.89" r="24" transform="translate(24.07 309.89) rotate(-45)"/><circle cx="125.89" cy="386.11" r="24" transform="translate(-236.15 202.11) rotate(-45)"/></svg>