<svg id="General_actions" data-name="General actions" xmlns="http://www.w3.org/2000/svg" viewBox="0 0 512 512"><title>Icon Library 26 copy</title><path d="M256,112A144,144,0,1,0,400,256,144,144,0,0,0,256,112Zm0,240a96,96,0,1,1,96-96A96,96,0,0,1,256,352Z"/><path d="M256,96a24.07,24.07,0,0,0,24-24V24a24,24,0,0,0-48,0V72A24.07,24.07,0,0,0,256,96Z"/><path d="M256,416a24.07,24.07,0,0,0-24,24v48a24,24,0,0,0,48,0V440A24.07,24.07,0,0,0,256,416Z"/><path d="M488,232H440a24,24,0,0,0,0,48h48A24,24,0,0,0,488,232Z"/><path d="M96,256a24.07,24.07,0,0,0-24-24H24a24,24,0,0,0,0,48H72A24.07,24.07,0,0,0,96,256Z"/><path d="M403.08,142.86L437,108.92A24,24,0,1,0,403.08,75l-33.94,33.94A24,24,0,0,0,403.08,142.86Z"/><path d="M108.92,369.14L75,403.08A24,24,0,0,0,108.92,437l33.94-33.94A24,24,0,1,0,108.92,369.14Z"/><path d="M108.92,142.86a24,24,0,0,0,33.94-33.94L108.92,75A24,24,0,0,0,75,108.92Z"/><path d="M403.08,369.14a24,24,0,1,0-33.94,33.94L403.08,437A24,24,0,1,0,437,403.08Z"/></svg>