<svg id="Devices_Accessories" data-name="Devices &amp; Accessories" xmlns="http://www.w3.org/2000/svg" viewBox="0 0 512 512"><title>Icon Library 30 copy</title><path d="M384,192V104L383.67,70.6s0.8-13.18-1.61-24.41S374,31.83,370,28.83s-15.94-9.27-24-13.18S319.79,5.07,318.45,4.55s-5-1.17-13.66-2.22S256,0,256,0s-40.09,1.29-48.79,2.33S194.89,4,193.55,4.55,174,11.73,166,15.65s-20,10.18-24,13.18S132.35,35,129.94,46.19s-1.61,24.41-1.61,24.41L128,104v88l8,8V360l-8,8v32c0,8,1.41,39.65,2.21,46s3.62,23,17.14,34.07,16.2,12.66,29.06,19.71,13.93,7.7,30.67,9.66S250.63,512,256,512s32.31-.56,48.92-2.51,17.81-2.61,30.67-9.66,15.53-8.62,29.06-19.71S381,452.44,381.79,446,384,408,384,400V368l-8-8V200ZM351.83,434.79c-0.27,4.29-1.92,10.44-3.32,12.17-3.85,4.78-16.06,11.56-24,14.22-3.3,1-21.31,2.81-67.79,2.81h-1.46c-46.47,0-64.48-1.77-67.8-2.82-7.91-2.65-20.13-9.44-24-14.21-1.43-1.76-3-7.8-3.33-12.42-0.34-10.81,0-362.5,0-365.11,0-1.2.11-3.33,4.72-7.79,0.76-.73,5.83-4.76,30.67-11.44C200.88,49,235,48.1,256,48c21,0.1,55.08,1,60.5,2.24,24.73,6.66,29.8,10.68,30.56,11.42,4.61,4.46,4.68,6.58,4.72,8C351.86,72.05,352.19,423.74,351.83,434.79Z"/></svg>