<svg id="Enterprise" xmlns="http://www.w3.org/2000/svg" viewBox="0 0 512 512"><title>Icon Library 30 copy</title><path d="M384,0H128A32,32,0,0,0,96,32V480a32,32,0,0,0,32,32H384a32,32,0,0,0,32-32V32A32,32,0,0,0,384,0ZM192,480H128V448h64v32Zm0-64H128V384h64v32Zm0-64H128V320h64v32Zm0-64H128V256h64v32Zm0-64H128V176h64v48Zm96,256H224V448h64v32Zm0-64H224V384h64v32Zm0-64H224V320h64v32Zm0-64H224V256h64v32Zm0-64H224V176h64v48Zm96,256H320V384h64v96Zm0-128H320V320h64v32Zm0-64H320V256h64v32Zm0-64H320V176h64v48Zm0-80H128V32H384V144Z"/></svg>