<svg id="Printer" xmlns="http://www.w3.org/2000/svg" viewBox="0 0 512 512"><title>Icon Library 30 copy</title><path d="M192,256a16,16,0,0,0-16-16H16a16,16,0,0,0,0,32H176A16,16,0,0,0,192,256Z"/><path d="M240,240a16,16,0,0,0,0,32h32a16,16,0,0,0,0-32H240Z"/><path d="M496,240H336a16,16,0,0,0,0,32H496A16,16,0,0,0,496,240Z"/><path d="M112,208H400a48,48,0,0,0,48-48V48A48,48,0,0,0,400,0H112A48,48,0,0,0,64,48V160A48,48,0,0,0,112,208ZM96,48a16,16,0,0,1,16-16H400a16,16,0,0,1,16,16V160a16,16,0,0,1-16,16H112a16,16,0,0,1-16-16V48Z"/><path d="M400,304H112a48,48,0,0,0-48,48V464a48,48,0,0,0,48,48H400a48,48,0,0,0,48-48V352A48,48,0,0,0,400,304Zm16,160a16,16,0,0,1-16,16H112a16,16,0,0,1-16-16V352a16,16,0,0,1,16-16H400a16,16,0,0,1,16,16V464Z"/><path d="M256,144l61-63a9.9,9.9,0,0,0-6.92-17H201.88A9.9,9.9,0,0,0,195,81Z"/><path d="M310.12,368H201.88A9.9,9.9,0,0,0,195,385l61,63,61-63A9.9,9.9,0,0,0,310.12,368Z"/></svg>