<svg id="Devices_Accessories" data-name="Devices &amp; Accessories" xmlns="http://www.w3.org/2000/svg" viewBox="0 0 512 512"><title>Icon Library 30 copy</title><path d="M497.75,150.5l-57.69-49.13A32,32,0,0,0,422.31,96H89.69a32,32,0,0,0-17.75,5.37L14.25,150.5A32,32,0,0,0,0,177.13V192H0v48a16,16,0,0,0,16,16H48a48.05,48.05,0,0,1,48-48H416a48.05,48.05,0,0,1,48,48h32a16,16,0,0,0,16-16V177.13A32,32,0,0,0,497.75,150.5Z"/><path d="M416,224H96a32,32,0,0,0-32,32v48.15C64,336,96,416,128,416H384c32,0,64-80,64-112.15V256A32,32,0,0,0,416,224Zm0,79.85c0,8.29-5.28,31.13-16.63,53.83-8.8,17.62-15.72,24.3-18.24,26.32H130.86c-2.52-2-9.44-8.69-18.25-26.3C101.28,335,96,312.35,96,304.15V256H416v47.85Z"/><circle cx="256" cy="320" r="48"/><rect x="136" y="320" width="48" height="48"/><rect x="328" y="320" width="48" height="48"/></svg>