<svg id="Enterprise" xmlns="http://www.w3.org/2000/svg" viewBox="0 0 512 512"><title>Icon Library 26 copy</title><rect x="312" y="216" width="32" height="128"/><rect x="168" y="216" width="32" height="128"/><rect x="248" y="216" width="16" height="96"/><rect x="280" y="216" width="16" height="96"/><rect x="216" y="216" width="16" height="96"/><path d="M480,88H360L344,40H168L152,88H32A32.09,32.09,0,0,0,0,120V440a32.09,32.09,0,0,0,32,32H480a32.09,32.09,0,0,0,32-32V120A32.09,32.09,0,0,0,480,88ZM256,408A128,128,0,1,1,384,280,128,128,0,0,1,256,408Z"/></svg>