<svg id="Enterprise" xmlns="http://www.w3.org/2000/svg" viewBox="0 0 512 512"><title>Icon Library 30 copy</title><path d="M480,88H360L344,40H168L152,88H32A32.09,32.09,0,0,0,0,120V440a32.09,32.09,0,0,0,32,32H480a32.09,32.09,0,0,0,32-32V120A32.09,32.09,0,0,0,480,88ZM256,408C140.8,408,51.2,280,51.2,280S140.8,152,256,152,460.8,280,460.8,280,371.2,408,256,408Z"/><path d="M256,184a96,96,0,1,0,96,96A96,96,0,0,0,256,184Zm64,96a16,16,0,0,1-16,16H272v32a16,16,0,0,1-32,0V296H208a16,16,0,0,1-16-16h0a16,16,0,0,1,16-16h32V232a16,16,0,1,1,32,0v32h32a16,16,0,0,1,16,16h0Z"/></svg>