<?xml version="1.0" encoding="utf-8"?>
<!-- Generator: Adobe Illustrator 19.2.0, SVG Export Plug-In . SVG Version: 6.00 Build 0)  -->
<svg version="1.1" id="Layer_1" xmlns="http://www.w3.org/2000/svg" xmlns:xlink="http://www.w3.org/1999/xlink" x="0px" y="0px"
	 viewBox="0 0 512 512" enable-background="new 0 0 512 512" xml:space="preserve">
<path d="M323.9,256l142.1-142.1c18.7-18.7,18.7-49.1,0-67.9l0,0c-18.7-18.7-49.1-18.7-67.9,0L256,188.1L113.9,46.1
	c-18.7-18.7-49.1-18.7-67.9,0v0c-18.7,18.7-18.7,49.1,0,67.9L188.1,256l0,0L46.1,398.1c-18.7,18.7-18.7,49.1,0,67.9h0
	c18.7,18.7,49.1,18.7,67.9,0L256,323.9l142.1,142.1c18.7,18.7,49.1,18.7,67.9,0h0c18.7-18.7,18.7-49.1,0-67.9L323.9,256z"/>
</svg>
