<svg id="Printer" xmlns="http://www.w3.org/2000/svg" viewBox="0 0 512 512"><title>Icon Library 30 copy</title><path d="M315.1,196.9h0a16.72,16.72,0,0,0-23.64,0L256,232.36,220.54,196.9a16.72,16.72,0,0,0-23.64,23.64L232.36,256,196.9,291.46a16.72,16.72,0,0,0,0,23.64h0a16.72,16.72,0,0,0,23.64,0L256,279.64l35.46,35.46a16.72,16.72,0,0,0,23.64,0h0a16.72,16.72,0,0,0,0-23.64L279.64,256l35.46-35.46A16.72,16.72,0,0,0,315.1,196.9Z"/><path d="M480,96H32A32,32,0,0,0,0,128V384a32,32,0,0,0,32,32H480a32,32,0,0,0,32-32V128A32,32,0,0,0,480,96ZM256,368A112,112,0,1,1,368,256,112,112,0,0,1,256,368Z"/></svg>