<svg id="Devices_Accessories" data-name="Devices &amp; Accessories" xmlns="http://www.w3.org/2000/svg" viewBox="0 0 512 512"><title>Icon Library 30 copy</title><path d="M461.51,126.77A64,64,0,0,0,432.89,120H387.78l31,15.48A24,24,0,0,1,432,157V296H416V166.85a24,24,0,0,0-13.27-21.47L352,120H160l-50.73,25.37A24,24,0,0,0,96,166.85V296H80V157A24,24,0,0,1,93.27,135.5l31-15.48H79.11a64,64,0,0,0-28.62,6.76L0,152V296H0v16H144v16.14C144,344,168,392,184,392H328c16,0,40-48,40-64V312H512V152ZM352,328c0,2.72-2.91,13.29-9.93,26.5-6.9,13-13.1,19.68-15.69,21.5H185.62c-2.59-1.81-8.77-8.47-15.66-21.42-7-13.16-9.95-23.69-10-26.41V296H352v32Z"/><circle cx="256" cy="335.98" r="24"/><rect x="184" y="327.98" width="32" height="32"/><rect x="296" y="327.98" width="32" height="32"/></svg>