<svg id="Printer" xmlns="http://www.w3.org/2000/svg" viewBox="0 0 512 512"><title>Icon Library 30 copy</title><path d="M112,288A112,112,0,1,0,224,400,112,112,0,0,0,112,288Zm0,160a48,48,0,1,1,48-48A48,48,0,0,1,112,448Z"/><path d="M502.63,233.37a32,32,0,0,0-45.26,0L408.77,282,320,104.45,241.69,261.07,167.55,224H112A112,112,0,1,0,0,112,112,112,0,0,0,112,224H32a32,32,0,0,0,0,64H152.45l117.87,58.93L320,247.55,391.23,390,502.63,278.63A32,32,0,0,0,502.63,233.37ZM64,112a48,48,0,1,1,48,48A48,48,0,0,1,64,112Z"/></svg>