<svg id="Enterprise" xmlns="http://www.w3.org/2000/svg" viewBox="0 0 512 512"><title>Icon Library 30 copy</title><polygon points="96 96 96 128 416 127.9 416 96 96 96"/><rect x="64" y="160" width="384" height="32"/><polygon points="512 0 0 0 0 384 258.64 384 262.33 376.03 228.22 352 32 352 32 32 480 32 480 352 475.78 352 441.67 376.03 445.36 384 512 384 512 0"/><polygon points="448 352 421.55 333.37 435.14 304 402.91 301.09 400 268.86 370.63 282.45 352 256 333.37 282.45 304 268.86 301.09 301.09 268.86 304 282.45 333.37 256 352 282.45 370.63 268.86 400 301.09 402.91 304 435.14 333.37 421.55 352 448 370.63 421.55 400 435.14 402.91 402.91 435.14 400 421.55 370.63 448 352"/><polygon points="352 475.78 327.97 441.67 304 452.77 304 512 352 496 400 512 400 452.77 376.03 441.67 352 475.78"/></svg>