<svg id="Communication" xmlns="http://www.w3.org/2000/svg" viewBox="0 0 512 512"><title>Icon Library 30 copy</title><path d="M216,336H320V288H216a56.06,56.06,0,0,1-56-56V104a56.06,56.06,0,0,1,56-56h80a56.06,56.06,0,0,1,56,56v40l48,48V104A104.12,104.12,0,0,0,296,0H216A104.12,104.12,0,0,0,112,104V232A104.12,104.12,0,0,0,216,336Z"/><path d="M216,512h80A104.12,104.12,0,0,0,400,408V280A104.12,104.12,0,0,0,296,176H192v48H296a56.06,56.06,0,0,1,56,56V408a56.06,56.06,0,0,1-56,56H216a56.06,56.06,0,0,1-56-56V368l-48-48v88A104.12,104.12,0,0,0,216,512Z"/></svg>