<svg id="Devices_Accessories" data-name="Devices &amp; Accessories" xmlns="http://www.w3.org/2000/svg" viewBox="0 0 512 512"><title>Icon Library 26 copy</title><path d="M159.44,480l37.87,26.64a32,32,0,0,0,23.09,4.93c22.65-3.82,67-15.72,67-39.57v-8c0-8-24-8-32-16l-32-32V183.82h0a42.26,42.26,0,0,0,32-41v-31l69.94-28a16,16,0,0,0,10.06-14.86V61a32,32,0,0,0-9.37-22.64L299.44,11.73c-7.95-8-18.67-13.78-29.58-11L159.44,31.74V480Z"/><polygon points="304.56 240.5 248.56 320.5 292.56 320.5 264.56 368.5 288.56 368.5 344.56 288.5 312.56 288.5 352.56 240.5 304.56 240.5"/></svg>