<svg id="Devices_Accessories" data-name="Devices &amp; Accessories" xmlns="http://www.w3.org/2000/svg" viewBox="0 0 512 512"><title>Icon Library 26 copy</title><path d="M511.55,304.3c-3.82-22.65-15.72-67-39.57-67h-8c-8,0-8,24-16,32l-32,32H183.82a42.26,42.26,0,0,0-41-32h-31l-28-69.94a16,16,0,0,0-14.86-10.06H61a32,32,0,0,0-22.64,9.37L11.73,225.26c-8,7.95-13.78,18.67-11,29.58L31.74,365.26H480l26.64-37.87A32,32,0,0,0,511.55,304.3Z"/><polygon points="263.99 274.74 287.99 274.74 343.99 194.74 311.99 194.74 351.99 146.74 303.99 146.74 247.99 226.74 291.99 226.74 263.99 274.74"/></svg>