<svg id="Devices_Accessories" data-name="Devices &amp; Accessories" xmlns="http://www.w3.org/2000/svg" viewBox="0 0 512 512"><title>Icon Library 26 copy</title><circle cx="344.35" cy="149.33" r="18.67"/><circle cx="425.24" cy="149.33" r="18.67"/><path d="M446.93,84.76l-15.46-3.87V37.34A12.45,12.45,0,0,0,419,24.89H374.55a18.67,18.67,0,0,0-16.69,10.32L319.47,112V0L307,6.22V149.33H263.47l-6.23,6.22h62.23v-6.22a24.89,24.89,0,1,1,49.78,0h31.11a24.89,24.89,0,1,1,49.78,0,6.22,6.22,0,0,0,6.23-6.22V96.83A12.45,12.45,0,0,0,446.93,84.76Zm-21.69,8.58H412.8V56h-6.23a6.22,6.22,0,0,0-6.22,6.22V80.89H375.47a6.22,6.22,0,0,0-6.23,6.22v6.22h0a12.44,12.44,0,0,0-12.44,12.44h-28L362.69,38a12.44,12.44,0,0,1,11.13-6.88H419a6.22,6.22,0,0,1,6.23,6.22v56Z"/><path d="M195.64,11.73C187.7,3.78,177-2,166.07.68L55.65,31.74V480l37.87,26.64a32,32,0,0,0,23.09,4.93c22.65-3.82,67-15.72,67-39.57v-8c0-8-24-8-32-16l-32-32V183.82a42.26,42.26,0,0,0,32-41v-31l69.94-28a16,16,0,0,0,10.06-14.86V61a32,32,0,0,0-9.37-22.64Z"/><polygon points="200.77 235.59 144.77 315.58 188.77 315.58 160.77 363.58 184.77 363.58 240.77 283.58 208.77 283.58 248.77 235.59 200.77 235.59"/></svg>