<svg id="Hardware" xmlns="http://www.w3.org/2000/svg" viewBox="0 0 512 512"><title>Icon Library 30 copy</title><path d="M32,96H352v64.34a55,55,0,0,1,6-.34h26V93.55A29.55,29.55,0,0,0,354.45,64H29.55A29.55,29.55,0,0,0,0,93.55v260.9A29.55,29.55,0,0,0,29.55,384H167.92v32h-80v32H296.08V416H215.92V384H320V320H32V96Z"/><path d="M490,192H374c-12.1,0-22,9.6-22,21.33V426.67c0,11.73,9.9,21.33,22,21.33H490c12.1,0,22-9.6,22-21.33V213.33C512,201.6,502.1,192,490,192ZM480,400H384V224h96V400Z"/><path d="M268,136H204a52.06,52.06,0,0,0-52,52v52h24V188a28,28,0,0,1,28-28h64a28,28,0,0,1,28,28v40a28,28,0,0,1-28,28H248l-24,24h44a52.06,52.06,0,0,0,52-52V188A52.06,52.06,0,0,0,268,136Z"/><path d="M116,160h20l24-24H116a52.06,52.06,0,0,0-52,52v40a52.06,52.06,0,0,0,52,52h64a52.06,52.06,0,0,0,52-52V176H208v52a28,28,0,0,1-28,28H116a28,28,0,0,1-28-28V188A28,28,0,0,1,116,160Z"/></svg>