<svg id="Enterprise" xmlns="http://www.w3.org/2000/svg" viewBox="0 0 512 512"><defs><style>.cls-1{fill-rule:evenodd;}</style></defs><title>Icon Library 30 copy</title><path class="cls-1" d="M363.58,510.78c-8.21-2.37-16.55-12.16-18.3-21.5-1.14-6.08.25-10.29,9-27.15,35.2-68.1,50.5-130.77,50.5-206.83,0-73.52-13.55-130.71-47.2-199.27-7.22-14.71-13.13-28.38-13.13-30.35,0-7.29,6.1-17.87,12.71-22C366.19-2,381.38-1,388.65,5.87c2.79,2.62,10.05,14.54,16.13,26.48A503.12,503.12,0,0,1,453.5,185.49c5,33.41,6,96.73,2,127.32-7.43,56.42-22.32,106.78-46.17,156.1-14.41,29.82-23.46,42.08-31,42.08a22.67,22.67,0,0,0-5.49.85c-1.51.45-5.67,0-9.25-1h0Zm-98-51.26c-12.61-3.67-21.69-19.12-18.05-30.72,0.88-2.8,6.82-15.72,13.19-28.71,27-55,38.18-113.93,32.69-171.82-4.52-47.55-13-77.54-34.51-121.42-14.4-29.44-15.07-34-6.7-45.85,8-11.27,27.84-13.1,38.28-3.52,7.24,6.64,29.74,53.64,38.43,80.26,28.75,88.09,24.36,182.66-12.48,269.19-18.88,44.33-32.12,58-50.84,52.59h0Zm-101-52a30.52,30.52,0,0,1-16.31-20c-1.12-5.06.8-10.65,10-29.37,33.94-68.73,34.31-134.94,1.12-202.07-14.57-29.49-14.89-35.36-2.57-47,6.08-5.74,8.67-6.75,17.21-6.75,14.33,0,21.76,7.2,34.56,33.5,19.7,40.45,27.76,75.55,27.69,120.52-0.07,46.22-7.61,77.94-28.65,120.61-12,24.43-18,30.87-30.07,32.53a28.16,28.16,0,0,1-13-1.94h0ZM70.26,359.1C64.09,356.56,57,348.16,55,340.86c-2.34-8.15-.43-14.62,8.84-29.85,11.91-19.6,14.68-30.1,14.68-55.7s-2.77-36.11-14.68-55.7c-4-6.64-8.09-14.6-9-17.68C50.94,169,61.7,153.19,76.15,150.48c12.25-2.3,20.66,3.17,31.92,20.75,32.61,50.9,32.61,118.89,0,169.35-11.5,17.81-24.33,24.1-37.79,18.53h0Z"/></svg>