<svg id="Devices_Accessories" data-name="Devices &amp; Accessories" xmlns="http://www.w3.org/2000/svg" viewBox="0 0 512 512"><title>Icon Library 26 copy</title><path d="M507.58,177.24l-9.89-4.4a8,8,0,0,0-3.58-.84h-9.05a8,8,0,0,0-7.22,4.56C470,193.09,448,252,448,252l-44.51,8a8,8,0,0,0-5.87,2.56L392,276l-248-8c-8,0-12.11-9-16-16H112L61.24,213.93a8,8,0,0,0-10.47.05c-7.91,6.92-34.32,25.92-46.68,44.29A24,24,0,0,0,8.48,290c22.2,18.83,68.35,50,79.52,50H448c28.25,0,57.59-124.72,63.82-153.93A8,8,0,0,0,507.58,177.24Z"/></svg>