<svg id="Enterprise" xmlns="http://www.w3.org/2000/svg" viewBox="0 0 512 512"><title>Icon Library 30 copy</title><path d="M480,232H362.26A64.08,64.08,0,0,1,382,264h98v96H184V344H152v96a32.09,32.09,0,0,0,32,32H480a32.09,32.09,0,0,0,32-32V264A32.09,32.09,0,0,0,480,232Zm0,208H184V424H480v16Z"/><path d="M320,328a48,48,0,0,0,0-96H192l22.74-45.47L256,216h80s-30.75-37.58-67-78l3-2,96,80h96S320,40,288,40,0,104,0,104V296s64,32,96,32H320Zm0-80a32,32,0,0,1,0,64c-17.67,0-16-14.33-16-32S302.33,248,320,248Z"/></svg>