<svg id="Printer" xmlns="http://www.w3.org/2000/svg" viewBox="0 0 512 512"><title>Icon Library 30 copy</title><path d="M368,112h48v48a16,16,0,0,0,16,16h0a16,16,0,0,0,16-16V112h48a16,16,0,0,0,0-32H448V32a16,16,0,0,0-16-16h0a16,16,0,0,0-16,16V80H368A16,16,0,0,0,368,112Z"/><path d="M144,464H16a16,16,0,0,0,0,32H144A16,16,0,0,0,144,464Z"/><path d="M0,256v96a32,32,0,0,0,32,32h96a32,32,0,0,0,32-32V256a32,32,0,0,0-32-32H32A32,32,0,0,0,0,256Zm128,96H32V256h96v96Z"/><path d="M352,256v96a32,32,0,0,0,32,32h96a32,32,0,0,0,32-32V256a32,32,0,0,0-32-32H384A32,32,0,0,0,352,256Z"/><path d="M176,256v96a32,32,0,0,0,32,32h96a32,32,0,0,0,32-32V256a32,32,0,0,0-32-32H208A32,32,0,0,0,176,256Zm32,96h0V256h96Z"/></svg>