<svg id="Enterprise" xmlns="http://www.w3.org/2000/svg" viewBox="0 0 512 512"><title>Icon Library 28 copy</title><path d="M162.67,240V80h26.67V240H162.67Zm160-160V240h26.67V80H322.67Zm-13.33,0H296V208h13.33V80ZM256,0h0A160,160,0,0,0,96,160h0A160.05,160.05,0,0,0,200,309.9V292.72a143.78,143.78,0,1,1,112.59-.21,40.4,40.4,0,0,1,10.6,12.75A160,160,0,0,0,416,160h0A160,160,0,0,0,256,0Zm0,80H229.33v89.64A36.05,36.05,0,0,1,240,168a37.18,37.18,0,0,1,16,3.76V80Zm26.67,128V80H269.33V181.76C275.84,189,280,198.27,280,208h2.71ZM216,176.7V80H202.67V194.34A43.17,43.17,0,0,1,216,176.7ZM384,348c-14.48-1.6-24,9.84-24,24V348.63c0-12.32-9-23.13-21.27-24.48A24,24,0,0,0,312,348V324.63c0-12.32-9-23.13-21.27-24.48A24,24,0,0,0,264,324V208c0-12-12-24-24-24s-24,12-24,24V384s-56-69.79-80.39-29.44c-7,11.61-3.4,28.8,9.42,41.44,34.42,34,62.52,86.61,88.62,116H374.18c18.3-15.89,33.78-43.29,33.78-92.29V373.56C408,361.23,396.2,349.35,384,348Z"/></svg>