<svg id="Printer" xmlns="http://www.w3.org/2000/svg" viewBox="0 0 512 512"><defs><style>.cls-1{fill:none;}</style></defs><title>Icon Library 30 copy</title><circle class="cls-1" cx="256" cy="256" r="256"/><path d="M9.37,225.34a32,32,0,0,1,45.25,0L66.48,237.2a189.24,189.24,0,0,1,54.83-115.93C195.58,47,316.42,47,390.69,121.27s74.27,195.11,0,269.38A189.14,189.14,0,0,1,256,446.43H256a30.48,30.48,0,0,1,0-61h0a129.46,129.46,0,1,0-127.87-151l9.21-9.21a32,32,0,0,1,45.25,45.25L96,357.22,9.37,270.59A32,32,0,0,1,9.37,225.34Z"/></svg>