<svg id="Communication" xmlns="http://www.w3.org/2000/svg" viewBox="0 0 512 512"><title>Icon Library 30 copy</title><path d="M59.94,232.55V0H131.5a111.92,111.92,0,0,1,43,8.07,96.91,96.91,0,0,1,33.54,22.68,103.71,103.71,0,0,1,21.8,35.06q7.82,20.45,7.83,45.36v10.54q0,24.92-7.75,45.28a101.59,101.59,0,0,1-21.88,35,97.38,97.38,0,0,1-33.78,22.6q-19.65,8-43.28,8H59.94ZM107.86,38.81V194.06H131q28.43,0,43.28-18.77t14.85-53.59V110.85q0-35.46-14.69-53.75t-43-18.29H107.86Z"/><path d="M452.06,232.55H406.61V132.89H318v99.67H272.53V0H318V94.24h88.63V0h45.45V232.55Z"/><path d="M237.41,431.34a100.5,100.5,0,0,1-7.48,32.58,75.72,75.72,0,0,1-17.34,25.48A78.37,78.37,0,0,1,185.76,506q-15.78,6-36,6-20.93,0-37.6-7.75A77.39,77.39,0,0,1,83.94,482q-11.59-14.53-17.79-35.22t-6.2-46.4V385q0-25.71,6.43-46.48t18.17-35.3A79.4,79.4,0,0,1,113,280.88q16.74-7.82,37.38-7.83,20.33,0,36,6.15a76.58,76.58,0,0,1,26.54,17.09,78,78,0,0,1,17,26,115.05,115.05,0,0,1,7.77,32.82H192.86a77.08,77.08,0,0,0-3.36-18.37,36.6,36.6,0,0,0-7.55-13.42,31,31,0,0,0-12.71-8.23,56,56,0,0,0-18.84-2.79q-22.73,0-33.86,17.65t-11.14,54.7v15.65A178.76,178.76,0,0,0,107.86,432q2.47,13.58,7.77,22.68a35.16,35.16,0,0,0,13.75,13.66q8.45,4.55,20.41,4.55a58.36,58.36,0,0,0,18.31-2.56A32,32,0,0,0,181,462.57a35.17,35.17,0,0,0,8-13,67.8,67.8,0,0,0,3.59-18.21h44.85Z"/><path d="M321.88,426.87v81.94H274V276.25h90.72q20.6,0,36.82,5.75A79.49,79.49,0,0,1,429,298.05a68.58,68.58,0,0,1,17.17,24.44,78.93,78.93,0,0,1,5.91,30.75,75.7,75.7,0,0,1-5.91,30.51A63.07,63.07,0,0,1,429,406.9a79,79,0,0,1-27.47,14.77q-16.21,5.19-36.82,5.19h-42.8Zm0-38.81h42.8a54.39,54.39,0,0,0,17.65-2.56,32.27,32.27,0,0,0,12.14-7.11,27.73,27.73,0,0,0,6.95-10.94,41.79,41.79,0,0,0,2.24-13.9,46.92,46.92,0,0,0-2.24-14.46,34.35,34.35,0,0,0-6.95-12.3,33.55,33.55,0,0,0-12.14-8.55,44.5,44.5,0,0,0-17.65-3.19h-42.8v73Z"/></svg>