<svg id="Enterprise" xmlns="http://www.w3.org/2000/svg" viewBox="0 0 512 512"><title>Icon Library 30 copy</title><polygon points="408 104 256 24 104 104 256 180 408 104"/><polygon points="216 248 96 188 96 328 216 392 216 248"/><polygon points="296 392 416 328 416 188 296 248 296 392"/><path d="M512,104.29a16,16,0,0,0-13-16L436.68,67.49a16,16,0,1,0-10.13,30.35l27.58,9.2L256,206.11,57.89,107.05l27.58-9.2A16,16,0,1,0,75.33,67.49L10.94,89A16,16,0,0,0,.83,109.23l21.49,64.39a16,16,0,1,0,30.35-10.13l-9.32-27.92L240,233.89V433.37l-20.69-20.69a16,16,0,0,0-22.63,22.63l48,48a16,16,0,0,0,22.63,0l48-48a16,16,0,0,0-22.63-22.63L272,433.37V233.89l196.65-98.32-9.32,27.92a16,16,0,0,0,30.35,10.13l21.49-64.39a16,16,0,0,0,.82-4.65s0,0,0-.06S512,104.36,512,104.29Z"/></svg>