<svg id="Devices_Accessories" data-name="Devices &amp; Accessories" xmlns="http://www.w3.org/2000/svg" viewBox="0 0 512 512"><title>Icon Library 30 copy</title><polygon points="284.44 184.23 284.44 191.92 288.28 188.07 284.44 184.23"/><polygon points="284.44 207.77 288.28 203.93 284.44 200.08 284.44 207.77"/><path d="M325.94,229.44c1.87-4.55,2.41-17.68,1.34-37.23s-5.36-38-10.71-45S260.39,136.18,256,136c-2.35,39.12-.54,119.92,0,128C296,256,324.07,234,325.94,229.44ZM293.1,204l-12,12V200.12l-6.63,6.63L272,204.34l8.31-8.34L272,187.66l2.41-2.41,6.63,6.63V176l12,12-8,8Z"/><circle cx="152.01" cy="56" r="24"/><path d="M304,351c-39.64-18.48-66.18-46.83-63.47-166.05,0.79-35.08,1.61-63.47,3.48-91.6S252.22,63.83,258.9,61c7.19-3.05,45.29-4.46,61.1-5s56-.11,64.06,3.64C387,61,392,64,392,64q0-24-24-48c-8-8-44.39-10-71-12.57S231.06,0,192,0c-88.39,0-88,48-88,72,0,227.41,4,396,32,424,16,16,40.06,16,54.68,16,28.12,0,95.61-1.34,124.81-3.48S376,504,384,496s12.52-32.43,16-56c3.33-22.53,7.6-45.84,8-54.84C385,379.68,337.11,366.48,304,351ZM156,96a36,36,0,1,1,36-36A36,36,0,0,1,156,96ZM264,472a40,40,0,1,1,40-40A40,40,0,0,1,264,472Z"/><circle cx="264.01" cy="432" r="32"/><path d="M336,72.3c-21.16-.54-70.59-0.27-76.86,7.7-4.86,6.18-3.13,48-3.13,48s56,0,68,12,13,73,12,84c-3.25,36.45-80,48-80,48s8.87,37.79,44.76,60C312.53,339.3,400,368,400,368a270.54,270.54,0,0,0,4.4-41.07C405,305.24,404.8,262.3,404,224s-4.4-72.76-5.74-85.08S392,88,380,76C376,72,357.16,72.83,336,72.3ZM368,272H352a8,8,0,0,1,0-16h16A8,8,0,1,1,368,272Zm0-48H352a8,8,0,0,1,0-16h16A8,8,0,0,1,368,224Zm0-48H352a8,8,0,0,1,0-16h16A8,8,0,0,1,368,176Zm0-48H352a8,8,0,0,1,0-16h16A8,8,0,0,1,368,128Z"/></svg>