<svg id="Enterprise" xmlns="http://www.w3.org/2000/svg" viewBox="0 0 512 512"><title>Icon Library 28 copy</title><path d="M128,288V224a95.63,95.63,0,0,1,25.54-65.13A24.11,24.11,0,0,0,160,142.5h0c0-21.71-26.65-32.37-41.43-16.47A143.44,143.44,0,0,0,80,224v64a143.44,143.44,0,0,0,38.57,98C133.35,401.86,160,391.2,160,369.5h0a24.1,24.1,0,0,0-6.46-16.36A95.63,95.63,0,0,1,128,288Z"/><path d="M432,288V224a143.44,143.44,0,0,0-38.57-98C378.65,110.14,352,120.8,352,142.5h0a24.1,24.1,0,0,0,6.46,16.36A95.63,95.63,0,0,1,384,224v64a95.63,95.63,0,0,1-25.54,65.13A24.1,24.1,0,0,0,352,369.5h0c0,21.7,26.65,32.37,41.43,16.47A143.44,143.44,0,0,0,432,288Z"/><path d="M352,224a64,64,0,0,0-64-64H224a64,64,0,0,0-64,64v64a64,64,0,0,0,64,64h64a64,64,0,0,0,64-64V224Zm-48,64a16,16,0,0,1-16,16H224a16,16,0,0,1-16-16V224a16,16,0,0,1,16-16h64a16,16,0,0,1,16,16v64Z"/><path d="M118.52,428.79A175.83,175.83,0,0,1,48,288V224A175.83,175.83,0,0,1,118.52,83.21,23.87,23.87,0,0,0,128,64.11h0C128,44.33,105.39,33,89.59,44.93A223.78,223.78,0,0,0,0,224v64A223.78,223.78,0,0,0,89.59,467.07c15.81,11.89,38.41.6,38.41-19.18h0A23.87,23.87,0,0,0,118.52,428.79Z"/><path d="M422.41,44.93C406.61,33,384,44.33,384,64.11h0a23.87,23.87,0,0,0,9.48,19.1A175.83,175.83,0,0,1,464,224v64a175.83,175.83,0,0,1-70.52,140.79,23.87,23.87,0,0,0-9.48,19.1h0c0,19.78,22.6,31.08,38.41,19.18A223.78,223.78,0,0,0,512,288V224A223.78,223.78,0,0,0,422.41,44.93Z"/></svg>