<svg id="Enterprise" xmlns="http://www.w3.org/2000/svg" viewBox="0 0 512 512"><title>Icon Library 28 copy</title><path d="M448,168.2v32H367.74l25-92.6L446.82,122a8,8,0,0,0,9.79-5.68l16.56-61.82a8,8,0,0,0-5.65-9.81L413.44,30.22l2.07-7.73a8,8,0,0,0-5.66-9.8L363.5,0.27a8,8,0,0,0-9.8,5.66l-2.07,7.73L336.18,9.52,266.1,23.86,253.68,70.21,330.93,91,302.73,200.2h-94.3l-22.64-84.5A68.07,68.07,0,0,0,146,0L160.14,52.7a17,17,0,0,1-12,20.81L131.71,77.9a17,17,0,0,1-20.82-12L96.78,13.2a68.1,68.1,0,0,0,23.35,120.09l17.24,66.91H64v-32h-64V480a32.09,32.09,0,0,0,32,32H479.95a32.09,32.09,0,0,0,32-32V168.2H448Zm-153.49,64L280,288.05H232l-15-55.86h77.46ZM64,288.05V232.19H145.6L160,288.05H64ZM316,399.78a60.6,60.6,0,0,1-.47,7.55l17.25,19.47-15,26-25.48-5.18a60.13,60.13,0,0,1-13.07,7.62L271,480H241l-8.22-24.78a60.38,60.38,0,0,1-13.07-7.68l-25.48,5.21-15-26,17.25-19.45a60.64,60.64,0,0,1,0-15.1L179.24,372.8l15-26,25.48,5.24a59.67,59.67,0,0,1,13.07-7.5L241,320h30l8.22,24.53A59.45,59.45,0,0,1,292.29,352l25.48-5.21,15,26-17.25,19.45A60.59,60.59,0,0,1,316,399.78Zm28-111.73,15.08-55.86H448v55.86H344ZM288,400a32,32,0,1,1-32-32A32,32,0,0,1,288,400Z"/></svg>