<svg id="Enterprise" xmlns="http://www.w3.org/2000/svg" viewBox="0 0 512 512"><title>Icon Library 30 copy</title><path d="M480,64H384V32A32,32,0,0,0,352,0H160a32,32,0,0,0-32,32V64H32A32,32,0,0,0,0,96V480a32,32,0,0,0,32,32H480a32,32,0,0,0,32-32V96A32,32,0,0,0,480,64ZM144,32a16,16,0,0,1,16-16H352a16,16,0,0,1,16,16V96H144V32ZM480,480H32V96h96v16H384V96h96V480Z"/><circle cx="176" cy="48" r="16"/><circle cx="336" cy="48" r="16"/><path d="M304,348.22l-96-192L166.11,240H80a16,16,0,0,0,0,32H185.89L208,227.78l96,192L361.89,304h26.4a32,32,0,1,0,0-32H342.11Z"/></svg>