<svg id="Enterprise" xmlns="http://www.w3.org/2000/svg" viewBox="0 0 512 512"><title>Icon Library 28 copy</title><path d="M364.82,227.92a16.27,16.27,0,0,1,0-23.13,16.59,16.59,0,0,1,23.32,0L464,280l-75.85,75.21A16.45,16.45,0,0,1,376.49,360h0a16.45,16.45,0,0,1-11.66-4.79,16.27,16.27,0,0,1,0-23.13L417.35,280ZM135.52,360a16.45,16.45,0,0,0,11.66-4.79,16.27,16.27,0,0,0,0-23.13L94.65,280l52.53-52.08a16.27,16.27,0,0,0,0-23.13A16.45,16.45,0,0,0,135.52,200h0a16.45,16.45,0,0,0-11.66,4.79L48,280l75.85,75.21A16.45,16.45,0,0,0,135.52,360ZM202.18,357L333,226.18a16.35,16.35,0,1,0-23.12-23.13L179.05,333.83A16.35,16.35,0,1,0,202.18,357ZM512,32V480a32,32,0,0,1-32,32H32A32,32,0,0,1,0,480V32A32,32,0,0,1,32,0H480A32,32,0,0,1,512,32ZM160,40a24,24,0,1,0,24-24A24,24,0,0,0,160,40ZM96,40a24,24,0,1,0,24-24A24,24,0,0,0,96,40ZM32,40A24,24,0,1,0,56,16,24,24,0,0,0,32,40ZM480,80H32V480H480V80Z"/></svg>