<svg id="Enterprise" xmlns="http://www.w3.org/2000/svg" viewBox="0 0 512 512"><title>Icon Library 28 copy</title><path d="M345.29,403.33a91,91,0,0,0,0-22.66l25.88-29.19-22.5-39-38.23,7.82A89.87,89.87,0,0,0,290.83,309L278.5,272h-45l-12.33,37a89.88,89.88,0,0,0-19.61,11.35l-38.23-7.82-22.5,39,25.88,29.19a91,91,0,0,0,0,22.66l-25.88,29.19,22.5,39,38.23-7.82A89.9,89.9,0,0,0,221.17,475l12.33,37h45l12.33-37a89.88,89.88,0,0,0,19.61-11.35l38.23,7.82,22.5-39ZM256,437a45,45,0,1,1,45-45A45,45,0,0,1,256,437ZM384,32H264V0H384V32ZM248,32H128V0H248V32Zm264,0H400V0H512V32Zm0,16H112V0H0V288a32.09,32.09,0,0,0,32,32H140.53l14.71-25.47L198,303.28a106.12,106.12,0,0,1,10.18-5.89L211.3,288H128V240H384v48H300.7l3.13,9.39A106,106,0,0,1,314,303.28l42.75-8.75L371.47,320H480a32.09,32.09,0,0,0,32-32V48ZM272,80h48v48H272V80Zm-80,0h48v48H192V80ZM32,80H80v48H32V80Zm88,128H72V160h48v48Zm-8-80V80h48v48H112Zm88,80H152V160h48v48Zm80,0H232V160h48v48Zm80,0H312V160h48v48Zm-8-80V80h48v48H352Zm88,80H392V160h48v48Zm40-80H432V80h48v48Z"/></svg>