<svg id="Enterprise" xmlns="http://www.w3.org/2000/svg" viewBox="0 0 512 512"><title>Icon Library 30 copy</title><path d="M480,208H464C464,93.31,370.69,0,256,0S48,93.31,48,208H32A32,32,0,0,0,0,240v96a32,32,0,0,0,32,32H96V209.55C96,121.11,167.11,48.25,255.55,48S416,119.63,416,208V368h64a32,32,0,0,0,32-32V240A32,32,0,0,0,480,208Z"/><path d="M256,480A112,112,0,0,1,144,368H112a144,144,0,0,0,288,0H368A112,112,0,0,1,256,480Z"/><path d="M256,448h0a80,80,0,0,0,80-80V240a80,80,0,0,0-80-80h0a80,80,0,0,0-80,80V368A80,80,0,0,0,256,448Zm32-48a16,16,0,0,1-16,16H240a16,16,0,0,1-16-16h0a16,16,0,0,1,16-16h32a16,16,0,0,1,16,16h0ZM224,208a16,16,0,0,1,16-16h32a16,16,0,0,1,16,16h0a16,16,0,0,1-16,16H240a16,16,0,0,1-16-16h0ZM208,352V304h0V256h0a16,16,0,0,1,16-16h64a16,16,0,0,1,16,16h0a16,16,0,0,1-16,16H240v16h48a16,16,0,0,1,16,16h0a16,16,0,0,1-16,16H240v16h48a16,16,0,0,1,16,16h0a16,16,0,0,1-16,16H224a16,16,0,0,1-16-16h0Z"/></svg>