<svg id="Communication" xmlns="http://www.w3.org/2000/svg" viewBox="0 0 512 512"><title>Icon Library 30 copy</title><path d="M414.39,384.9L437,407.53a256,256,0,0,0,0-362L414.39,68.12A224,224,0,0,1,414.39,384.9Z"/><path d="M391.76,362.27a192,192,0,0,0,0-271.53l-22.63,22.63a160,160,0,0,1,0,226.27Z"/><path d="M97.61,384.9a224,224,0,0,1,0-316.78L75,45.49a256,256,0,0,0,0,362Z"/><path d="M120.24,362.27l22.63-22.63a160,160,0,0,1,0-226.27L120.24,90.75A192,192,0,0,0,120.24,362.27Z"/><polygon points="48 434.51 16 466.51 496 466.51 464 434.51 48 434.51"/><path d="M256,402.51s112-98.46,112-176a112,112,0,0,0-224,0C144,304,256,402.51,256,402.51Zm-48-176a48,48,0,1,1,48,48A48,48,0,0,1,208,226.51Z"/></svg>