<svg id="Enterprise" xmlns="http://www.w3.org/2000/svg" viewBox="0 0 512 512"><title>Icon Library 28 copy</title><circle cx="224" cy="464" r="48"/><circle cx="432" cy="464" r="48"/><path d="M487.76,297.94L448,288V176a32,32,0,0,0-32-32H301.67a48,48,0,0,0-42.93,26.53L160,368V80L128,96V464H16L0,480H160V464a64,64,0,1,1,128,0h80a64,64,0,1,1,128,0h0a16,16,0,0,0,16-16V329A32,32,0,0,0,487.76,297.94ZM432,320H400V224H384a16,16,0,0,0-16,16h0a16,16,0,0,0-16-16H272a8,8,0,0,0,0,16h48v32H286.49a16,16,0,0,0-10.16,3.64L224,328a11.31,11.31,0,0,0,0,16h0a11.31,11.31,0,0,0,16,0l40-40h8v16h0a32,32,0,0,0-32,32H184L271.16,177.7A32,32,0,0,1,299.78,160H416a16,16,0,0,1,16,16V320Z"/><circle cx="344" cy="200" r="24"/></svg>