<svg id="Enterprise" xmlns="http://www.w3.org/2000/svg" viewBox="0 0 512 512"><title>Icon Library 30 copy</title><path d="M472,274.94L369.11,302.51,288,255.68l81.11-46.83L472,236.42a16,16,0,0,0,8.28-30.91l-72-19.28,63.54-36.69a16,16,0,0,0-16-27.71L392.3,158.51l19.29-72a16,16,0,1,0-30.91-8.28L353.11,181.14,272,228V134.3L347.31,59a16,16,0,1,0-22.63-22.63L272,89.05V16a16,16,0,0,0-32,0V89.05L187.31,36.36A16,16,0,0,0,164.69,59L240,134.3V228l-81.11-46.83L131.32,78.25a16,16,0,1,0-30.91,8.28l19.29,72L56.15,121.82a16,16,0,1,0-16,27.71l63.54,36.69-72,19.28A16,16,0,1,0,40,236.42l102.88-27.57L224,255.68l-81.11,46.83L40,274.94a16,16,0,1,0-8.28,30.91l72,19.28L40.15,361.82a16,16,0,1,0,16,27.71l63.54-36.69-19.29,72a16,16,0,1,0,30.91,8.28l27.57-102.88L240,283.39v93.66l-75.31,75.31A16,16,0,1,0,187.31,475L240,422.3V496a16,16,0,0,0,32,0V422.3L324.69,475a16,16,0,0,0,22.63-22.63L272,377.05V283.39l81.11,46.83L380.68,433.1a16,16,0,1,0,30.91-8.28l-19.29-72,63.54,36.69a16,16,0,0,0,16-27.71L408.3,325.14l72-19.28A16,16,0,0,0,472,274.94Z"/></svg>