<svg id="Devices_Accessories" data-name="Devices &amp; Accessories" xmlns="http://www.w3.org/2000/svg" viewBox="0 0 512 512"><title>Icon Library 26 copy</title><path d="M96,184H416a32,32,0,0,0,32-32V56H64v96A32,32,0,0,0,96,184Z"/><path d="M480,56H464v96a48.05,48.05,0,0,1-48,48H96a48.05,48.05,0,0,1-48-48V56H32A32,32,0,0,0,0,88V424a32,32,0,0,0,32,32H480a32,32,0,0,0,32-32V88A32,32,0,0,0,480,56ZM303.38,345.44L342,335.1a6,6,0,0,1,3.11,11.59l-27,7.23,23.83,13.76a6,6,0,1,1-6,10.39l-23.83-13.76,7.23,27a6,6,0,1,1-11.59,3.11l-10.34-38.58L267,338.27v35.12l28.24,28.24a6,6,0,1,1-8.49,8.49L267,390.36V418a6,6,0,1,1-12,0V390.36l-19.76,19.76a6,6,0,0,1-8.49-8.49L255,373.39V338.27l-30.42,17.56-10.34,38.58a6,6,0,1,1-11.59-3.11l7.23-27L186,378.08a6,6,0,1,1-6-10.39l23.83-13.76-27-7.23A6,6,0,1,1,180,335.1l38.58,10.34L249,327.88l-30.42-17.56L180,320.66a6,6,0,1,1-3.11-11.59l27-7.23L180,288.08a6,6,0,1,1,6-10.39l23.83,13.76-7.23-27a6,6,0,1,1,11.59-3.11l10.34,38.58L255,317.49V282.36l-28.24-28.24a6,6,0,0,1,8.49-8.49L255,265.39V238a6,6,0,1,1,12,0v27.39l19.76-19.76a6,6,0,0,1,8.49,8.49L267,282.36v35.12l30.42-17.56,10.34-38.58a6,6,0,0,1,11.59,3.11l-7.23,27,23.83-13.76a6,6,0,0,1,6,10.39l-23.83,13.76,27,7.23A6,6,0,1,1,342,320.66l-38.58-10.34L273,327.88Z"/></svg>