<svg id="Navigation" xmlns="http://www.w3.org/2000/svg" viewBox="0 0 512 512"><title>Icon Library 30 copy</title><rect width="64" height="64"/><rect x="224" width="64" height="64"/><rect x="448" width="64" height="64"/><rect x="112" width="64" height="64"/><rect x="336" width="64" height="64"/><rect y="112" width="64" height="64"/><rect x="224" y="112" width="64" height="64"/><rect x="448" y="112" width="64" height="64"/><rect x="112" y="112" width="64" height="64"/><rect x="336" y="112" width="64" height="64"/><rect y="224" width="64" height="64"/><rect x="224" y="224" width="64" height="64"/><rect x="448" y="224" width="64" height="64"/><rect x="112" y="224" width="64" height="64"/><rect x="336" y="224" width="64" height="64"/><rect y="448" width="64" height="64"/><rect x="224" y="448" width="64" height="64"/><rect x="448" y="448" width="64" height="64"/><rect x="112" y="448" width="64" height="64"/><rect x="336" y="448" width="64" height="64"/><rect y="336" width="64" height="64"/><rect x="224" y="336" width="64" height="64"/><rect x="448" y="336" width="64" height="64"/><rect x="112" y="336" width="64" height="64"/><rect x="336" y="336" width="64" height="64"/></svg>