<svg id="General_actions" data-name="General actions" xmlns="http://www.w3.org/2000/svg" viewBox="0 0 512 512"><title>Icon Library 30 copy</title><path d="M256,304C124,304,80,334.8,80,432H432C432,334.8,388,304,256,304Z"/><circle cx="256" cy="168" r="88"/><path d="M331.78,261a64.05,64.05,0,1,0,44-100.43c0.15,2.47.24,4.95,0.24,7.45A119.82,119.82,0,0,1,331.78,261Z"/><path d="M128,288a63.9,63.9,0,0,0,52.22-27A119.82,119.82,0,0,1,136,168c0-2.5.09-5,.24-7.45A64,64,0,1,0,128,288Z"/><path d="M0,416v16H48c0-31.27,3.6-73.57,30.33-106.26C20.61,333.66,0,359.28,0,416Z"/><path d="M433.67,325.74C460.4,358.43,464,400.73,464,432h48V416C512,359.28,491.39,333.66,433.67,325.74Z"/></svg>