<svg id="Devices_Accessories" data-name="Devices &amp; Accessories" xmlns="http://www.w3.org/2000/svg" viewBox="0 0 512 512"><title>Icon Library 26 copy</title><path d="M260.32,203.15c-8.75-17.49-2.18-32.84,1.75-42,0.67-1.57,1.56-3.65,1.87-4.69v0a2,2,0,0,0-.12-0.42c-8.05.22-23.8,16.22-19.58,48.63,2.25,17.3,11.63,52.09,11.76,63.36a15,15,0,0,0,5.32-1.11c7.61-5.77,10.55-14.14,10.62-19.19A105.25,105.25,0,0,0,260.32,203.15Z"/><path d="M500.42,68.84A16,16,0,0,0,486.11,60H456a8,8,0,0,0-8,8V88L0,60v3.4A16,16,0,0,0,12.25,78.94C60.81,90.59,238.53,133.17,265.8,139.1a18,18,0,0,1,14.14,18.45c-0.43,8.77-13.31,22.45-5.31,38.45a122,122,0,0,1,13.3,51.38C288,260,280,276,264,284c1.33,23.5,6.33,75.89,10.39,108.28C278.67,426.41,296,452,328,452h0c80,0,96-96,96-160a235.33,235.33,0,0,0-27.53-111.12,32,32,0,0,1,24.73-46.8l76.56-8.51A16,16,0,0,0,512,109.68V92Z"/></svg>