<svg id="Hardware" xmlns="http://www.w3.org/2000/svg" viewBox="0 0 512 512"><title>Icon Library 30 copy</title><path d="M97.63,346.49A176,176,0,0,1,346.48,97.63l33.94-33.94A223.25,223.25,0,0,0,224,0C100.28,0,0,100.29,0,224A223.25,223.25,0,0,0,63.69,380.43Z"/><path d="M224,192a31.86,31.86,0,0,1,20.6,7.52l22.67-22.67a64,64,0,0,0-90.42,90.42l22.67-22.67A32,32,0,0,1,224,192Z"/><polygon points="512 0 489.37 0 0 489.37 0 512 22.62 512 512 22.63 512 0"/><path d="M480,99.88V416H163.88l-32,32H208v32H144v32H368V480H304V448H480a32,32,0,0,0,32-32V67.88Z"/></svg>