<svg id="Enterprise" xmlns="http://www.w3.org/2000/svg" viewBox="0 0 512 512"><title>Icon Library 28 copy</title><path d="M480,112H448a16,16,0,0,0-16-16H416a16,16,0,0,0-16,16H352V64a48,48,0,0,0-48-48H208a48,48,0,0,0-48,48v48H112A16,16,0,0,0,96,96H80a16,16,0,0,0-16,16H32A32,32,0,0,0,0,144V464a32,32,0,0,0,32,32H480a32,32,0,0,0,32-32V144A32,32,0,0,0,480,112ZM192,64a16,16,0,0,1,16-16h96a16,16,0,0,1,16,16V96H192V64Zm64,368A128,128,0,1,1,384,304,128,128,0,0,1,256,432Z"/><path d="M288,272V224a16,16,0,0,0-16-16H240a16,16,0,0,0-16,16v48H176a16,16,0,0,0-16,16v32a16,16,0,0,0,16,16h48v48a16,16,0,0,0,16,16h32a16,16,0,0,0,16-16V336h48a16,16,0,0,0,16-16V288a16,16,0,0,0-16-16H288Z"/></svg>