<svg id="Navigation" xmlns="http://www.w3.org/2000/svg" viewBox="0 0 512 512"><title>Icon Library 30 copy</title><path d="M256,0C114.61,0,0,114.62,0,256S114.61,512,256,512,512,397.38,512,256,397.39,0,256,0Zm0,464C141.12,464,48,370.88,48,256S141.12,48,256,48s208,93.12,208,208S370.87,464,256,464Z"/><circle cx="256" cy="400" r="32"/><path d="M256,80c-34,0-62.79,14.39-83.2,41.6a123.22,123.22,0,0,0-20.08,40.58,24,24,0,0,0,46.57,11.64,77,77,0,0,1,11.92-23.42c11.3-15.07,26-22.4,44.8-22.4,20.35,0,35.75,5.93,45.76,17.62,8.4,9.8,10.21,20.31,10.21,22.38,0,18.62-9.83,28.27-28.66,45.12C261.67,232.5,232,259,232,312a24,24,0,1,0,48,0c0-31.5,15.59-45.45,35.33-63.11C335.23,231.1,360,208.95,360,168c0-13-5.7-34.86-21.76-53.61C324.79,98.7,299.62,80,256,80Z"/></svg>