<svg id="Navigation" xmlns="http://www.w3.org/2000/svg" viewBox="0 0 512 512"><title>Icon Library 30 copy</title><path d="M256,0C114.61,0,0,114.62,0,256S114.61,512,256,512,512,397.38,512,256,397.38,0,256,0Zm0,432a32,32,0,1,1,32-32A32,32,0,0,1,256,432Zm59.34-183.11C295.6,266.55,280,280.5,280,312a24,24,0,0,1-48,0c0-53,29.67-79.5,51.33-98.88C302.17,196.27,312,186.62,312,168c0-2.08-1.82-12.58-10.21-22.38C291.76,133.93,276.37,128,256,128c-18.84,0-33.5,7.33-44.8,22.4a77,77,0,0,0-11.92,23.42,24,24,0,0,1-46.57-11.64,123.22,123.22,0,0,1,20.08-40.58C193.23,94.39,222,80,256,80c43.6,0,68.77,18.7,82.21,34.39C354.29,133.14,360,155,360,168,360,208.95,335.23,231.1,315.34,248.89Z"/></svg>