<svg id="Enterprise" xmlns="http://www.w3.org/2000/svg" viewBox="0 0 512 512"><title>Icon Library 26 copy</title><circle cx="256" cy="128" r="32"/><path d="M312,304v64l39.7,69.3a17.58,17.58,0,0,0,29.13-19.7Z"/><path d="M96,176c-7.35,0-16,8.66-16,16s8.65,16,16,16H216l0.16,253.76c0,10.07,6.69,18.24,14.94,18.24S246,471.83,246,461.76l10-139.84,10,139.84c0,10.07,6.69,18.24,14.94,18.24h0c8.25,0,14.94-8.17,14.94-18.24L296,208.07,416,208c7.35,0,16-8.66,16-16s-8.65-16-16-16H96Z"/><path d="M135.89,442a17.63,17.63,0,0,0,24.41-4.72L200,368V304L131.17,417.6A17.63,17.63,0,0,0,135.89,442Z"/><path d="M412,132c6.2-3.93,7.93-13.8,4-20s-13.8-7.93-20-4L296,160h56Z"/><path d="M100,132l60,28h56L116,108c-6.2-3.93-16.07-2.2-20,4S93.8,128.07,100,132Z"/><path d="M480,132V64H425.31A255.94,255.94,0,0,0,86.69,64H32v68a256.24,256.24,0,0,0,0,248V512H480V380A256.24,256.24,0,0,0,480,132ZM32,342.3a240.74,240.74,0,0,1,0-172.6V342.3ZM256,16A238.93,238.93,0,0,1,400,64H112A238.93,238.93,0,0,1,256,16ZM48,80H70.11A257.28,257.28,0,0,0,48,106.75V80Zm0,416V405.25A256.71,256.71,0,0,0,166.75,496H48Zm416,0H345.25A256.71,256.71,0,0,0,464,405.25V496Zm0-120.2a240.07,240.07,0,0,1-416,0V136.2A241,241,0,0,1,92.85,80H419.15A241,241,0,0,1,464,136.2V375.8Zm0-269.05A257.28,257.28,0,0,0,441.89,80H464v26.75Zm16,63a240.74,240.74,0,0,1,0,172.6V169.7Z"/></svg>