<svg id="Devices_Accessories" data-name="Devices &amp; Accessories" xmlns="http://www.w3.org/2000/svg" viewBox="0 0 512 512"><title>Icon Library 26 copy</title><path d="M383.91,127.88C383.91,57.37,326.53,0,256,0S128.15,57.37,128.15,127.88v58.79H77.35V512H434.65V186.67H383.91V127.88Zm-199.63,0a71.75,71.75,0,0,1,143.51,0v58.79H184.28V127.88Zm30.05,315.75a28.15,28.15,0,1,1-56.29,0V255.83a28.15,28.15,0,1,1,56.29,0v187.8ZM369.12,465a28.17,28.17,0,0,1-39.58-4.19l-90.8-111.45,90.07-111.93A28.14,28.14,0,1,1,372.37,273l-64.16,74.62,64.89,77.46A28.24,28.24,0,0,1,369.12,465Z"/></svg>