<svg id="Enterprise" xmlns="http://www.w3.org/2000/svg" viewBox="0 0 512 512"><title>Icon Library 30 copy</title><polygon points="320 448 192 464 192 480 320 464 320 464 320 448 320 448 320 448"/><path d="M320,480L196,495.5A32,32,0,0,0,224,512h64a32,32,0,0,0,32-32h0Z"/><path d="M380.45,51.55A176,176,0,0,0,80,176c0,48,16,112,48,144,28.29,28.29,25,64.87,58.09,91.69A16,16,0,0,1,192,424.1V448l128-16h0v-7.9a16,16,0,0,1,5.91-12.41C359,384.87,355.71,348.3,384,320c32-32,48-96,48-144A175.45,175.45,0,0,0,380.45,51.55ZM347.81,261.87L296.43,416H279.57l53.06-159.19A52,52,0,0,0,320,203.31L299.31,224a16,16,0,0,1-22.63,0L256,203.31,235.31,224a16,16,0,0,1-22.63,0L192,203.31a52,52,0,0,0-12.63,53.5L232.43,416H215.57L164.19,261.87A67.91,67.91,0,0,1,180.69,192a16,16,0,0,1,22.63,0L224,212.69,244.69,192a16,16,0,0,1,22.63,0L288,212.69,308.69,192a16,16,0,0,1,22.63,0A67.91,67.91,0,0,1,347.81,261.87Z"/></svg>