<svg id="Project_based" data-name="Project based" xmlns="http://www.w3.org/2000/svg" viewBox="0 0 512 512"><title>Icon Library 30 copy</title><path d="M256,0C141.13,0,48,93.12,48,208c0,144,208,304,208,304S464,352,464,208C464,93.12,370.87,0,256,0ZM380,252a27.94,27.94,0,0,1-21.65-10.25A16,16,0,0,0,345.89,236a1.91,1.91,0,0,0-1.89,1.91V320H261.91a1.91,1.91,0,0,1-1.91-1.91,16,16,0,0,1,5.75-12.43,28,28,0,1,0-35.69-.15A16.24,16.24,0,0,1,236,317.94a2.06,2.06,0,0,1-2.06,2.06H152V236h1.91a16,16,0,0,1,12.43,5.75,28,28,0,1,0,.15-35.69A16.24,16.24,0,0,1,154.06,212H152V128h81.94a2.06,2.06,0,0,0,2.06-2.06,16.24,16.24,0,0,0-5.94-12.44,28,28,0,1,1,35.69.15A16,16,0,0,0,260,126.09a1.91,1.91,0,0,0,1.91,1.91H344v81.94a2.05,2.05,0,0,0,2,2.06,16.24,16.24,0,0,0,12.48-5.94A28,28,0,1,1,380,252Z"/></svg>