<svg id="General_actions" data-name="General actions" xmlns="http://www.w3.org/2000/svg" viewBox="0 0 512 512"><title>Icon Library 30 copy</title><path d="M96,112c-72,0-96,19-96,72v88a32,32,0,0,0,32,32V488a24,24,0,0,0,48,0L96,304l16,184a24,24,0,0,0,24,24h0a24,24,0,0,0,24-24V304a32,32,0,0,0,32-32V184C192,131,168,112,96,112Z"/><circle cx="96" cy="48" r="48"/><circle cx="384" cy="48" r="48"/><path d="M509.46,355.58L464,240V192c0-53-20-80-80-80s-80,27-80,80v48L258.54,355.58A32,32,0,0,0,288,400h32v88a24,24,0,0,0,48,0l7.65-88h16.7L400,488a24,24,0,0,0,24,24h0a24,24,0,0,0,24-24V400h32A32,32,0,0,0,509.46,355.58Z"/></svg>