<svg id="Enterprise" xmlns="http://www.w3.org/2000/svg" viewBox="0 0 512 512"><title>Icon Library 28 copy</title><path d="M336,0H176a64,64,0,0,0-64,64V448a64,64,0,0,0,64,64H336a64,64,0,0,0,64-64V64A64,64,0,0,0,336,0ZM224,32h64a8,8,0,0,1,0,16H224A8,8,0,0,1,224,32ZM184,480H168a8,8,0,0,1,0-16h16A8,8,0,1,1,184,480Zm80,0H248a8,8,0,0,1,0-16h16A8,8,0,0,1,264,480Zm80,0H328a8,8,0,0,1,0-16h16A8,8,0,0,1,344,480Zm40-32H128V64H384V448ZM177.52,372.54l48.11-48.11a48,48,0,0,1,65.11-56.63L263.52,295a12,12,0,0,0,0,17l8.48,8.48a12,12,0,0,0,17,0l27.23-27.23a48,48,0,0,1-56.63,65.11L241.94,376H320a32,32,0,0,0,32-32V248H336V216a80,80,0,0,0-160,0v32H160v96A32,32,0,0,0,177.52,372.54ZM208,216a48,48,0,0,1,96,0v32H208V216Z"/></svg>