<?xml version="1.0" encoding="utf-8"?>
<!-- Generator: Adobe Illustrator 19.2.0, SVG Export Plug-In . SVG Version: 6.00 Build 0)  -->
<svg version="1.1" id="Layer_1" xmlns="http://www.w3.org/2000/svg" xmlns:xlink="http://www.w3.org/1999/xlink" x="0px" y="0px"
	 viewBox="0 0 512 512" enable-background="new 0 0 512 512" xml:space="preserve">
<path d="M416,239.9c-34.6,0-54.6-23.3-80-52.8C301,146.6,257.5,96,160.1,96c0,0-0.1,0-0.1,0C71.6,96,0,167.6,0,256
	c0,88.4,71.6,160,160,160s160-71.6,160-160c0-16.1-2.4-31.6-6.8-46.3c26.6,30.9,54.4,62.2,102.8,62.2l96,0.1l0-32L416,239.9z
	 M160,320c-35.3,0-64-28.7-64-64c0-35.3,28.7-64,64-64c35.3,0,64,28.7,64,64C224,291.3,195.3,320,160,320z"/>
</svg>
