<svg id="Navigation" xmlns="http://www.w3.org/2000/svg" viewBox="0 0 512 512"><title>Icon Library 30 copy</title><path d="M256,0C114.61,0,0,114.62,0,256S114.61,512,256,512,512,397.38,512,256,397.38,0,256,0ZM128,416a32,32,0,1,1,32-32A32,32,0,0,1,128,416Zm0-128a32,32,0,1,1,32-32A32,32,0,0,1,128,288Zm0-128a32,32,0,1,1,32-32A32,32,0,0,1,128,160ZM256,416a32,32,0,1,1,32-32A32,32,0,0,1,256,416Zm0-128a32,32,0,1,1,32-32A32,32,0,0,1,256,288Zm0-128a32,32,0,1,1,32-32A32,32,0,0,1,256,160ZM384,416a32,32,0,1,1,32-32A32,32,0,0,1,384,416Zm0-128a32,32,0,1,1,32-32A32,32,0,0,1,384,288Zm0-128a32,32,0,1,1,32-32A32,32,0,0,1,384,160Z"/></svg>