<svg id="Enterprise" xmlns="http://www.w3.org/2000/svg" viewBox="0 0 512 512"><title>Icon Library 30 copy</title><path d="M341.83,375.48C381,337.85,400,298.76,400,256s-19-81.84-58.17-119.48a360.73,360.73,0,0,0-28.44-24.42L310.26,114c-13,8.09-26.72,16.62-40.19,25.59A367.56,367.56,0,0,1,305.24,168H206.77c27.49-25.5,63.29-47.79,95-67.55C356.67,66.33,400,39.38,400,0H161.65A16.2,16.2,0,0,0,160,.08S160,0,160,0H112c0,36.33,36.9,62.09,85.7,92.67C211.9,82.11,226.57,72.32,241,63.09l-5.45-3.39c-15.51-9.64-30.42-18.92-43-27.7H319.42c-12.54,8.77-27.46,18.05-43,27.7-35.05,21.8-74.78,46.52-106.29,76.82C131,174.15,112,213.24,112,256s19,81.85,58.17,119.48a360.74,360.74,0,0,0,28.44,24.42l3.13-1.95c13-8.09,26.71-16.63,40.19-25.6A367.61,367.61,0,0,1,206.76,344h98.47c-27.49,25.5-63.29,47.79-95,67.55C155.33,445.67,112,472.62,112,512H350.35a16.19,16.19,0,0,0,1.64-.08s0,0.07,0,.08h48c0-36.33-36.9-62.09-85.7-92.67-14.2,10.55-28.87,20.35-43.29,29.58l5.45,3.39c15.5,9.64,30.42,18.92,43,27.69H192.58c12.54-8.77,27.46-18,43-27.69C270.59,430.5,310.32,405.79,341.83,375.48ZM178.62,312a122.88,122.88,0,0,1-9.23-16H342.61a122.88,122.88,0,0,1-9.23,16H178.62Zm0-112H333.38a122.86,122.86,0,0,1,9.23,16H169.38A122.86,122.86,0,0,1,178.62,200Zm171.73,48c0.43,0,.86,0,1.28-0.06Q352,252,352,256t-0.37,8H160.37q-0.36-4-.37-8t0.37-8h190Z"/></svg>