<svg id="Navigation" xmlns="http://www.w3.org/2000/svg" viewBox="0 0 512 512"><title>Icon Library 30 copy</title><path d="M256,320h0a64.19,64.19,0,0,1-64-64h0a64.19,64.19,0,0,1,64-64h0a64.19,64.19,0,0,1,64,64h0A64.19,64.19,0,0,1,256,320Z"/><path d="M256,512h0a64.19,64.19,0,0,1-64-64h0a64.19,64.19,0,0,1,64-64h0a64.19,64.19,0,0,1,64,64h0A64.19,64.19,0,0,1,256,512Z"/><path d="M256,128h0a64.19,64.19,0,0,1-64-64h0A64.19,64.19,0,0,1,256,0h0a64.19,64.19,0,0,1,64,64h0A64.19,64.19,0,0,1,256,128Z"/></svg>