<svg id="Devices_Accessories" data-name="Devices &amp; Accessories" xmlns="http://www.w3.org/2000/svg" viewBox="0 0 512 512"><title>Icon Library 30 copy</title><path d="M48,288H208a16,16,0,0,0,16-16V248h8a8,8,0,0,0,8-8V208a8,8,0,0,0-8-8h-8V176a16,16,0,0,0-16-16H48a16,16,0,0,0-16,16v96A16,16,0,0,0,48,288Zm8-104H200s0,80,0,80H56V184Z"/><path d="M304,288H464a16,16,0,0,0,16-16V248h8a8,8,0,0,0,8-8V208a8,8,0,0,0-8-8h-8V176a16,16,0,0,0-16-16H304a16,16,0,0,0-16,16v96A16,16,0,0,0,304,288Zm8-104H456s0,80,0,80H312V184Z"/><path d="M504,264h-8v8a32,32,0,0,1-32,32H304a32,32,0,0,1-32-32v-8H240v8a32,32,0,0,1-32,32H48a32,32,0,0,1-32-32v-8H8a8,8,0,0,0-8,8v64a16,16,0,0,0,16,16H496a16,16,0,0,0,16-16V272A8,8,0,0,0,504,264Z"/><path d="M184,200H72v48H184V200Zm-42.46,19.08-17.23,24.61h-7.38l8.62-14.77H112l17.23-24.62H144l-12.31,14.77h9.85Z"/><path d="M440,200H328v48H440V200Zm-42.46,19.08-17.23,24.61h-7.38l8.62-14.77H368l17.23-24.62H400l-12.31,14.77h9.85Z"/></svg>