<svg id="Devices_Accessories" data-name="Devices &amp; Accessories" xmlns="http://www.w3.org/2000/svg" viewBox="0 0 512 512"><title>Icon Library 30 copy</title><path d="M72.42,380.63c17.22,3.35,44.88,5.05,55.56,5.05h0c10.68,0,38.35-1.7,55.56-5.05,18-3.5,30.39-15.31,35.37-25.26C224,345.26,224,329,224,320V122.94c0-9-.29-18.55-5.05-30.32-4.14-10.25-17.41-23-35.37-26.53-17.22-3.35-44.88-3.79-55.56-3.79h0c-10.68,0-38.35.43-55.56,3.79C54.46,69.6,42,82.68,37.05,92.63,32,102.73,32,113.91,32,122.94V320c0,9,0,25.26,5.05,35.37C42,365.32,54.46,377.13,72.42,380.63ZM42.11,122.94c0-8.36,0-17.82,4-25.8C49.3,90.72,58.87,79,74.35,76,88,73.36,111,72.42,128,72.42s40,0.95,53.66,3.6c15.57,3,25.4,14.12,27.93,20.4,4,9.87,4.32,17.85,4.32,26.53V320c0,7.43,0,22.88-4,30.85S195.68,368,181.65,370.71c-16.39,3.19-43.63,4.87-53.63,4.87h0c-10,0-37.25-1.67-53.65-4.87-14-2.73-24.3-11.95-28.26-19.86s-4-23.42-4-30.85V122.94Z"/><path d="M76.29,360.79c15.54,3,42.31,4.68,51.71,4.68h0c9.4,0,36.16-1.65,51.7-4.68,12.2-2.38,19.18-10.5,21.16-14.46,2.92-5.84,2.92-21.26,2.92-26.33V122.94c0-7.87-.26-14.54-3.58-22.74-1.2-3-8.3-11.89-20.5-14.26-12.93-2.52-35.2-3.42-51.73-3.42-15.76,0-38.76.89-51.7,3.42-11.65,2.27-18.93,11.28-21.16,15.73-2.92,5.84-2.92,13.69-2.92,21.28V320c0,5.07,0,20.49,2.92,26.33C57.11,350.29,64.08,358.41,76.29,360.79Zm21.4-20.58a5.05,5.05,0,0,1-5.05,5.05H82.53a5.05,5.05,0,0,1-5.05-5.05v-5.05a5.05,5.05,0,0,1,5.05-5.05H92.63a5.05,5.05,0,0,1,5.05,5.05v5.05Zm40.42,0a5.05,5.05,0,0,1-5.05,5.05H122.95a5.05,5.05,0,0,1-5.05-5.05v-5.05a5.05,5.05,0,0,1,5.05-5.05h10.11a5.05,5.05,0,0,1,5.05,5.05v5.05Zm40.42,0a5.05,5.05,0,0,1-5.05,5.05H163.37a5.05,5.05,0,0,1-5.05-5.05v-5.05a5.05,5.05,0,0,1,5.05-5.05h10.11a5.05,5.05,0,0,1,5.05,5.05v5.05ZM193.68,123V320H62.32V123H193.68Z"/><path d="M504,345.68h-9.6a59.37,59.37,0,0,1-5.14,16.84c-6.62,13.24-22.35,29.08-46.62,33.81-19.16,3.73-48.09,5.35-58.62,5.35h0c-10.55,0-39.48-1.61-58.64-5.35-24.27-4.73-40-20.57-46.62-33.81a59.37,59.37,0,0,1-5.14-16.84H238.4a59.37,59.37,0,0,1-5.14,16.84c-6.62,13.24-22.35,29.08-46.62,33.81-19.16,3.73-48.09,5.35-58.62,5.35h0c-10.55,0-39.48-1.61-58.64-5.35-24.27-4.73-40-20.57-46.62-33.81a59.37,59.37,0,0,1-5.14-16.84H8a8,8,0,0,0-8,8v80a16,16,0,0,0,16,16H496a16,16,0,0,0,16-16v-80A8,8,0,0,0,504,345.68Z"/><path d="M328.42,380.63c17.22,3.35,44.88,5.05,55.56,5.05h0c10.68,0,38.35-1.7,55.56-5.05,18-3.5,30.39-15.31,35.37-25.26C480,345.26,480,329,480,320V122.94c0-9-.29-18.55-5.05-30.32-4.14-10.25-17.41-23-35.37-26.53-17.22-3.35-44.88-3.79-55.56-3.79h0c-10.68,0-38.35.43-55.56,3.79-18,3.5-30.39,16.57-35.37,26.53C288,102.73,288,113.91,288,122.94V320c0,9,0,25.26,5.05,35.37C298,365.32,310.46,377.13,328.42,380.63ZM298.11,122.94c0-8.36,0-17.82,4-25.8C305.31,90.72,314.87,79,330.35,76,344,73.36,367,72.42,384,72.42s40,0.95,53.66,3.6c15.57,3,25.4,14.12,27.93,20.4,4,9.87,4.32,17.85,4.32,26.53V320c0,7.43,0,22.88-4,30.85S451.68,368,437.65,370.71c-16.39,3.19-43.63,4.87-53.63,4.87h0c-10,0-37.25-1.67-53.65-4.87-14-2.73-24.3-11.95-28.26-19.86s-4-23.42-4-30.85V122.94Z"/><path d="M332.29,360.79c15.54,3,42.31,4.68,51.71,4.68h0c9.4,0,36.16-1.65,51.7-4.68,12.2-2.38,19.18-10.5,21.16-14.46,2.92-5.84,2.92-21.26,2.92-26.33V122.94c0-7.87-.26-14.54-3.58-22.74-1.2-3-8.3-11.89-20.5-14.26-12.93-2.52-35.2-3.42-51.73-3.42-15.76,0-38.76.89-51.7,3.42-11.65,2.27-18.93,11.28-21.16,15.73-2.92,5.84-2.92,13.69-2.92,21.28V320c0,5.07,0,20.49,2.92,26.33C313.11,350.29,320.08,358.41,332.29,360.79Zm21.4-20.58a5.05,5.05,0,0,1-5.05,5.05H338.53a5.05,5.05,0,0,1-5.05-5.05v-5.05a5.05,5.05,0,0,1,5.05-5.05h10.11a5.05,5.05,0,0,1,5.05,5.05v5.05Zm40.42,0a5.05,5.05,0,0,1-5.05,5.05H378.95a5.05,5.05,0,0,1-5.05-5.05v-5.05a5.05,5.05,0,0,1,5.05-5.05h10.11a5.05,5.05,0,0,1,5.05,5.05v5.05Zm40.42,0a5.05,5.05,0,0,1-5.05,5.05H419.37a5.05,5.05,0,0,1-5.05-5.05v-5.05a5.05,5.05,0,0,1,5.05-5.05h10.11a5.05,5.05,0,0,1,5.05,5.05v5.05ZM449.68,123V320H318.32V123H449.68Z"/><polygon points="357 269.48 375 269.47 417 209.47 393 209.47 423 173.47 387 173.47 345 233.47 378 233.47 357 269.48"/><polygon points="101 269.48 119 269.47 161 209.47 137 209.47 167 173.47 131 173.47 89 233.47 122 233.47 101 269.48"/></svg>