<svg id="Enterprise" xmlns="http://www.w3.org/2000/svg" viewBox="0 0 512 512"><title>Icon Library 30 copy</title><path d="M467.94,86C360,64,256,0,256,0S152,64,44.06,86C34.51,88,32,101.32,32,111.06V288c0,128,224,224,224,224s224-96,224-224V111.06C480,101.32,477.49,88,467.94,86ZM384,256H348v32h20a16,16,0,0,1,16,16v48a16,16,0,0,1-16,16H304a16,16,0,0,1-16-16V304a16,16,0,0,1,16-16h20V256H188v32h20a16,16,0,0,1,16,16v48a16,16,0,0,1-16,16H144a16,16,0,0,1-16-16V304a16,16,0,0,1,16-16h20V256H128V224H244V192H224a16,16,0,0,1-16-16V128a16,16,0,0,1,16-16h64a16,16,0,0,1,16,16v48a16,16,0,0,1-16,16H268v32H384v32Z"/></svg>