<svg id="Communication" xmlns="http://www.w3.org/2000/svg" viewBox="0 0 512 512"><title>Icon Library 29 copy</title><path d="M408,512L278.32,184.38c-8-20.22-36.63-20.22-44.63,0L104,512H408Zm-48.4-32H203.78l130.28-65.14ZM256,215.83l60.62,154.58-92.29-73.83ZM212.1,327.77l86.38,69.1L157.32,467.45ZM437,362L403.08,328.1a208,208,0,0,0,0-294.16L437,0A256,256,0,0,1,437,362ZM108.92,328.1L75,362A256,256,0,0,1,75,0l33.94,33.94A208,208,0,0,0,108.92,328.1ZM335.2,101.82l33.94-33.94a160,160,0,0,1,0,226.27L335.2,260.22A112,112,0,0,0,335.2,101.82ZM96,181A159.5,159.5,0,0,1,142.86,67.88l33.94,33.94a112,112,0,0,0,0,158.39l-33.94,33.94A159.5,159.5,0,0,1,96,181Z"/></svg>