<svg id="Communication" xmlns="http://www.w3.org/2000/svg" viewBox="0 0 512 512"><title>Icon Library 26 copy</title><path d="M499.39,220.05L410,108.25A32.65,32.65,0,0,0,384.46,96H0V416H384.46A32.65,32.65,0,0,0,410,403.75l89.44-111.8A57.55,57.55,0,0,0,499.39,220.05ZM320,384H64V183l55-55H320V384Zm112-96a32,32,0,1,1,32-32A32,32,0,0,1,432,288Z"/><path d="M88,360H296V152H129L88,193V360Zm24-155.31L140.69,176H272v88H232v32H152V216h80v32h24V192H147.31L128,211.31V320H264a8,8,0,0,1,0,16H112V204.69Z"/></svg>