<svg id="Communication" xmlns="http://www.w3.org/2000/svg" viewBox="0 0 512 512"><title>Icon Library 30 copy</title><path d="M144,304v64h64A64,64,0,0,0,144,304Z"/><path d="M302.39,209.61a223,223,0,0,0-131.53-64A24,24,0,0,0,144,169.44h0a23.94,23.94,0,0,0,21,23.81A176,176,0,0,1,318.75,347a23.94,23.94,0,0,0,23.81,21h0a24,24,0,0,0,23.84-26.86A223,223,0,0,0,302.39,209.61Z"/><path d="M245.82,266.18a143.33,143.33,0,0,0-73-39.28A24,24,0,0,0,144,250.42h0a23.93,23.93,0,0,0,19.12,23.49,96.06,96.06,0,0,1,75,75A23.93,23.93,0,0,0,261.58,368h0a24,24,0,0,0,23.52-28.82A143.33,143.33,0,0,0,245.82,266.18Z"/><path d="M512,64h0A64,64,0,0,0,448,0H368a64,64,0,0,0-64,64h0v80h0a64,64,0,0,0,64,64h80a64,64,0,0,0,64-64h0V64Zm-48,96H352V48H464V160Z"/><path d="M208,400H160v64H48V352h64V304H64A64,64,0,0,0,0,368H0v80H0a64,64,0,0,0,64,64h80a64,64,0,0,0,64-64h0V400Z"/></svg>