<svg id="General_actions" data-name="General actions" xmlns="http://www.w3.org/2000/svg" viewBox="0 0 512 512"><title>Icon Library 30 copy</title><path d="M354.15,354.15h0l-25.61-25.61L0,0V48L32,80A32.09,32.09,0,0,0,0,112V432a32.09,32.09,0,0,0,32,32H416l48,48h48ZM256,400A128,128,0,0,1,150.91,198.91l34.82,34.82A80,80,0,0,0,294.27,342.27l34.82,34.82A127.4,127.4,0,0,1,256,400Z"/><path d="M480,80H360L344,32H168L152,80H128l75.32,75.32A128,128,0,0,1,372.68,324.68L502.6,454.6A31.9,31.9,0,0,0,512,432V112A32.09,32.09,0,0,0,480,80Z"/><path d="M256,192a80.36,80.36,0,0,0-14.65,1.35l93.29,93.29A80,80,0,0,0,256,192Z"/></svg>