<svg id="Alert" xmlns="http://www.w3.org/2000/svg" viewBox="0 0 512 512"><title>Icon Library 26 copy</title><path d="M256,464c-12.49,0-29.23-.7-47.95-2.15,0,0.71-.05,1.43-0.05,2.14a48,48,0,0,0,96,0c0-.72,0-1.43-0.05-2.14C285.23,463.3,268.49,464,256,464Z"/><path d="M472,352c-40.59-47.5-45.49-181-80.24-247.76C363.25,49.47,333.21,35.94,288,32.85c0-.28,0-0.57,0-0.85a32,32,0,0,0-64,0c0,0.29,0,.57,0,0.85-45.23,3.09-75.27,16.61-103.79,71.38C85.49,171,80.59,304.5,40,352c-51.27,60,152,80,216,80S523.27,412,472,352Z"/></svg>