<svg id="Printer" xmlns="http://www.w3.org/2000/svg" viewBox="0 0 512 512"><title>Icon Library 30 copy</title><circle cx="16" cy="256" r="16"/><circle cx="496" cy="256" r="16"/><path d="M416,232H96a8,8,0,1,0,0,16H416A8,8,0,0,0,416,232Z"/><path d="M400,264H112a8,8,0,0,0,0,16H400A8,8,0,0,0,400,264Z"/><path d="M469.55,186a47.77,47.77,0,0,0-37.44-18H79.89A48,48,0,0,0,33,226.41l17.78,80A47.71,47.71,0,0,0,97.67,344H414.33a47.72,47.72,0,0,0,46.86-37.59l17.78-80A47.77,47.77,0,0,0,469.55,186Zm-21.82,33.51-17.78,80A15.91,15.91,0,0,1,414.33,312H97.67a15.9,15.9,0,0,1-15.62-12.53l-17.78-80A16,16,0,0,1,79.89,200H432.11A16,16,0,0,1,447.73,219.47Z"/></svg>