<?xml version="1.0" encoding="utf-8"?>
<!-- Generator: Adobe Illustrator 19.2.0, SVG Export Plug-In . SVG Version: 6.00 Build 0)  -->
<svg version="1.1" id="Layer_1" xmlns="http://www.w3.org/2000/svg" xmlns:xlink="http://www.w3.org/1999/xlink" x="0px" y="0px"
	 viewBox="0 0 512 512" enable-background="new 0 0 512 512" xml:space="preserve">
<g>
	<path d="M368,480L368,480c26.5,0,48-21.5,48-48V80c0-26.5-21.5-48-48-48h0c-26.5,0-48,21.5-48,48v352C320,458.5,341.5,480,368,480z
		"/>
	<path d="M144,480L144,480c26.5,0,48-21.5,48-48V80c0-26.5-21.5-48-48-48h0c-26.5,0-48,21.5-48,48v352C96,458.5,117.5,480,144,480z"
		/>
</g>
</svg>
