<svg id="Enterprise" xmlns="http://www.w3.org/2000/svg" viewBox="0 0 512 512"><title>Icon Library 28 copy</title><circle cx="256" cy="464" r="48"/><path d="M448,416a48,48,0,0,0-48,48,48,48,0,1,0-48,48,48,48,0,0,0,48-48A48,48,0,1,0,448,416Z"/><path d="M160,416a48,48,0,0,0-48,48,48,48,0,1,0-48,48,48,48,0,0,0,48-48A48,48,0,1,0,160,416Z"/><circle cx="256" cy="336" r="16"/><path d="M288,352a16,16,0,0,0,16-16,16,16,0,1,0,16-16,16,16,0,0,0-16,16A16,16,0,1,0,288,352Z"/><circle cx="352" cy="336" r="16"/><circle cx="384" cy="336" r="16"/><circle cx="416" cy="336" r="16"/><circle cx="448" cy="336" r="16"/><circle cx="480" cy="336" r="16"/><path d="M192,352a16,16,0,0,0,16-16,16,16,0,1,0,16-16,16,16,0,0,0-16,16A16,16,0,1,0,192,352Z"/><circle cx="160" cy="336" r="16"/><circle cx="128" cy="336" r="16"/><circle cx="96" cy="336" r="16"/><circle cx="64" cy="336" r="16"/><circle cx="32" cy="336" r="16"/><circle cx="256" cy="384" r="32"/><path d="M352,384a32,32,0,1,0-32,32,32,32,0,0,0,32-32,32,32,0,1,0,32-32,32,32,0,0,0-32,32Z"/><circle cx="448" cy="384" r="32"/><path d="M96,384a32,32,0,0,0,64,0,32,32,0,1,0,32-32,32,32,0,0,0-32,32A32,32,0,0,0,96,384Z"/><circle cx="64" cy="384" r="32"/><circle cx="288" cy="192" r="16"/><circle cx="288" cy="224" r="16"/><circle cx="288" cy="256" r="16"/><circle cx="288" cy="288" r="16"/><circle cx="256" cy="144" r="16"/><circle cx="256" cy="16" r="16"/><circle cx="288" cy="32" r="16"/><circle cx="320" cy="112" r="16"/><circle cx="288" cy="128" r="16"/><circle cx="320" cy="48" r="16"/><circle cx="352" cy="64" r="16"/><circle cx="352" cy="96" r="16"/><circle cx="384" cy="80" r="16"/><circle cx="224" cy="32" r="16"/><circle cx="192" cy="112" r="16"/><circle cx="224" cy="128" r="16"/><circle cx="192" cy="48" r="16"/><circle cx="160" cy="64" r="16"/><circle cx="160" cy="96" r="16"/><circle cx="128" cy="80" r="16"/><circle cx="320" cy="272" r="16"/><circle cx="320" cy="240" r="16"/><circle cx="320" cy="208" r="16"/><circle cx="320" cy="176" r="16"/><circle cx="352" cy="256" r="16"/><circle cx="352" cy="224" r="16"/><circle cx="352" cy="192" r="16"/><circle cx="352" cy="160" r="16"/><circle cx="384" cy="240" r="16"/><circle cx="384" cy="208" r="16"/><circle cx="384" cy="176" r="16"/><circle cx="384" cy="144" r="16"/><circle cx="224" cy="192" r="16"/><circle cx="224" cy="224" r="16"/><circle cx="224" cy="256" r="16"/><circle cx="224" cy="288" r="16"/><circle cx="192" cy="272" r="16"/><circle cx="192" cy="240" r="16"/><circle cx="192" cy="208" r="16"/><circle cx="192" cy="176" r="16"/><circle cx="160" cy="256" r="16"/><circle cx="160" cy="224" r="16"/><circle cx="160" cy="192" r="16"/><circle cx="160" cy="160" r="16"/><circle cx="128" cy="240" r="16"/><circle cx="128" cy="208" r="16"/><circle cx="128" cy="176" r="16"/><circle cx="128" cy="144" r="16"/></svg>