<svg id="Enterprise" xmlns="http://www.w3.org/2000/svg" viewBox="0 0 512 512"><title>Icon Library 30 copy</title><path d="M352,128l-84,96h80L192,384l48-112H160l96-144h96ZM512,240v32H479.43C471.59,383,383,471.59,272,479.43V512H240V479.43C129,471.59,40.41,383,32.57,272H0V240H32.57C40.41,129,129,40.41,240,32.57V0h32V32.57C383,40.41,471.59,129,479.43,240H512Zm-96,32V240h31.33A192,192,0,0,0,272,64.67V96H240V64.67A192,192,0,0,0,64.67,240H96v32H64.67A192,192,0,0,0,240,447.33V416h32v31.33A192,192,0,0,0,447.33,272H416Z"/></svg>