<svg id="General_actions" data-name="General actions" xmlns="http://www.w3.org/2000/svg" viewBox="0 0 512 512"><title>Icon Library 26 copy</title><path d="M256,256a32,32,0,0,1-32-32V32a32,32,0,0,1,64,0V224A32,32,0,0,1,256,256Z"/><path d="M256,512A224,224,0,0,1,57.49,184.16a225.88,225.88,0,0,1,67.82-78.06,32,32,0,0,1,37.37,52,161.55,161.55,0,0,0-48.51,55.83A158,158,0,0,0,96,288c0,88.23,71.78,160,160,160s160-71.77,160-160a158,158,0,0,0-18.17-74.13A161.56,161.56,0,0,0,349.31,158a32,32,0,0,1,37.37-52A223.7,223.7,0,0,1,480,288,224,224,0,0,1,256,512Z"/></svg>