<svg id="Printer" xmlns="http://www.w3.org/2000/svg" viewBox="0 0 512 512"><defs><style>.cls-1{fill-rule:evenodd;}</style></defs><title>Icon Library 26 copy</title><path class="cls-1" d="M439.86,213.65H285.8A17.9,17.9,0,0,0,268,231.5V494.15A17.9,17.9,0,0,0,285.8,512H439.86a17.9,17.9,0,0,0,17.85-17.85V231.5A17.9,17.9,0,0,0,439.86,213.65Zm-2.27,241.11a9.71,9.71,0,0,1-9.67,9.67H297.73a9.7,9.7,0,0,1-9.67-9.67V243.43a9.69,9.69,0,0,1,9.67-9.67H427.92a9.7,9.7,0,0,1,9.67,9.67V454.76Z"/><path d="M257.5,231.5a28.35,28.35,0,0,1,28.3-28.3h52.09a57.41,57.41,0,1,0-80.39,80.39V231.5Z"/><path class="cls-1" d="M283.55,18.59a9.3,9.3,0,0,0,0-18.59h-0.77C156.78,0,54.6,102,54.31,228v0.54a9.3,9.3,0,1,0,18.59,0v-0.35C73.07,112.36,167,18.58,282.79,18.58H283Z"/><path class="cls-1" d="M189,237.78a9.3,9.3,0,0,0,9.3-9.3v-0.35A84.47,84.47,0,0,1,282.79,144H283l0.55,0a9.3,9.3,0,0,0,0-18.6h-0.77A103,103,0,0,0,179.74,228v0.54A9.3,9.3,0,0,0,189,237.78Z"/><path class="cls-1" d="M126.31,237.78a9.3,9.3,0,0,0,9.3-9.3v-0.35A147.19,147.19,0,0,1,282.79,81.29H283l0.57,0a9.3,9.3,0,0,0,0-18.6h-0.77A165.77,165.77,0,0,0,117,228v0.53A9.3,9.3,0,0,0,126.31,237.78Z"/></svg>