<svg id="Printer" xmlns="http://www.w3.org/2000/svg" viewBox="0 0 512 512"><title>Icon Library 30 copy</title><path d="M256,0C114.61,0,0,114.62,0,256S114.61,512,256,512,512,397.38,512,256,397.39,0,256,0Zm0,464C141.12,464,48,370.88,48,256S141.12,48,256,48s208,93.12,208,208S370.87,464,256,464Z"/><circle cx="256" cy="392" r="24"/><path d="M329.62,121.78C310.23,105.15,284.08,96,256,96c-61.29,0-104,50.59-104,96a24,24,0,0,0,48,0c0-19.57,21.82-48,56-48,33.5,0,56,20.68,56,40,0,19.55-10.63,29-31,45.26-21.83,17.47-49,39.21-49,82.74a24,24,0,0,0,48,0c0-19.55,10.63-29,31-45.26,21.83-17.47,49-39.21,49-82.74C360,161,348.93,138.33,329.62,121.78Z"/></svg>