<svg id="General_actions" data-name="General actions" xmlns="http://www.w3.org/2000/svg" viewBox="0 0 512 512"><title>Icon Library 30 copy</title><polygon points="144 432 304 431.9 304 400 144 400 144 432"/><rect x="144" y="336" width="224" height="32"/><polygon points="400 480 112 480 112 304 80 304 80 512 432 512 432 304 400 304 400 480"/><path d="M480,64H464V96a64,64,0,0,1-64,64H112A64,64,0,0,1,48,96V64H32A32,32,0,0,0,0,96V432a16,16,0,0,0,16,16H48V272H464V448h32a16,16,0,0,0,16-16V96A32,32,0,0,0,480,64ZM96,224a16,16,0,1,1,16-16A16,16,0,0,1,96,224Z"/><path d="M112,128h0V32H400v96a32,32,0,0,0,32-32V0H80V96A32,32,0,0,0,112,128Z"/></svg>