<svg id="Printer" xmlns="http://www.w3.org/2000/svg" viewBox="0 0 512 512"><title>Icon Library 30 copy</title><path d="M512,304V208H442a190.83,190.83,0,0,0-20.54-49.52L471,108.92,403.08,41,353.52,90.59A190.82,190.82,0,0,0,304,70V0H208V70a190.82,190.82,0,0,0-49.52,20.54L108.92,41,41,108.92l49.55,49.55A190.83,190.83,0,0,0,70,208H0v96H70a190.82,190.82,0,0,0,20.54,49.52L41,403.08,108.92,471l49.55-49.55A190.83,190.83,0,0,0,208,442v70h96V442a190.82,190.82,0,0,0,49.52-20.54L403.08,471,471,403.08l-49.55-49.55A190.82,190.82,0,0,0,442,304h70ZM256,352a96,96,0,1,1,96-96A96,96,0,0,1,256,352Z"/></svg>