<svg id="Navigation" xmlns="http://www.w3.org/2000/svg" viewBox="0 0 512 512"><defs><style>.cls-1{fill:none;}</style></defs><title>Icon Library 26 copy</title><circle class="cls-1" cx="256" cy="256" r="256"/><path d="M505,239A24,24,0,0,0,471,239l-23.16,23.16a191.34,191.34,0,0,0-56.12-142c-74.88-74.87-196.71-74.87-271.59,0s-74.88,196.69,0,271.55a190.66,190.66,0,0,0,133,56.2V448c1,0,1.93,0,2.89,0a191.67,191.67,0,0,0,73.49-14.73,24,24,0,1,0-18.38-44.34,143.71,143.71,0,0,1-54.24,11l-0.92,0h0a143,143,0,0,1-101.79-42.18c-56.16-56.15-56.16-147.51,0-203.66s147.53-56.15,203.69,0a142.65,142.65,0,0,1,42.06,107.77l-22.93-22.93A24,24,0,1,0,343,272.88l81,81,81-81A24,24,0,0,0,505,239Z"/></svg>