<svg id="Navigation" xmlns="http://www.w3.org/2000/svg" viewBox="0 0 512 512"><defs><style>.cls-1{fill:none;}</style></defs><title>Icon Library 26 copy</title><circle class="cls-1" cx="256" cy="256" r="256"/><path d="M239,7A24,24,0,0,0,239,41l23.16,23.16a191.34,191.34,0,0,0-142,56.12c-74.87,74.88-74.87,196.71,0,271.59s196.69,74.88,271.55,0a190.66,190.66,0,0,0,56.2-133H448c0-1,0-1.93,0-2.89a191.67,191.67,0,0,0-14.73-73.49,24,24,0,1,0-44.34,18.38,143.71,143.71,0,0,1,11,54.24c0,0.3,0,.61,0,0.92,0,0,0,0,0,0a143,143,0,0,1-42.18,101.79c-56.15,56.16-147.51,56.16-203.66,0s-56.15-147.53,0-203.69a142.65,142.65,0,0,1,107.77-42.06l-22.93,22.93A24,24,0,0,0,272.88,169l81-81-81-81A24,24,0,0,0,239,7Z"/></svg>