<svg id="Printer" xmlns="http://www.w3.org/2000/svg" viewBox="0 0 512 512"><title>Icon Library 30 copy</title><path d="M152,480A112,112,0,0,0,264,368c0-.52,0-1,0-1.56l50.8,12.66a80.07,80.07,0,1,0,14.92-29.26L258.08,332A112,112,0,1,0,152,480ZM392,352a48,48,0,1,1-48,48A48,48,0,0,1,392,352ZM152,320a48,48,0,1,1-48,48A48,48,0,0,1,152,320Z"/><path d="M497.59,320.08a16,16,0,0,0-17.51,14.33L468.4,451.18A31.9,31.9,0,0,1,436.56,480H76.69a32.11,32.11,0,0,1-31.92-29.72L32,270.86A16,16,0,1,0,0,273.14L12.86,452.56A64.23,64.23,0,0,0,76.69,512H436.56a63.8,63.8,0,0,0,63.68-57.63l11.68-116.78A16,16,0,0,0,497.59,320.08Z"/><path d="M216.4,67.85a72,72,0,0,1,90.52,9.24,71.32,71.32,0,0,1,21,53.88l-11.46-11.46a12,12,0,1,0-17,17L340,177l40.48-40.49a12,12,0,1,0-17-17l-11.58,11.58A96,96,0,0,0,203.17,47.82,12,12,0,1,0,216.4,67.85Z"/><path d="M148.48,136.48l11.58-11.58a96,96,0,0,0,86.74,98.65q4.57,0.44,9.13.44a96.21,96.21,0,0,0,52.89-15.82,12,12,0,1,0-13.22-20,72,72,0,0,1-90.52-9.24,71.32,71.32,0,0,1-21-53.88l11.46,11.46a12,12,0,1,0,17-17L172,79l-40.48,40.49A12,12,0,1,0,148.48,136.48Z"/></svg>