<svg id="Printer" xmlns="http://www.w3.org/2000/svg" viewBox="0 0 512 512"><title>Icon Library 30 copy</title><path d="M153.39,479.4A112,112,0,0,0,264.5,366.53c0-.52,0-1,0-1.56l50.89,12.26a80.07,80.07,0,1,0,14.69-29.38l-71.75-17.28A112,112,0,1,0,153.39,479.4Zm239-129.89a48,48,0,1,1-47.62,48.38A48,48,0,0,1,392.37,349.52ZM152.13,319.41a48,48,0,1,1-47.62,48.38A48,48,0,0,1,152.13,319.41Z"/><path d="M497.71,316.77a16,16,0,0,0-17.4,14.47L469.55,448.1a31.9,31.9,0,0,1-31.61,29.07L78.09,480a32.11,32.11,0,0,1-32.15-29.47L31.7,271.22a16,16,0,1,0-31.9,2.53L14,453.06A64.23,64.23,0,0,0,78.34,512l359.86-2.84A63.8,63.8,0,0,0,501.42,451l10.76-116.86A16,16,0,0,0,497.71,316.77Z"/><path d="M255.75-1.76l-128,224h256Zm0,200.35a16,16,0,1,1,16-16A16,16,0,0,1,255.75,198.59Zm1-48a16,16,0,0,1-16-16v-48a16,16,0,1,1,32,0v48A16,16,0,0,1,256.74,150.59Z"/></svg>