<svg id="Printer" xmlns="http://www.w3.org/2000/svg" viewBox="0 0 512 512"><title>Icon Library 30 copy</title><path d="M152,480A112,112,0,0,0,264,368c0-.52,0-1,0-1.56l50.8,12.66a80.07,80.07,0,1,0,14.92-29.26L258.08,332A112,112,0,1,0,152,480ZM392,352a48,48,0,1,1-48,48A48,48,0,0,1,392,352ZM152,320a48,48,0,1,1-48,48A48,48,0,0,1,152,320Z"/><path d="M497.59,320.08a16,16,0,0,0-17.51,14.33L468.4,451.18A31.9,31.9,0,0,1,436.56,480H76.69a32.11,32.11,0,0,1-31.92-29.72L32,270.86A16,16,0,1,0,0,273.14L12.86,452.56A64.23,64.23,0,0,0,76.69,512H436.56a63.8,63.8,0,0,0,63.68-57.63l11.68-116.78A16,16,0,0,0,497.59,320.08Z"/></svg>