<svg id="Layer_1" data-name="Layer 1" xmlns="http://www.w3.org/2000/svg" viewBox="0 0 512 512"><title>ring_scanner</title><path d="M328,124v32a24,24,0,0,1-24,24H112.06a8.07,8.07,0,0,1-8.06-8.06V108.06a8.07,8.07,0,0,1,8.06-8.06H304A24,24,0,0,1,328,124Zm120,32h8V124h-8v32Zm16,0h8V124h-8v32ZM320,252V356a48,48,0,0,1-48,48H256v16l10.21,20.42A8,8,0,0,1,259.06,452H124.94a8,8,0,0,1-7.16-11.58L128,420V404H112a48,48,0,0,1-48-48V268a48,48,0,0,1,48-48H288A32,32,0,0,1,320,252ZM256,444c0-8.44-6.54-16.1-17.21-21.82L242.25,436H141.64l2.62-10,1-3.82C134.56,427.87,128,435.55,128,444H256Zm-32-40H160c0,1.41-8,24-8,24h80Zm80-112a32,32,0,0,0-32-32H112a32,32,0,0,0-32,32v64a32,32,0,0,0,32,32H272a32,32,0,0,0,32-32V292ZM512,108v64a48,48,0,0,1-48,48l-2.91,15.29a16,16,0,0,1-11.4,12.41L328,281.76V252a40,40,0,0,0-16-32H464a8,8,0,0,0-8-8H68a4,4,0,1,0,0,8H83.19a56,56,0,0,0-27.05,44.29L4.4,238.22A8,8,0,0,1,0,231.07V228a8,8,0,0,1,8-8H64a32,32,0,0,1-32-32V92A32,32,0,0,1,64,60H464A48,48,0,0,1,512,108Zm0,24a16,16,0,0,0-16-16H440a8,8,0,0,0-8,8v32a8,8,0,0,0,8,8h56a16,16,0,0,0,16-16V132Zm0-16a24,24,0,0,0-24-24H344a8,8,0,0,0-8,8v24a32,32,0,0,0-32-32H96V84a8,8,0,0,0-8-8h0a8,8,0,0,0-8,8V196a8,8,0,0,0,8,8h0a8,8,0,0,0,8-8v-8H304a32,32,0,0,0,32-32v24a8,8,0,0,0,8,8H488a24,24,0,0,0,24-24v-8a16,16,0,0,1-16,16H408a8,8,0,0,1-8-8V116a8,8,0,0,1,8-8h88a16,16,0,0,1,16,16v-8ZM128,316a8,8,0,1,0,8,8A8,8,0,0,0,128,316Zm64,0a8,8,0,1,0,8,8A8,8,0,0,0,192,316Zm64,0a8,8,0,1,0,8,8A8,8,0,0,0,256,316Zm32-24v64a16,16,0,0,1-16,16H112a16,16,0,0,1-16-16V292a16,16,0,0,1,16-16H272A16,16,0,0,1,288,292Zm-8,0a8,8,0,0,0-8-8H112a8,8,0,0,0-8,8v64a8,8,0,0,0,8,8H272a8,8,0,0,0,8-8V292Z"/></svg>