<svg id="General_actions" data-name="General actions" xmlns="http://www.w3.org/2000/svg" viewBox="0 0 512 512"><title>Icon Library 30 copy</title><path d="M502.67,457.41L376,330.7A207,207,0,0,0,416,208C416,93.13,322.87,0,208,0S0,93.13,0,208,93.13,416,208,416a207,207,0,0,0,122.7-40L457.41,502.67A32,32,0,0,0,502.67,457.41ZM208,368A160,160,0,1,1,368,208,160,160,0,0,1,208,368Z"/><circle cx="208" cy="144" r="64"/><path d="M208,240c-57.86,0-92.46,9.2-110.83,32a127.94,127.94,0,0,0,221.66,0C300.46,249.2,265.86,240,208,240Z"/></svg>