<svg id="Communication" xmlns="http://www.w3.org/2000/svg" viewBox="0 0 512 512"><title>sensor</title><path d="M256,160a96,96,0,1,0,96,96A96,96,0,0,0,256,160Zm0,144a48,48,0,1,1,48-48A48,48,0,0,1,256,304Z"/><path d="M155,114.82a24,24,0,1,0,29.6,37.79,116,116,0,0,1,142.9,0A24,24,0,1,0,357,114.82,164,164,0,0,0,155,114.82Z"/><path d="M150.86,363.49a24,24,0,0,0,4.1,33.69,164,164,0,0,0,202.09,0,24,24,0,1,0-29.6-37.79,116,116,0,0,1-142.9,0A24,24,0,0,0,150.86,363.49Z"/><path d="M455.6,107.4a24,24,0,1,0-35.91,31.86,176,176,0,0,1,0,233.48A24,24,0,1,0,455.6,404.6,224,224,0,0,0,455.6,107.4Z"/><path d="M48,256A175.74,175.74,0,0,1,92.31,139.26,24,24,0,1,0,56.4,107.4a224,224,0,0,0,0,297.2,24,24,0,1,0,35.91-31.86A175.74,175.74,0,0,1,48,256Z"/></svg>