<svg id="SAA" xmlns="http://www.w3.org/2000/svg" viewBox="0 0 512 512"><title>Icon Library 30 copy</title><path d="M256,0C114.62,0,0,114.61,0,256S114.62,512,256,512,512,397.38,512,256,397.38,0,256,0ZM403.08,403.08A208,208,0,1,1,108.92,108.92,208,208,0,1,1,403.08,403.08Z"/><path d="M226.84,242.84a32,32,0,1,0,16-16L136,120a11.31,11.31,0,0,0-16,16ZM272,256a16,16,0,1,1-16-16A16,16,0,0,1,272,256Z"/><path d="M407.89,256a8,8,0,0,0-8,7.59,143.18,143.18,0,0,1-23.2,71,32,32,0,0,0-42.08,42.07,143.27,143.27,0,0,1-79.77,23.4c-77.74-.61-141.45-63.58-142.93-141.31a143.28,143.28,0,0,1,24.75-83.48l-11.5-11.5a159.26,159.26,0,0,0-29.22,97C98.44,345.19,167,413.66,251.4,416a159.25,159.25,0,0,0,93.09-26.68,32,32,0,0,0,44.87-44.86,159.1,159.1,0,0,0,26.52-80.08A8,8,0,0,0,407.89,256Z"/><path d="M251.8,335.89a79.07,79.07,0,0,1-34.07-9.71,24,24,0,0,0-31.92-31.92,79.63,79.63,0,0,1-2.28-72.11l-11.9-11.9A95.61,95.61,0,0,0,174.16,306a24,24,0,0,0,31.79,31.79,95.16,95.16,0,0,0,46.36,14.09,96.12,96.12,0,0,0,99.3-87.25,8,8,0,0,0-15.93-1.48A80.1,80.1,0,0,1,251.8,335.89Z"/></svg>