<svg id="Communication" xmlns="http://www.w3.org/2000/svg" viewBox="0 0 512 512"><title>Icon Library 26 copy</title><path d="M392.11,168H119.89A48,48,0,0,0,73,226.41l17.78,80A47.72,47.72,0,0,0,137.67,344H374.33a47.71,47.71,0,0,0,46.86-37.59l17.78-80A48,48,0,0,0,392.11,168Zm15.62,51.47-17.78,80A15.9,15.9,0,0,1,374.33,312H137.67a15.9,15.9,0,0,1-15.62-12.53l-17.78-80A16,16,0,0,1,119.89,200H392.11A16,16,0,0,1,407.73,219.47Z"/><circle cx="160" cy="232" r="16"/><circle cx="208" cy="232" r="16"/><circle cx="184" cy="280" r="16"/><circle cx="232" cy="280" r="16"/><circle cx="280" cy="280" r="16"/><circle cx="328" cy="280" r="16"/><circle cx="256" cy="232" r="16"/><circle cx="304" cy="232" r="16"/><circle cx="352" cy="232" r="16"/><circle cx="480" cy="256" r="32"/><circle cx="32" cy="256" r="32"/></svg>