<svg id="General_actions" data-name="General actions" xmlns="http://www.w3.org/2000/svg" viewBox="0 0 512 512"><title>Icon Library 26 copy</title><path d="M453.7,425.57l48-83.14-55.21-62.26a194.18,194.18,0,0,0,0-48.34l55.21-62.26-48-83.14-81.55,16.69A191.74,191.74,0,0,0,330.3,78.91L304,0H208L181.7,78.91a191.75,191.75,0,0,0-41.84,24.21L58.3,86.43l-48,83.14,55.21,62.26a194.18,194.18,0,0,0,0,48.33L10.3,342.43l48,83.14,81.55-16.69a191.78,191.78,0,0,0,41.85,24.21L208,512h96l26.3-78.91a191.75,191.75,0,0,0,41.85-24.21ZM256,352a96,96,0,1,1,96-96A96,96,0,0,1,256,352Z"/></svg>