<svg id="General_actions" data-name="General actions" xmlns="http://www.w3.org/2000/svg" viewBox="0 0 512 512"><title>Icon Library 30 copy</title><path d="M313.63,461.32A32,32,0,1,0,288,402.68,158.66,158.66,0,0,1,224,416c-88.22,0-160-71.78-160-160S135.78,96,224,96a158.66,158.66,0,0,1,64,13.32,32,32,0,0,0,25.65-58.63,224,224,0,0,0-248,363.71A224.12,224.12,0,0,0,313.63,461.32Z"/><path d="M361.43,195.94L389.49,224H288a32,32,0,0,0,0,64H389.49l-28.06,28.06a32,32,0,1,0,45.25,45.25L512,256,406.69,150.69A32,32,0,0,0,361.43,195.94Z"/></svg>