<svg id="General_actions" data-name="General actions" xmlns="http://www.w3.org/2000/svg" viewBox="0 0 512 512"><title>Icon Library 30 copy</title><path d="M198.37,50.68A32,32,0,0,0,224,109.32,158.66,158.66,0,0,1,288,96c88.22,0,160,71.78,160,160S376.22,416,288,416a158.66,158.66,0,0,1-64-13.32,32,32,0,0,0-25.65,58.63,224,224,0,0,0,248-363.71A224.12,224.12,0,0,0,198.37,50.68Z"/><path d="M256,256L150.69,150.69a32,32,0,0,0-45.25,45.25L133.49,224H32a32,32,0,0,0,0,64H133.49l-28.06,28.06a32,32,0,0,0,45.25,45.25Z"/></svg>