<svg id="Layer_1" data-name="Layer 1" xmlns="http://www.w3.org/2000/svg" viewBox="0 0 512 512"><title>simulscan</title><path d="M128,256h32v64H128V256Zm32-96H128v48h32V160ZM272,48H208V80h64V48ZM112,0H48V32h64V0Zm32,96H48v32h96V96Zm48-48H48V80H192V48Zm48,160V160H208v48h32Zm32-48H256v48h16V160Zm0,96H256v64h16V256ZM272,0H128V32H272V0ZM400,320h16V256H400v64Zm16-160H400v48h16V160ZM272,96H160v32H272V96Zm96,224h16V256H368v64ZM464,24L440,0,360,80,328,48,304,72l56,56ZM304,160H288v48h16V160Zm48,0H320v48h32V160Zm-48,96H288v64h16V256Zm16,64h32V256H320v64Zm64-160H368v48h16V160ZM160,416V400h16V384H144v16H112v16h16v16h16V416h16Zm16-96h16V256H176v64Zm0-112h16V160H176v48Zm-64-48H96v48h16V160Zm64,288H160v32h16V448Zm-16,32v16H144V480h16V464H128v16H112v16h16v16h32V496h16V480H160ZM432,352h32V256H432v96Zm0-144h32V160H432v48ZM240,256H208v64h32V256ZM461.38,492.87c-13.44.12-21.89-11.15-32.83-17-6.81-3.62-13.91-5-21.29-2.26-7.57,2.79-14.41,7.62-21.59,11.24a2.73,2.73,0,0,1-4-3c0.4-1.62,1.8-3.21,2.65-4.61a65.26,65.26,0,0,0,4.49-8.48c0.89-2.14,2.85-6.38,1.36-8.61-2.06-3.1-6-.66-7.88,1.15-6.05,5.86-8.67,13.37-12.06,20.7-1.35,2.91-4.89,4.22-7.09,1.2-1.51-2.07-1.75-5.52-2-8.44a4.93,4.93,0,0,0-3.58,2.58c0,0.11,0,.23,0,0.34-2.2,15.67-15,30.26-31,33.61-18.91,4-34.22-9.86-45-23.29-0.57-.71-1.14-1.44-1.72-2.19-14.62,8.64-33.52,15.74-50.24,10.65-14.77-4.5-26.24-21.07-19.79-36.06,5.54-12.87,21.91-17.62,34.88-14.06,16.32,4.48,26.76,19.54,36.44,32.39,32.94-21.23,52.86-58.08,67.23-93,1.29-3.14,6.53-1.76,5.22,1.41-14.84,36.05-35.28,73.74-69.19,95.81,11.38,14.41,28.25,30.3,47.93,20.74A37,37,0,0,0,349.59,486c-4.12,1.13-8.91.17-12.65-1.47-4.92-2.16-9.35-6.17-10.32-11.57-1.23-6.84,3.89-14.47,10.14-17.21,5.95-2.61,12.23.21,16.37,4.63a17,17,0,0,1,4.65,9.91,10,10,0,0,1,6.66-.4,2.79,2.79,0,0,1,2,2.56c0.15,1.27.31,2.53,0.49,3.79a44.68,44.68,0,0,1,2.17-5.29A66,66,0,0,1,376,460.39c4-4.87,10.06-9.52,16.46-5.4,5.31,3.41,3.57,10.42,1.62,15.22a56.23,56.23,0,0,1-2.55,5.37c9.57-5.45,19.5-10.8,30.78-7.88,7.09,1.83,13.11,5.93,18.84,10.24,6,4.53,12.24,9.68,20.24,9.61C464.88,487.52,464.87,492.84,461.38,492.87ZM276.63,481.52c-9.95-13.44-21.34-29.83-38.79-31-7.86-.51-16.62,2.21-21.29,8.77-6,8.48-2.53,19.64,4.58,26.31C236.16,499.76,260.51,490.88,276.63,481.52ZM348.16,463c-3.74-3.34-8.29-4.08-12.14-.39-2.43,2.32-4.62,5.8-4.09,9.26,0.78,5,6.51,8.2,11.19,9,2.16,0.38,5.13.53,6.94-1,1.3-1.08,1.81-2.81,2.48-4.44C352.95,470.88,351.95,466.37,348.16,463ZM144,432v16h16V432H144ZM80,256H48v96H80V256Zm0-96H48v48H80V160ZM96,320h16V256H96v64ZM48,512H64V496H48v16Zm128-80V416H160v16h16ZM80,416H96V400h16V384H80v32H64V384H48v32H64v16H80V416Zm32,16V416H96v48H80V448H64V432H48v32H64v32H80v16h32V496H80V480h32V448h16V432H112ZM512,224v16H0V224H512Z"/></svg>