<svg id="Devices_Accessories" data-name="Devices &amp; Accessories" xmlns="http://www.w3.org/2000/svg" viewBox="0 0 512 512"><title>Icon Library 30 copy</title><polygon points="98.75 273.27 118.25 273.26 163.75 208.26 137.75 208.26 170.25 169.26 131.25 169.26 85.75 234.26 121.5 234.26 98.75 273.27"/><path d="M67.79,393.68c18.65,3.63,48.62,5.47,60.19,5.47h0c11.57,0,41.54-1.84,60.19-5.47,19.46-3.79,32.93-16.59,38.32-27.37C232,355.37,232,337.79,232,328V114.52c0-9.79-.32-20.09-5.47-32.84-4.49-11.1-18.86-24.95-38.32-28.74-18.65-3.63-48.62-4.1-60.19-4.1h0c-11.57,0-41.54.47-60.19,4.1-19.46,3.79-32.93,18-38.32,28.74C24,92.63,24,104.74,24,114.52V328c0,9.79,0,27.37,5.47,38.32C34.86,377.1,48.33,389.89,67.79,393.68ZM34.95,114.52c0-9.05,0-19.31,4.32-27.95,3.48-7,13.85-19.62,30.62-22.89,14.77-2.88,39.69-3.9,58.1-3.9s43.37,1,58.13,3.9C203,67,213.63,79,216.38,85.78c4.32,10.69,4.68,19.34,4.68,28.74V328c0,8,0,24.78-4.32,33.42S201.32,380,186.12,382.94c-17.76,3.46-47.26,5.27-58.1,5.27h0c-10.85,0-40.36-1.81-58.12-5.27-15.2-3-26.33-12.94-30.62-21.52S34.95,336,34.95,328V114.52Z"/><path d="M72,372.19c16.83,3.28,45.84,5.07,56,5.07h0c10.18,0,39.17-1.79,56-5.07,13.22-2.58,20.77-11.38,22.92-15.67,3.16-6.32,3.16-23,3.16-28.52V114.52c0-8.52-.29-15.75-3.88-24.64-1.3-3.22-9-12.88-22.2-15.45-14-2.73-38.13-3.7-56-3.7-17.07,0-42,1-56,3.7-12.62,2.46-20.51,12.22-22.92,17-3.16,6.32-3.16,14.83-3.16,23.05V328c0,5.49,0,22.2,3.16,28.52C51.2,360.82,58.76,369.62,72,372.19Zm23.18-22.3a5.47,5.47,0,0,1-5.47,5.47H78.74a5.47,5.47,0,0,1-5.47-5.47v-5.47a5.47,5.47,0,0,1,5.47-5.47H89.68a5.47,5.47,0,0,1,5.47,5.47v5.47Zm43.79,0a5.47,5.47,0,0,1-5.47,5.47H122.53a5.47,5.47,0,0,1-5.47-5.47v-5.47a5.47,5.47,0,0,1,5.47-5.47h10.95a5.47,5.47,0,0,1,5.47,5.47v5.47Zm43.79,0a5.47,5.47,0,0,1-5.47,5.47H166.32a5.47,5.47,0,0,1-5.47-5.47v-5.47a5.47,5.47,0,0,1,5.47-5.47h10.95a5.47,5.47,0,0,1,5.47,5.47v5.47Zm16.42-235.36V328H56.84V114.53H199.16Z"/><path d="M304,399.16H464a16,16,0,0,0,16-16v-24h8a8,8,0,0,0,8-8v-32a8,8,0,0,0-8-8h-8v-24a16,16,0,0,0-16-16H304a16,16,0,0,0-16,16v96A16,16,0,0,0,304,399.16Zm8-104H456s0,80,0,80H312v-80Z"/><path d="M440,311.15H328v48H440v-48Zm-42.46,19.08-17.23,24.62h-7.38l8.62-14.77H368l17.23-24.62H400l-12.31,14.77h9.85Z"/><path d="M504,375.15h-8v8a32,32,0,0,1-32,32H304a32,32,0,0,1-32-32v-8H239.95c-7.25,13.16-23.9,29.4-48.68,34.23-20.67,4-51.89,5.77-63.25,5.77h0c-11.38,0-42.6-1.74-63.27-5.77-24.78-4.83-41.43-21.07-48.68-34.23H8a8,8,0,0,0-8,8v64a16,16,0,0,0,16,16H496a16,16,0,0,0,16-16v-64A8,8,0,0,0,504,375.15Z"/></svg>