<svg id="Enterprise" xmlns="http://www.w3.org/2000/svg" viewBox="0 0 512 512"><title>Icon Library 28 copy</title><path d="M464,208a48,48,0,0,0-45.26,32H366.86a112,112,0,0,0-221.71,0H93.26a48,48,0,1,0,0,32h51.88a112,112,0,0,0,221.71,0h51.88A48,48,0,1,0,464,208ZM48,272H75.71a32,32,0,1,1,0-32H48A16,16,0,1,0,48,272Zm200,40H200a40,40,0,0,1-40-40V240a40,40,0,0,1,40-40h32l-16,16H200a24,24,0,0,0-24,24v32a24,24,0,0,0,24,24h48a24,24,0,0,0,24-24V232h16v40A40,40,0,0,1,248,312Zm104-40a40,40,0,0,1-40,40H280l16-16h16a24,24,0,0,0,24-24V240a24,24,0,0,0-24-24H264a24,24,0,0,0-24,24v40H224V240a40,40,0,0,1,40-40h48a40,40,0,0,1,40,40v32Zm112,16a32,32,0,0,1-27.71-16H464a16,16,0,0,0,0-32H436.29A32,32,0,1,1,464,288Z"/></svg>