<svg id="Enterprise" xmlns="http://www.w3.org/2000/svg" viewBox="0 0 512 512"><title>Icon Library 30 copy</title><path d="M260.69,244H165.84a16,16,0,1,0,0,16H267.31l32-32H418.16a16,16,0,1,0,0-16H292.69Z"/><circle cx="120" cy="348" r="16"/><circle cx="392" cy="180" r="16"/><circle cx="360" cy="316" r="16"/><circle cx="168" cy="116" r="16"/><circle cx="224" cy="156" r="16"/><path d="M64.1,228a16,16,0,0,0,15.42-20.21L91.31,196H242.16a16,16,0,1,0,0-16H84.69L68.15,196.54A16,16,0,1,0,64.1,228Z"/><path d="M328,276a15.95,15.95,0,0,0-15.44,20.13L300.69,308H269.84a16,16,0,1,0,0,16h37.47l16.56-16.56A16,16,0,1,0,328,276Z"/><path d="M112,164a16,16,0,0,0,13.84-8h62l32-32h30.84a16,16,0,1,0,0-16H213.18l-32,32H125.84A16,16,0,1,0,112,164Z"/><path d="M210.16,212H125.84a16,16,0,1,0,0,16h84.32A16,16,0,1,0,210.16,212Z"/><path d="M208,316a16,16,0,0,0-13.84,8H171.31l-3.87-3.87a16.07,16.07,0,1,0-11.31,11.31l8.56,8.56h29.47A16,16,0,1,0,208,316Z"/><rect x="72" y="268.01" width="32" height="32"/><path d="M120,306.86V300h8v-8h-8V276h8v-8h-8v-6.85a9.14,9.14,0,0,0-9.14-9.14H104v-8H96v8H80v-8H72v8H65.14A9.14,9.14,0,0,0,56,261.15V268H48v8h8v16H48v8h8v6.85A9.14,9.14,0,0,0,65.14,316H72v8h8v-8H96v8h8v-8h6.86A9.14,9.14,0,0,0,120,306.86ZM64,308V260h48v48H64Z"/><rect x="408" y="268.01" width="32" height="32"/><path d="M440,252v-8h-8v8H416v-8h-8v8h-6.86a9.14,9.14,0,0,0-9.14,9.14V268h-8v8h8v16h-8v8h8v6.85a9.14,9.14,0,0,0,9.14,9.14H408v8h8v-8h16v8h8v-8h6.86a9.14,9.14,0,0,0,9.14-9.14V300h8v-8h-8V276h8v-8h-8v-6.85a9.14,9.14,0,0,0-9.14-9.14H440Zm8,56H400V260h48v48Z"/><rect x="304" y="140.01" width="32" height="32"/><path d="M280,148h8v16h-8v8h8v6.85a9.14,9.14,0,0,0,9.14,9.14H304v8h8v-8h16v8h8v-8h6.86a9.14,9.14,0,0,0,9.14-9.14V172h8v-8h-8V148h8v-8h-8v-6.85a9.14,9.14,0,0,0-9.14-9.14H336v-8h-8v8H312v-8h-8v8h-6.86a9.14,9.14,0,0,0-9.14,9.14V140h-8v8Zm16-16h48v48H296V132Z"/><path d="M184,300a16,16,0,0,0,13.84-8h85.47l32-32h30.85a16.07,16.07,0,1,0,0-16H308.68l-32,32H197.84A16,16,0,1,0,184,300Z"/><path d="M423.69,128.1C364.17,74.65,297.22,44,240,44,187.71,44,129.17,61.38,83.41,90.5,29.62,124.73,0,170.72,0,220v40c0,32.69,6.49,78.48,37.4,111a107.34,107.34,0,0,0,39.28,26.34L112,468h64l121.29-91c15.75-3,31.25-5,46.72-5H448c17.56,0,34.66-9.7,46.9-26.62A92.93,92.93,0,0,0,512,292V268C512,231.18,477.34,176.27,423.69,128.1ZM480,292c0,24.22-15.85,48-32,48H344c-34,0-67.47,8.38-99.88,16.48C212.19,364.46,182,372,152,372H112c-8.88,0-31.66-2.24-51.4-23C41.89,329.29,32,298.52,32,260V220c0-51.21,43-86.2,68.59-102.5C140.81,91.9,194.23,76,240,76c49.43,0,108.59,27.67,162.31,75.9C453.31,197.71,480,245,480,268v24Z"/></svg>