<svg id="Devices_Accessories" data-name="Devices &amp; Accessories" xmlns="http://www.w3.org/2000/svg" viewBox="0 0 512 512"><title>Icon Library 30 copy</title><path d="M400,48c-6.56-16.22-27.56-36.46-56-42-27.26-5.31-71.06-6-88-6H256c-16.92,0-60.71.69-88,6-28.44,5.54-48.12,26.24-56,42-8,16-8,33.69-8,48V408c0,14.31,0,40,8,56,7.88,15.76,27.56,34.46,56,40,27.26,5.31,71.06,8,88,8H256c16.92,0,60.71-2.69,88-8,28.44-5.54,48.12-24.24,56-40,8-16,8-41.69,8-56V96C408,81.69,407.53,66.63,400,48Zm-8,360c0,11.76,0,36.22-6.31,48.84S363.15,484,340.94,488.3c-26,5.06-69.08,7.7-84.91,7.7h0c-15.86,0-59-2.65-84.94-7.7-22.21-4.33-38.48-18.91-44.75-31.45S120,419.76,120,408V96c0-13.23,0-28.22,6.31-40.84C131.4,45,146.55,26.48,171.06,21.7c21.58-4.21,58-5.7,84.91-5.7s63.38,1.5,85,5.7c24.65,4.8,40.21,22.36,44.23,32.29C391.49,69.63,392,82.27,392,96V408Z"/><path d="M337.88,37.41C317.41,33.42,282.15,32,256,32c-25,0-61.36,1.42-81.85,5.41-18.45,3.59-30,17.86-33.5,24.9C136,71.55,136,84,136,96V408c0,8,0,32.45,4.62,41.69,3.14,6.28,14.18,19.14,33.5,22.9,24.6,4.79,67,7.41,81.88,7.41h0c14.88,0,57.25-2.61,81.85-7.41,19.32-3.76,30.36-16.63,33.5-22.9C376,440.45,376,416,376,408V96c0-12.46-.42-23-5.67-36C368.43,55.28,357.2,41.17,337.88,37.41ZM216,72a8,8,0,0,1,8-8h64a8,8,0,0,1,8,8h0a8,8,0,0,1-8,8H224a8,8,0,0,1-8-8h0Zm-8,368a8,8,0,0,1-8,8H184a8,8,0,0,1-8-8v-8a8,8,0,0,1,8-8h16a8,8,0,0,1,8,8v8Zm64,0a8,8,0,0,1-8,8H248a8,8,0,0,1-8-8v-8a8,8,0,0,1,8-8h16a8,8,0,0,1,8,8v8Zm64,0a8,8,0,0,1-8,8H312a8,8,0,0,1-8-8v-8a8,8,0,0,1,8-8h16a8,8,0,0,1,8,8v8Zm24-32H152V96H360V408Z"/></svg>