<svg id="Devices_Accessories" data-name="Devices &amp; Accessories" xmlns="http://www.w3.org/2000/svg" viewBox="0 0 512 512"><title>Icon Library 30 copy</title><path d="M353.46,54.86c-2.1-2-9.28-6.2-33.79-12.56-4.92-1.28-41-2.25-63.69-2.36-22.64.11-58.73,1.08-63.65,2.36-24.51,6.36-31.69,10.6-33.79,12.56-5.77,5.38-6.35,8.69-6.44,11.37-0.23,8.3-.23,358.64,0,363.94,0.27,4.21,1.92,12,4.58,15.16,4.7,5.61,18,12.76,27,15.67,7,2.24,42.88,3,71.53,3h1.51c28.65,0,64.57-.8,71.53-3,9-2.91,22.33-10.06,27-15.67,2.66-3.17,4.31-10.95,4.58-15.2,0.22-5.25.22-355.6,0-363.91C359.8,63.55,359.22,60.24,353.46,54.86ZM352,408H160V88H352V408Z"/><path d="M384,192V104l-0.34-33.38s0.8-13.18-1.61-24.41S374,31.84,370,28.84s-15.94-9.27-24-13.18S319.79,5.08,318.45,4.56s-5-1.18-13.66-2.22S256,0,256,0,215.92,1.3,207.21,2.34,194.89,4,193.55,4.56,174,11.74,166,15.65s-20,10.18-24,13.18S132.36,35,129.95,46.2s-1.61,24.41-1.61,24.41L128,104v88l8,8V360l-8,8v32c0,8,1.41,39.65,2.21,46s3.62,23,17.14,34.07,16.2,12.66,29.06,19.71,13.93,7.7,30.66,9.66S250.63,512,256,512s32.31-.56,48.92-2.51,17.81-2.61,30.66-9.66,15.53-8.62,29.06-19.71S381,452.44,381.79,446,384,408,384,400V368l-8-8V200ZM367.79,430.64c-0.29,4.54-2,14.52-6.41,19.76-6.44,7.69-22.11,15.35-30.67,18.12-9.58,3.09-54.91,3.42-74,3.42h-1.51c-19,0-64.37-.33-74-3.42-8.56-2.76-24.23-10.43-30.67-18.12-4.4-5.25-6.12-15.23-6.41-19.76-0.34-5.33-.09-362.31,0-364.68,0.21-6.17,2.89-11.22,8.95-16.88,4.77-4.45,16.94-9.17,37.2-14.43,7.41-1.92,54.4-2.56,65.63-2.61s58.26,0.69,65.67,2.61c20.26,5.26,32.43,10,37.2,14.43,6.06,5.65,8.73,10.7,8.95,16.88C367.88,68.33,368.13,425.32,367.79,430.64Z"/></svg>