<svg id="Enterprise" xmlns="http://www.w3.org/2000/svg" viewBox="0 0 512 512"><title>Icon Library 30 copy</title><path d="M499.39,220L410,92.25A32.65,32.65,0,0,0,384.46,80H0V432H384.46A32.65,32.65,0,0,0,410,419.75l89.44-127.8A57.55,57.55,0,0,0,499.39,220ZM360,283a58.08,58.08,0,0,1-10.69,33.36C341.66,326.94,331,333,320,333H255a154.66,154.66,0,0,0-29.2,3.15L152,392H112L87.92,348.85a67.08,67.08,0,0,1-24.55-16.46C44.06,312.05,40,283.43,40,263V238c0-30.8,18.51-59.54,52.13-80.94C120.73,138.86,157.32,128,190,128c35.76,0,77.61,19.16,114.81,52.56C338.33,210.67,360,245,360,268v15Zm72,5a32,32,0,1,1,32-32A32,32,0,0,1,432,288Z"/><path d="M255,183H225v30h30V183Zm-5,25H230V188h20v20Z"/><path d="M110,263H80v30h30V263Zm-5,25H85V268h20v20Z"/><path d="M290,293h30V263H290v30Zm5-25h20v20H295V268Z"/><path d="M291.44,195.44C257.87,165.29,220.89,148,190,148c-28.6,0-62,9.94-87.13,25.94C86.86,184.12,60,206,60,238v25c0,24.07,6.18,43.3,17.87,55.61A44.68,44.68,0,0,0,110,333h25c18.77,0,37.62-4.71,57.57-9.7C212.83,318.24,233.77,313,255,313h65c10.09,0,20-14.86,20-30V268C340,253.61,323.32,224.07,291.44,195.44ZM285,203a10,10,0,1,1-10,10A10,10,0,0,1,285,203Zm-65-19.28a5.72,5.72,0,0,1,5.72-5.72H230v-5h5v5h10v-5h5v5h4.28a5.72,5.72,0,0,1,5.72,5.72V188h5v5h-5v10h5v5h-5v4.29a5.72,5.72,0,0,1-5.72,5.72H250v5h-5v-5H235v5h-5v-5h-4.28a5.72,5.72,0,0,1-5.72-5.72V208h-5v-5h5V193h-5v-5h5v-4.28ZM145,163a10,10,0,1,1-10,10A10,10,0,0,1,145,163Zm-35,20a10,10,0,0,1,8.65,5h34.59l20-20h23.42a10,10,0,1,1,0,10H177.38l-20,20H118.65A10,10,0,1,1,110,183Zm80,15a10,10,0,1,1-10-10A10,10,0,0,1,190,198ZM80.06,223a10,10,0,0,1,2.53.34L92.93,213h98.42a10,10,0,1,1,0,10H97.07l-7.37,7.37A10,10,0,1,1,80.06,223ZM190,238a10,10,0,0,1-18.65,5h-52.7a10,10,0,1,1,0-10h52.7A10,10,0,0,1,190,238Zm-85,65h-5v-5H90v5H85v-5H80.72A5.72,5.72,0,0,1,75,292.29V288H70v-5h5V273H70v-5h5v-4.28A5.72,5.72,0,0,1,80.72,258H85v-5h5v5h10v-5h5v5h4.28a5.72,5.72,0,0,1,5.72,5.72V268h5v5h-5v10h5v5h-5v4.29a5.72,5.72,0,0,1-5.72,5.72H105v5Zm10,25a10,10,0,1,1,10-10A10,10,0,0,1,115,328Zm55-10a10,10,0,0,1-8.65-5H142.93l-5.35-5.35a10,10,0,1,1,7.07-7.07l2.42,2.42h14.28A10,10,0,1,1,170,318Zm-25-40a10,10,0,0,1,18.65-5h49.28l20-20h23.42a10,10,0,1,1,0,10H237.07l-20,20H163.65A10,10,0,0,1,145,278Zm100,15a10,10,0,0,1-2.58-.35L232.07,303H208.65a10,10,0,1,1,0-10h19.28l7.42-7.42A10,10,0,1,1,245,293Zm20,15a10,10,0,1,1,10-10A10,10,0,0,1,265,308Zm60-44.28V268h5v5h-5v10h5v5h-5v4.29a5.72,5.72,0,0,1-5.72,5.72H315v5h-5v-5H300v5h-5v-5h-4.28a5.72,5.72,0,0,1-5.72-5.72V288h-5v-5h5V273h-5v-5h5v-4.28a5.71,5.71,0,0,1,5.72-5.72H295v-5h5v5h10v-5h5v5h4.28A5.71,5.71,0,0,1,325,263.72ZM310,228a10,10,0,1,1-8.65,15H227.07l-20,20H143.65a10,10,0,1,1,0-10h59.28l20-20h78.42A10,10,0,0,1,310,228Z"/></svg>