<svg id="Devices_Accessories" data-name="Devices &amp; Accessories" xmlns="http://www.w3.org/2000/svg" viewBox="0 0 512 512"><title>Icon Library 30 copy</title><path d="M336,0H176a64,64,0,0,0-64,64V448a64,64,0,0,0,64,64H336a64,64,0,0,0,64-64V64A64,64,0,0,0,336,0ZM216,40a8,8,0,0,1,8-8h64a8,8,0,0,1,8,8h0a8,8,0,0,1-8,8H224a8,8,0,0,1-8-8h0ZM184,480H168a8,8,0,0,1,0-16h16A8,8,0,1,1,184,480Zm80,0H248a8,8,0,0,1,0-16h16A8,8,0,0,1,264,480Zm80,0H328a8,8,0,0,1,0-16h16A8,8,0,0,1,344,480Zm40-32H128V64H384V448Z"/></svg>