<svg id="Devices_Accessories" data-name="Devices &amp; Accessories" xmlns="http://www.w3.org/2000/svg" viewBox="0 0 512 512"><title>Icon Library 30 copy</title><path d="M416,0a46.12,46.12,0,0,0-45.66,39.6L360,112H344V80H312V48H296V80H280V48H264V80H248V48H232V80H216V48H200V80H168v32H152L141.66,39.6A46.12,46.12,0,0,0,96,0V480a32.09,32.09,0,0,0,32,32H384a32.09,32.09,0,0,0,32-32V0h0ZM192,480H128V416h64v64Zm0-96H128V352h64v32Zm0-64H128V288h64v32Zm0-64H128V224h64v32Zm96,192H224V416h64v32Zm0-64H224V352h64v32Zm0-64H224V288h64v32Zm0-64H224V224h64v32Zm96,224H320V416h64v64Zm0-96H320V352h64v32Zm0-64H320V288h64v32Zm0-64H320V224h64v32Zm0-64H128V144H384v48Z"/></svg>