<svg id="Devices_Accessories" data-name="Devices &amp; Accessories" xmlns="http://www.w3.org/2000/svg" viewBox="0 0 512 512"><title>Icon Library 30 copy</title><path d="M416,0a46.12,46.12,0,0,0-45.66,39.6L360,128H344V96H312V64H296V96H280V64H264V96H248V64H232V96H216V64H200V96H168v32H152L141.66,39.6A46.12,46.12,0,0,0,96,0V480a32.09,32.09,0,0,0,32,32H384a32.09,32.09,0,0,0,32-32V0h0ZM331.73,284.23H322v1.49c0,45.12-58.48,45.18-58.48,73.09v40.27a24.89,24.89,0,0,1,18.46,24,25.2,25.2,0,0,1-50.4,0,24.71,24.71,0,0,1,18.08-24v-5.41c0-26-58.36-35.24-58.36-82v-6.77a18.43,18.43,0,0,1-11.06-16.66,17.9,17.9,0,1,1,24.86,16.66v7.89c0,24.3,27.35,37.17,44.56,53.45V234.82H233.78L256.71,192l22.62,42.82H263.55v96.71c17.09-14.17,44.62-22.25,44.62-45.37v-1.93h-9.94V250.55h33.5v33.69Z"/></svg>