<svg id="Devices_Accessories" data-name="Devices &amp; Accessories" xmlns="http://www.w3.org/2000/svg" viewBox="0 0 512 512"><title>Icon Library 30 copy</title><path d="M344,64V32H312V0H296V32H280V0H264V32H248V0H232V32H216V0H200V32H168V64H96V480a32.09,32.09,0,0,0,32,32H384a32.09,32.09,0,0,0,32-32V64H344ZM192,352H128V288h64v64Zm0-96H128V192h64v64Zm0-96H128V96h64v64Zm96,288H224V384h64v64Zm0-96H224V288h64v64Zm0-96H224V192h64v64Zm0-96H224V96h64v64Zm96,192H320V288h64v64Zm0-96H320V192h64v64Zm0-96H320V96h64v64Z"/></svg>