<svg id="Devices_Accessories" data-name="Devices &amp; Accessories" xmlns="http://www.w3.org/2000/svg" viewBox="0 0 512 512"><title>Icon Library 30 copy</title><path d="M416,0a46.12,46.12,0,0,0-45.66,39.6L360,144H344V112H312V80H296v32H280V80H264v32H248V80H232v32H216V80H200v32H168v32H152L141.66,39.6A46.12,46.12,0,0,0,96,0V200c0,66,54,120,120,120h24v56H221.7A13.7,13.7,0,0,0,208,389.7V464h16v48h64V464h16V389.7A13.7,13.7,0,0,0,290.3,376H272V320h24c66,0,120-54,120-120V0h0ZM293.87,214.12H289v0.75c0,22.56-29.24,22.59-29.24,36.55v20.14a12.45,12.45,0,0,1,9.23,12,12.6,12.6,0,0,1-25.2,0,12.35,12.35,0,0,1,9-12v-2.7c0-13-29.18-17.62-29.18-41v-3.39a9.21,9.21,0,0,1-5.53-8.33,8.95,8.95,0,1,1,12.43,8.33v3.95c0,12.15,13.67,18.58,22.28,26.72V189.41h-8L256.36,168l11.31,21.41h-7.89v48.35c8.55-7.08,22.31-11.12,22.31-22.68v-1h-5V197.27h16.75v16.84Z"/></svg>