<svg id="Enterprise" xmlns="http://www.w3.org/2000/svg" viewBox="0 0 512 512"><title>solutions</title><path d="M168,507.87A32.48,32.48,0,0,0,156.13,483a56,56,0,1,1,71.37.31A32.1,32.1,0,0,0,216,508.17a3.83,3.83,0,0,0,3.83,3.83H384V347.83a3.81,3.81,0,0,1,3.78-3.83,32.1,32.1,0,0,1,24.92,11.5,56,56,0,1,0,.31-71.37A32.47,32.47,0,0,1,388,296a4.1,4.1,0,0,1-4-4.13V128H219.83a3.83,3.83,0,0,1-3.83-3.83A32.1,32.1,0,0,1,227.5,99.3,56,56,0,1,0,156.13,99,32.48,32.48,0,0,1,168,123.87a4.13,4.13,0,0,1-4.13,4.13H0V296H4.13A32.48,32.48,0,0,0,29,284.13a56,56,0,1,1-.31,71.37A32.1,32.1,0,0,0,3.83,344H0V512H163.87A4.13,4.13,0,0,0,168,507.87Z"/></svg>