<svg id="Enterprise" xmlns="http://www.w3.org/2000/svg" viewBox="0 0 512 512"><title>Icon Library 28 copy</title><path d="M136,64H376v62.35l16-3.27V64A64,64,0,0,0,328,0H184a64,64,0,0,0-64,64v59.07l16,3.27V64Zm88-32h64a8,8,0,0,1,0,16H224A8,8,0,0,1,224,32Z"/><path d="M376,448H136V385.65l-16,3.27V448a64,64,0,0,0,64,64H328a64,64,0,0,0,64-64V388.93l-16-3.27V448ZM184,480H168a8,8,0,0,1,0-16h16A8,8,0,0,1,184,480Zm80,0H248a8,8,0,0,1,0-16h16A8,8,0,0,1,264,480Zm80,0H328a8,8,0,0,1,0-16h16A8,8,0,0,1,344,480Z"/><path d="M120.08,372.58l56.07-11.47a131.86,131.86,0,0,0,28.77,16.64L223,432h66l18.08-54.25a131.83,131.83,0,0,0,28.77-16.64l56.07,11.47,33-57.16-38-42.81a133.48,133.48,0,0,0,0-33.23l38-42.81-33-57.16-56.07,11.47a131.8,131.8,0,0,0-28.77-16.64L289,80H223l-18.08,54.25a131.81,131.81,0,0,0-28.77,16.64l-56.07-11.47-33,57.16,38,42.81a133.48,133.48,0,0,0,0,33.23l-38,42.81Zm47.38-121.12a25.46,25.46,0,0,1,36,0L232,280V176a24,24,0,0,1,48,0V280l28.54-28.54a25.46,25.46,0,0,1,36,36L292,340l-36,36-88.54-88.54A25.46,25.46,0,0,1,167.46,251.46Z"/></svg>