<svg id="General_actions" data-name="General actions" xmlns="http://www.w3.org/2000/svg" viewBox="0 0 512 512"><title>Icon Library 30 copy</title><path d="M256,89.35l39.94,104.11,7.28,19,20.27,1.48,110.18,8L347.8,297.61l-14.42,12.71,4.45,18.7,26.61,111.92-90.85-59.77L256,369.61l-17.59,11.57-90.85,59.77L174.17,329l4.45-18.7L164.2,297.61,78.33,221.94l110.18-8,20.27-1.48,7.28-19L256,89.35M256,0L186.19,182,0,195.57,143,321.62,97.78,512,256,407.91,414.22,512,369,321.62,512,195.57,325.81,182,256,0h0Z"/></svg>