<svg id="Enterprise" xmlns="http://www.w3.org/2000/svg" viewBox="0 0 512 512"><title>Icon Library 30 copy</title><path d="M96,512c76.77,0,76.15-53.43,79.23-128H16C19.39,458.57,20.32,512,96,512Z"/><path d="M96,96C43,96,0,150,0,256c0,32,16.11,64,16.11,96H175.93c0-32,16.07-64,16.07-96C192,150,149,96,96,96Z"/><path d="M416,416c76.77,0,76.15-53.43,79.23-128H336C339.39,362.57,340.32,416,416,416Z"/><path d="M416,0c-53,0-96,54-96,160,0,32,16.11,64,16.11,96H495.93c0-32,16.07-64,16.07-96C512,54,469,0,416,0Z"/></svg>