<svg id="General_actions" data-name="General actions" xmlns="http://www.w3.org/2000/svg" viewBox="0 0 512 512"><title>Icon Library 30 copy</title><polygon points="384 336 288 336 288 432 384 432 384 480 480 384 384 288 384 336"/><polygon points="128 176 224 176 224 80 128 80 128 32 32 128 128 224 128 176"/><path d="M384,160c-96,0-128,25.31-128,96H512C512,185.31,480,160,384,160Z"/><circle cx="384" cy="64" r="64"/><path d="M128,416C32,416,0,441.31,0,512H256C256,441.31,224,416,128,416Z"/><circle cx="128" cy="320" r="64"/></svg>