<svg id="Communication" xmlns="http://www.w3.org/2000/svg" viewBox="0 0 512 512"><defs><style>.cls-1{fill:none;}</style></defs><title>Icon Library 26 copy</title><path d="M505,239A24,24,0,0,0,471,239l-23.15,23.15A192,192,0,0,0,150.35,95.64a24,24,0,1,0,26.45,40.06,144.06,144.06,0,0,1,181,18.47,142.65,142.65,0,0,1,42.06,107.76L377,239A24,24,0,0,0,343,273l81,81,81-81A24,24,0,0,0,505,239Z"/><path d="M335.21,376.3a144.06,144.06,0,0,1-181-18.48,142.65,142.65,0,0,1-42.06-107.76L135,273A24,24,0,0,0,169,239l-81-81L7,239A24,24,0,0,0,41,273l23.15-23.15A192,192,0,0,0,237.6,447.12q9.13,0.87,18.27.87a192.42,192.42,0,0,0,105.78-31.64A24,24,0,1,0,335.21,376.3Z"/><circle class="cls-1" cx="256" cy="256" r="256"/></svg>