<svg id="Enterprise" xmlns="http://www.w3.org/2000/svg" viewBox="0 0 512 512"><title>Icon Library 28 copy</title><path d="M96,224a32,32,0,1,1-32,32A32,32,0,0,1,96,224Zm160-96a32,32,0,1,0-32-32A32,32,0,0,0,256,128ZM32,0H480a32.09,32.09,0,0,1,32,32V320a32.09,32.09,0,0,1-32,32H224L64,480,96,352H32A32,32,0,0,1,0,320V32A32.09,32.09,0,0,1,32,0ZM96,48a48,48,0,1,0,48,48A48,48,0,0,0,96,48Zm320,0a48,48,0,1,0,48,48A48,48,0,0,0,416,48ZM256,304a48,48,0,1,0-48-48A48,48,0,0,0,256,304ZM96,320a64,64,0,0,0,55.13-96.5l72.37-72.37a64,64,0,0,0,65,0l72.37,72.37a64,64,0,1,0,22.63-22.63L311.13,128.5a64,64,0,1,0-110.26,0L128.5,200.87A64,64,0,1,0,96,320Zm288-64a32,32,0,1,0,32-32A32,32,0,0,0,384,256Z"/></svg>