<svg id="Enterprise" xmlns="http://www.w3.org/2000/svg" viewBox="0 0 512 512"><title>Icon Library 30 copy</title><path d="M452.39,268.42a97.09,97.09,0,0,0,0-24.17L480,213.12l-24-41.57-40.78,8.34a95.86,95.86,0,0,0-20.92-12.1l-13.15-39.46h-48L320,167.79a95.87,95.87,0,0,0-20.92,12.1l-40.78-8.34-24,41.57,27.61,31.13a97.09,97.09,0,0,0,0,24.17L234.3,299.55l24,41.57,40.78-8.34A95.89,95.89,0,0,0,320,344.88l13.15,39.46h48l13.15-39.46a95.87,95.87,0,0,0,20.92-12.1L456,341.12l24-41.57Zm-95.25,35.92a48,48,0,1,1,48-48A48,48,0,0,1,357.15,304.33Z"/><path d="M160,368V48a48,48,0,0,0-96,0V368A80,80,0,1,0,160,368ZM112,496A64,64,0,0,1,80,376.57V48a32,32,0,0,1,64,0V376.57A64,64,0,0,1,112,496Z"/><path d="M128,386.74V224a16,16,0,0,0-32,0V386.74A48,48,0,1,0,128,386.74Z"/></svg>