<svg id="Enterprise" xmlns="http://www.w3.org/2000/svg" viewBox="0 0 512 512"><title>Icon Library 30 copy</title><path d="M407.94,240c-19.3-2.13-32,13.13-32,32V240.84c0-16.43-12-30.84-28.36-32.64A32,32,0,0,0,311.94,240V208.84c0-16.43-12-30.84-28.36-32.64A32,32,0,0,0,247.94,208V32c0-16-16-32-32-32s-32,16-32,32V288s-74.7-93-107.19-39.26c-9.35,15.48-4.53,38.4,12.56,55.26C153,366.79,200.41,498.91,247,508.31c37.66,7.6,85.3,1.7,98-2.09,36.43-10.9,95-60.6,95-170.6V274.07C439.94,257.65,424.27,241.8,407.94,240Z"/></svg>