<svg id="Enterprise" xmlns="http://www.w3.org/2000/svg" viewBox="0 0 512 512"><title>Icon Library 30 copy</title><path d="M328,384c-9.65-1.06-16,6.56-16,16V384.42a16.27,16.27,0,0,0-14.18-16.32A16,16,0,0,0,280,384V368.42a16.27,16.27,0,0,0-14.18-16.32A16,16,0,0,0,248,368V288c0-8-8-16-16-16s-16,8-16,16V408s-38.5-43.69-53.59-19.63c-4.81,7.66-2.26,19.2,6.28,27.63,31.82,31.39,55.55,89.45,78.85,94.16,18.83,3.8,42.65.85,49-1,18.21-5.45,47.48-22.3,47.48-77.3V401C344,392.82,336.16,384.9,328,384Z"/><path d="M264,336H368V32H144V336h56V288c0-16.75,15.25-32,32-32s32,15.25,32,32v48h0ZM160,48H352V80H160V48Zm0,144V96H352v96H160Z"/><path d="M384,0H128a16,16,0,0,0-16,16V352a16,16,0,0,0,16,16h72V352H128V16H384V352H299.56s-1.17.07,0,.2A31.77,31.77,0,0,1,323.63,368H384a16,16,0,0,0,16-16V16A16,16,0,0,0,384,0Z"/></svg>