<svg id="Devices_Accessories" data-name="Devices &amp; Accessories" xmlns="http://www.w3.org/2000/svg" viewBox="0 0 512 512"><title>Icon Library 30 copy</title><path d="M512.87,389.7a13.7,13.7,0,0,0-13.7-13.7h-18.3V344a64.07,64.07,0,0,0-64-64h-48V112a64,64,0,0,0-128,0v48a80,80,0,0,1-160,0V126a64,64,0,0,0,48-62,16,16,0,0,0-16-16h-16V8a8,8,0,0,0-16,0V48L47.13,49.69v-40a8,8,0,0,0-16,0v40h-16a16,16,0,0,0-16,16,64,64,0,0,0,48,62v34c0,61.76,52,110.31,113.73,110.31a112.13,112.13,0,0,0,112-112V112a32,32,0,0,1,64,0V280h-48a64.07,64.07,0,0,0-64,64v32h-18.3a13.7,13.7,0,0,0-13.7,13.7V464h16v48h64V464h16V389.7a13.7,13.7,0,0,0-13.7-13.7h-18.3V344a32,32,0,0,1,32-32h48v64h-18.3a13.7,13.7,0,0,0-13.7,13.7V464h16v48h64V464h16V389.7a13.7,13.7,0,0,0-13.7-13.7h-18.3V312h48a32,32,0,0,1,32,32v32h-18.3a13.7,13.7,0,0,0-13.7,13.7V464h16v48h64V464h16V389.7Z"/></svg>