<svg id="Communication" xmlns="http://www.w3.org/2000/svg" viewBox="0 0 512 512"><title>Icon Library 26 copy</title><path d="M407.46,117.09h-67v67.37h19.89v3.85c0,46.24-55.06,62.4-89.25,90.74V85.64h31.57L257.43,0,211.56,85.64h31.82V348.42c-34.43-32.57-89.12-58.3-89.12-106.9V225.73a36.23,36.23,0,0,0,21.88-33.31c0-19.27-15.54-35.8-35.43-35.8a36,36,0,0,0-36.17,35.8c0,14.79,9.2,27.47,22.12,33.31v13.55c0,93.6,116.72,112.12,116.72,164.08v10.81a49.41,49.41,0,0,0-36.17,48c0,27.59,22.62,49.85,50.22,49.85S308,489.75,308,462.15a49.78,49.78,0,0,0-36.92-48V333.63c0-55.81,117-55.94,117-146.18v-3h19.39V117.09Z"/></svg>