<svg id="Enterprise" xmlns="http://www.w3.org/2000/svg" viewBox="0 0 512 512"><defs><style>.cls-1{fill-rule:evenodd;}</style></defs><title>Icon Library 26 copy</title><rect x="240" y="384" width="32" height="128"/><rect x="288" y="448" width="32" height="64"/><rect x="336" y="448" width="32" height="64"/><rect x="384" y="448" width="32" height="64"/><rect x="432" y="448" width="32" height="64"/><rect x="480" y="384" width="32" height="128"/><rect x="192" y="448" width="32" height="64"/><rect x="144" y="448" width="32" height="64"/><rect x="96" y="448" width="32" height="64"/><rect x="48" y="448" width="32" height="64"/><rect y="384" width="32" height="128"/><path class="cls-1" d="M256,320c144,0,256-160,256-160S400,0,256,0,0,160,0,160,112,320,256,320Zm0-288A128,128,0,1,1,128,160,128,128,0,0,1,256,32Z"/><circle cx="256" cy="160" r="80"/></svg>