<svg id="Communication" xmlns="http://www.w3.org/2000/svg" viewBox="0 0 512 512"><title>Icon Library 30 copy</title><path d="M505.12,376.65l-48.18-48.18A23.49,23.49,0,0,0,426.65,326l-62.2,44.58a23.49,23.49,0,0,0-10,16.72l-7.12,47.5c-24.62,8.21-49.25,16.41-89.9,16.6H256c-41.52,0-66.43-8.3-91.35-16.61l-7.12-47.5a23.49,23.49,0,0,0-10-16.72L85.35,326a23.49,23.49,0,0,0-30.29,2.48L6.88,376.65A23.51,23.51,0,0,0,7,410,353.74,353.74,0,0,0,251.85,512h0A353.86,353.86,0,0,0,505,410,23.51,23.51,0,0,0,505.12,376.65Z"/><path d="M256,39.22a254.14,254.14,0,0,1,180.27,74.67L464,86.16a294.16,294.16,0,0,0-416,0l27.73,27.73A254.14,254.14,0,0,1,256,39.22Z"/><path d="M408.53,141.62a215.72,215.72,0,0,0-305.07,0l27.73,27.73a176.49,176.49,0,0,1,249.6,0Z"/><path d="M353.07,197.09a137.27,137.27,0,0,0-194.13,0l27.73,27.73a98.05,98.05,0,0,1,138.67,0Z"/><path d="M214.4,252.56l41.6,41.6,41.6-41.6A58.83,58.83,0,0,0,214.4,252.56Z"/></svg>