<svg id="Communication" xmlns="http://www.w3.org/2000/svg" viewBox="0 0 512 512"><title>Icon Library 28 copy</title><path d="M256,123.25a312.78,312.78,0,0,1,221.87,91.9L512,181A362,362,0,0,0,0,181l34.13,34.13A312.78,312.78,0,0,1,256,123.25Z"/><path d="M256,219.8a216.54,216.54,0,0,1,153.6,63.62l34.13-34.13a265.5,265.5,0,0,0-375.47,0l34.13,34.13A216.54,216.54,0,0,1,256,219.8Z"/><path d="M256,316.34a120.3,120.3,0,0,1,85.33,35.35l34.13-34.13a169,169,0,0,0-238.93,0l34.13,34.13A120.3,120.3,0,0,1,256,316.34Z"/><path d="M307.2,385.82a72.41,72.41,0,0,0-102.4,0L256,437Z"/></svg>