<svg id="Devices_Accessories" data-name="Devices &amp; Accessories" xmlns="http://www.w3.org/2000/svg" viewBox="0 0 512 512"><title>wifi_router</title><path d="M383.74,323.58L445.85,216A16,16,0,0,0,440,194.15h0A16,16,0,0,0,418.14,200l-70,121.21c-15-.84-25.64-1.21-28.16-1.21H192c-2.53,0-13.13.37-28.16,1.21L93.86,200A16,16,0,0,0,72,194.15h0A16,16,0,0,0,66.15,216l62.11,107.58C72.26,327.95,0,336.69,0,352H0v17.76A15.93,15.93,0,0,0,12.9,385.3a64.08,64.08,0,0,1,49.8,49.8A15.93,15.93,0,0,0,78.24,448H433.76a15.93,15.93,0,0,0,15.54-12.9,64.08,64.08,0,0,1,49.8-49.8A15.93,15.93,0,0,0,512,369.76V352h0C512,336.69,439.74,327.95,383.74,323.58ZM104,432H88V400h16v32Zm32,0H120V400h16v32Zm32,0H152V400h16v32Zm32,0H184V400h16v32Zm32,0H216V400h16v32Zm32,0H248V400h16v32Zm32,0H280V400h16v32Zm32,0H312V400h16v32Zm32,0H344V400h16v32Zm-8-64a8,8,0,1,1,8-8A8,8,0,0,1,352,368Zm40,64H376V400h16v32Zm-8-64a8,8,0,1,1,8-8A8,8,0,0,1,384,368Zm40,64H408V400h16v32Zm-8-64a8,8,0,1,1,8-8A8,8,0,0,1,416,368Z"/><path d="M222.06,222.06L256,256l33.94-33.94A48,48,0,0,0,222.06,222.06Z"/><path d="M323.88,188.12a96,96,0,0,0-135.76,0l17,17a72,72,0,0,1,101.82,0Z"/><path d="M357.82,154.18a144,144,0,0,0-203.65,0l17,17a120,120,0,0,1,169.71,0Z"/><path d="M374.79,137.21l17-17c-75-75-196.55-75-271.53,0l17,17A168,168,0,0,1,374.79,137.21Z"/></svg>