<svg id="Hardware" xmlns="http://www.w3.org/2000/svg" viewBox="0 0 512 512"><title>Icon Library 26 copy</title><path d="M480,32H32A32,32,0,0,0,0,64V384a32,32,0,0,0,32,32H208v32H144v32H368V448H304V416H480a32,32,0,0,0,32-32V64A32,32,0,0,0,480,32Zm0,352H32V64H480V384Z"/><path d="M384,96q-69.39,9.61-138.7,20.09,0,51.1,0,102.24c46.26-.15,92.5-0.85,138.73-1Q384,156.64,384,96Z"/><path d="M232.66,218.68q0-50.31-.06-100.6c-34.92,4.36-69.83,9-104.6,14.33v86.68C162.89,219.18,197.78,218.65,232.66,218.68Z"/><path d="M232.58,230c-34.86.06-69.72-.5-104.58-0.38v86.91c34.89,4.71,69.78,9.21,104.6,14.36C232.66,297.29,232.58,263.66,232.58,230Z"/><path d="M384,352q0-60.53,0-121H245.06q0.09,50.75.21,101.45C291.53,338.69,337.8,345.1,384,352Z"/></svg>