<svg id="Enterprise" xmlns="http://www.w3.org/2000/svg" viewBox="0 0 512 512"><title>Icon Library 28 copy</title><path d="M278.83,324.6a32,32,0,0,1-45.66,0L211.5,337.11a8,8,0,0,1-8-13.86l21.67-12.51A32,32,0,0,1,248,271.19v-25a8,8,0,0,1,16,0v25a32,32,0,0,1,22.83,39.55l21.67,12.51a8,8,0,1,1-8,13.86ZM144,132A112,112,0,1,1,279.54,241.51a24,24,0,0,0-47.08,0A112,112,0,0,1,144,132Zm72-40a40,40,0,1,0,40-40A40,40,0,0,0,216,92Zm-30.65,77.56a80,80,0,0,0,141.3,0C315.56,152.26,293.66,148,256,148S196.44,152.26,185.35,169.56ZM220.1,350.62a112.09,112.09,0,1,1-22.27-42.57l-2.33,1.34a24,24,0,1,0,24,41.57ZM72,340a40,40,0,1,0,40-40A40,40,0,0,0,72,340Zm110.65,77.56C171.56,400.26,149.66,396,112,396s-59.56,4.26-70.65,21.56A80,80,0,0,0,182.65,417.56ZM512,380a112,112,0,1,1-220.1-29.38L292.5,351a24,24,0,1,0,24-41.57l-2.33-1.34A112,112,0,0,1,512,380ZM360,340a40,40,0,1,0,40-40A40,40,0,0,0,360,340Zm110.65,77.56C459.56,400.26,437.66,396,400,396s-59.56,4.26-70.65,21.56A80,80,0,0,0,470.65,417.56Z"/></svg>