<svg id="Project_based" data-name="Project based" xmlns="http://www.w3.org/2000/svg" viewBox="0 0 512 512"><title>Icon Library 30 copy</title><path d="M256,0C114.62,0,0,114.62,0,256S114.62,512,256,512,512,397.38,512,256,397.38,0,256,0ZM418.62,385.68a312.56,312.56,0,0,0-53.25-28A289.53,289.53,0,0,0,383.54,272h79.85A207,207,0,0,1,418.62,385.68ZM48.61,272h79.85a289.53,289.53,0,0,0,18.16,85.65,312.56,312.56,0,0,0-53.25,28A207,207,0,0,1,48.61,272ZM93.38,126.32a312.55,312.55,0,0,0,53.25,28A289.53,289.53,0,0,0,128.46,240H48.61A207,207,0,0,1,93.38,126.32ZM272,336.46V272h79.51a254.16,254.16,0,0,1-16.22,75.23A287.59,287.59,0,0,0,272,336.46Zm50,40.12a295.39,295.39,0,0,1-22.31,35.89A305.48,305.48,0,0,1,272,445.55V368.49A254.07,254.07,0,0,1,322,376.58ZM272,240V175.54a287.59,287.59,0,0,0,63.29-10.77A254.16,254.16,0,0,1,351.51,240H272Zm0-96.49V66.45a305.44,305.44,0,0,1,27.73,33.09A295.39,295.39,0,0,1,322,135.42,254.07,254.07,0,0,1,272,143.51Zm52.93-63.73c-7.23-9.91-14.45-18.68-21.25-26.28a207.49,207.49,0,0,1,92.75,49.07,277.84,277.84,0,0,1-43.81,22.59A320.47,320.47,0,0,0,324.93,79.78ZM176.71,347.23A254.16,254.16,0,0,1,160.49,272H240v64.46A287.59,287.59,0,0,0,176.71,347.23ZM240,368.49v77.07a305.48,305.48,0,0,1-27.73-33.09A295.39,295.39,0,0,1,190,376.58,254.07,254.07,0,0,1,240,368.49ZM160.49,240a254.16,254.16,0,0,1,16.22-75.23A287.59,287.59,0,0,0,240,175.54V240H160.49ZM190,135.42a295.39,295.39,0,0,1,22.31-35.89A305.44,305.44,0,0,1,240,66.45v77.07A254.07,254.07,0,0,1,190,135.42Zm-2.89-55.64a320.47,320.47,0,0,0-27.69,45.39,277.84,277.84,0,0,1-43.81-22.6A207.49,207.49,0,0,1,208.32,53.5C201.52,61.1,194.3,69.87,187.07,79.78ZM159.38,386.83a320.47,320.47,0,0,0,27.69,45.39c7.23,9.91,14.45,18.68,21.25,26.28a207.49,207.49,0,0,1-92.76-49.07A277.84,277.84,0,0,1,159.38,386.83Zm165.55,45.39a320.47,320.47,0,0,0,27.69-45.39,277.83,277.83,0,0,1,43.81,22.6,207.49,207.49,0,0,1-92.76,49.07C310.48,450.9,317.7,442.13,324.93,432.22ZM383.54,240a289.53,289.53,0,0,0-18.16-85.65,312.56,312.56,0,0,0,53.25-28A207,207,0,0,1,463.39,240H383.54Z"/></svg>