<svg id="Enterprise" xmlns="http://www.w3.org/2000/svg" viewBox="0 0 512 512"><title>Icon Library 29 copy</title><polygon points="416 256 512 352 512 160 416 256"/><polygon points="0 352 96 256 0 160 0 352"/><path d="M348.94,100.06a96.25,96.25,0,0,0-40.43-27.59Q284.87,64,255.87,64q-28.75,0-52.38,8.47a96.2,96.2,0,0,0-40.43,27.59Q146.26,119.19,137.13,150T128,225.2v60.32q0,44.41,9.27,75.34t26.19,50.31A98.3,98.3,0,0,0,204,439.27Q227.66,448,256.4,448q29,0,52.52-8.73a96.49,96.49,0,0,0,40.16-28.11q16.65-19.38,25.79-50.31T384,285.52V225.2q0-44.4-9.13-75.21T348.94,100.06ZM318.72,294.5q0,28.24-4,48t-12,32.09q-7.93,12.32-19.48,18T256.4,398.2a61.53,61.53,0,0,1-26.86-5.65q-11.82-5.64-19.88-18T197.31,342.5q-4.3-19.76-4.3-48V215.7q0-28.49,4.16-47.87t12.22-31.32q8.06-11.94,19.74-17.2t26.73-5.26q15,0,26.73,5.26t19.74,17.2q8.06,11.94,12.22,31.32t4.16,47.87v78.8Z"/></svg>