<svg id="General_actions" data-name="General actions" xmlns="http://www.w3.org/2000/svg" viewBox="0 0 512 512"><defs><style>.cls-1{fill-rule:evenodd;}</style></defs><title>Icon Library 30 copy</title><path class="cls-1" d="M502.67,457.41L376,330.7A207,207,0,0,0,416,208C416,93.13,322.88,0,208,0S0,93.13,0,208,93.13,416,208,416a207,207,0,0,0,122.7-40L457.41,502.67A32,32,0,0,0,502.67,457.41ZM208,368A160,160,0,1,1,368,208,160,160,0,0,1,208,368Z"/><path class="cls-1" d="M288,176H240V128a32,32,0,0,0-32-32h0a32,32,0,0,0-32,32v48H128a32,32,0,0,0-32,32h0a32,32,0,0,0,32,32h48v48a32,32,0,0,0,32,32h0a32,32,0,0,0,32-32V240h48a32,32,0,0,0,32-32h0A32,32,0,0,0,288,176Z"/></svg>